{
	"asset":{
		"generator":"Khronos glTF Blender I/O v4.5.47",
		"version":"2.0"
	},
	"scene":0,
	"scenes":[
		{
			"name":"Scene",
			"nodes":[
				0,
				1
			]
		}
	],
	"nodes":[
		{
			"camera":0,
			"name":"Camera",
			"rotation":[
				-0.19457919895648956,
				0.005922903772443533,
				0.0011749527184292674,
				0.9808682203292847
			],
			"translation":[
				1.1788911819458008,
				34.358306884765625,
				87.70578002929688
			]
		},
		{
			"mesh":0,
			"name":"Hakoniwa",
			"scale":[
				40.259822845458984,
				40.259822845458984,
				40.259822845458984
			]
		}
	],
	"cameras":[
		{
			"name":"Camera",
			"perspective":{
				"aspectRatio":1.7777777777777777,
				"yfov":0.39959648408210363,
				"zfar":100,
				"znear":0.10000000149011612
			},
			"type":"perspective"
		}
	],
	"materials":[
		{
			"alphaMode":"BLEND",
			"name":"Material.003",
			"pbrMetallicRoughness":{
				"baseColorFactor":[
					0.03945416957139969,
					0.8000000715255737,
					0.6466332674026489,
					1
				],
				"metallicFactor":0,
				"roughnessFactor":0.5
			}
		},
		{
			"name":"Material.004",
			"pbrMetallicRoughness":{
				"metallicFactor":0,
				"roughnessFactor":0.5
			}
		}
	],
	"meshes":[
		{
			"name":"Plane.005",
			"primitives":[
				{
					"attributes":{
						"POSITION":0,
						"NORMAL":1,
						"TEXCOORD_0":2,
						"COLOR_0":3
					},
					"indices":4,
					"material":0
				},
				{
					"attributes":{
						"POSITION":5,
						"NORMAL":6,
						"TEXCOORD_0":7,
						"COLOR_0":8
					},
					"indices":9,
					"material":1
				}
			]
		}
	],
	"accessors":[
		{
			"bufferView":0,
			"componentType":5126,
			"count":3236,
			"max":[
				0.5429679155349731,
				0.0075243087485432625,
				0.6342391967773438
			],
			"min":[
				-0.49104177951812744,
				-1.007023811340332,
				-0.46451425552368164
			],
			"type":"VEC3"
		},
		{
			"bufferView":1,
			"componentType":5126,
			"count":3236,
			"type":"VEC3"
		},
		{
			"bufferView":2,
			"componentType":5126,
			"count":3236,
			"type":"VEC2"
		},
		{
			"bufferView":3,
			"componentType":5123,
			"count":3236,
			"normalized":true,
			"type":"VEC4"
		},
		{
			"bufferView":4,
			"componentType":5123,
			"count":3831,
			"type":"SCALAR"
		},
		{
			"bufferView":5,
			"componentType":5126,
			"count":53622,
			"max":[
				0.602908194065094,
				0.39431071281433105,
				0.6014221906661987
			],
			"min":[
				-0.6167467832565308,
				-0.9010623693466187,
				-0.6055005788803101
			],
			"type":"VEC3"
		},
		{
			"bufferView":6,
			"componentType":5126,
			"count":53622,
			"type":"VEC3"
		},
		{
			"bufferView":7,
			"componentType":5126,
			"count":53622,
			"type":"VEC2"
		},
		{
			"bufferView":8,
			"componentType":5123,
			"count":53622,
			"normalized":true,
			"type":"VEC4"
		},
		{
			"bufferView":9,
			"componentType":5123,
			"count":53622,
			"type":"SCALAR"
		}
	],
	"bufferViews":[
		{
			"buffer":0,
			"byteLength":38832,
			"byteOffset":0,
			"target":34962
		},
		{
			"buffer":0,
			"byteLength":38832,
			"byteOffset":38832,
			"target":34962
		},
		{
			"buffer":0,
			"byteLength":25888,
			"byteOffset":77664,
			"target":34962
		},
		{
			"buffer":0,
			"byteLength":25888,
			"byteOffset":103552,
			"target":34962
		},
		{
			"buffer":0,
			"byteLength":7662,
			"byteOffset":129440,
			"target":34963
		},
		{
			"buffer":0,
			"byteLength":643464,
			"byteOffset":137104,
			"target":34962
		},
		{
			"buffer":0,
			"byteLength":643464,
			"byteOffset":780568,
			"target":34962
		},
		{
			"buffer":0,
			"byteLength":428976,
			"byteOffset":1424032,
			"target":34962
		},
		{
			"buffer":0,
			"byteLength":428976,
			"byteOffset":1853008,
			"target":34962
		},
		{
			"buffer":0,
			"byteLength":107244,
			"byteOffset":2281984,
			"target":34963
		}
	],
	"buffers":[
		{
			"byteLength":2389228,
			"uri":"hakoniwa-level-001.bin"
		}
	]
}
