<?xml version="1.0" encoding="UTF-8" standalone="no"?>
<svg
   xmlns:dc="http://purl.org/dc/elements/1.1/"
   xmlns:cc="http://creativecommons.org/ns#"
   xmlns:rdf="http://www.w3.org/1999/02/22-rdf-syntax-ns#"
   xmlns:svg="http://www.w3.org/2000/svg"
   xmlns="http://www.w3.org/2000/svg"
   xmlns:sodipodi="http://sodipodi.sourceforge.net/DTD/sodipodi-0.dtd"
   xmlns:inkscape="http://www.inkscape.org/namespaces/inkscape"
   width="172mm"
   height="172mm"
   viewBox="0 0 172 172"
   version="1.1"
   id="svg8"
   sodipodi:docname="dinar.svg"
   inkscape:version="1.0.1 (0767f8302a, 2020-10-17)">
  <sodipodi:namedview
     pagecolor="#ffffff"
     bordercolor="#666666"
     borderopacity="1"
     objecttolerance="10"
     gridtolerance="10"
     guidetolerance="10"
     inkscape:pageopacity="0"
     inkscape:pageshadow="2"
     inkscape:window-width="1848"
     inkscape:window-height="1016"
     id="namedview7"
     showgrid="false"
     inkscape:zoom="1.3506056"
     inkscape:cx="197.68909"
     inkscape:cy="265.80668"
     inkscape:window-x="72"
     inkscape:window-y="27"
     inkscape:window-maximized="1"
     inkscape:current-layer="layer1"
     inkscape:document-rotation="0" />
  <defs
     id="defs2" />
  <metadata
     id="metadata5">
    <rdf:RDF>
      <cc:Work
         rdf:about="">
        <dc:format>image/svg+xml</dc:format>
        <dc:type
           rdf:resource="http://purl.org/dc/dcmitype/StillImage" />
        <dc:title></dc:title>
      </cc:Work>
    </rdf:RDF>
  </metadata>
  <g
     id="layer1">
    <path
       style="fill:#ffd700;stroke-width:0.0846667;fill-opacity:1"
       d="m 75.827348,171.32412 c -0.882247,-0.19138 -1.858577,-0.53981 -2.748116,-0.98075 -2.228124,-1.10446 -2.931427,-2.0367 -2.929865,-3.88359 0.001,-1.19788 0.482662,-1.78883 1.870257,-2.29466 1.543184,-0.56254 2.201105,-1.23083 2.825489,-2.87001 0.168511,-0.44238 0.586945,-1.34725 0.929855,-2.01083 0.34291,-0.66357 0.61293,-1.2065 0.60005,-1.2065 -0.0129,0 -0.39492,0.17359 -0.848955,0.38577 -2.905349,1.35768 -3.484032,1.48465 -4.433988,0.97289 -1.090004,-0.5872 -2.475367,-2.11179 -3.441409,-3.78725 -0.528458,-0.91655 -1.145147,-2.68266 -1.145147,-3.27956 0,-0.80196 0.321441,-1.09095 3.301999,-2.96863 1.714705,-1.08023 5.300454,-2.91145 5.843612,-2.98431 0.402368,-0.054 0.443818,0.0215 0.590368,1.07496 0.26509,1.90563 1.30371,3.9583 3.0348,5.99781 l 0.381402,0.44934 0.64174,-0.62503 c 0.35296,-0.34376 0.94655,-0.88791 1.31908,-1.20923 0.372527,-0.32132 1.020227,-0.91057 1.439327,-1.30945 0.70435,-0.67036 1.64117,-1.32014 1.8083,-1.25422 0.0389,0.0154 -0.47286,0.77068 -1.13729,1.6785 -0.66443,0.90782 -1.1955,1.66314 -1.18016,1.67848 0.0153,0.0153 0.87913,-0.29541 1.91952,-0.69056 3.44416,-1.30811 3.69342,-1.34864 3.88438,-0.6315 0.82916,3.11394 1.7631,4.79169 3.85978,6.93384 0.48316,0.49363 0.87847,0.95712 0.87847,1.02997 0,0.39779 -1.84715,1.6204 -4.55479,3.01476 -3.57431,1.84067 -4.21688,2.02253 -5.26654,1.49047 -0.4588,-0.23255 -1.47991,-1.27026 -2.164207,-2.19938 -0.75206,-1.02112 -1.773062,-2.7681 -2.030792,-3.47477 l -0.22903,-0.62794 -0.26996,0.35802 c -0.64293,0.85267 -1.50365,2.10984 -1.94692,2.8437 -0.61019,1.01017 -1.240303,2.26255 -1.172494,2.33036 0.02876,0.0288 0.245967,0.0529 0.482684,0.0536 0.53419,0.002 1.38799,0.19791 1.82095,0.41879 0.45247,0.23084 0.88955,0.77033 1.05802,1.30594 0.078,0.24785 0.17312,0.92291 0.21149,1.50015 0.0614,0.92418 0.10797,1.14559 0.38971,1.85386 0.404862,1.01777 0.461692,1.53842 0.219692,2.01278 -0.187072,0.3667 -0.698872,0.77089 -1.186612,0.93713 -0.38766,0.13213 -1.95443,0.1125 -2.6247,-0.0329 z m -1.165149,-3.19217 c -0.02846,-0.15134 -0.145589,-0.57715 -0.260276,-0.94624 -0.386965,-1.24534 -0.874675,-1.43393 -2.108101,-0.81518 -1.078367,0.54097 -1.058555,0.50607 -0.52769,0.92969 0.796709,0.63576 1.877649,1.08799 2.632436,1.10132 0.310767,0.006 0.314625,0.002 0.263631,-0.26959 z m 2.729349,-0.35909 c 0.60065,-0.352 0.87455,-0.96827 0.70696,-1.59064 -0.22587,-0.8388 -0.6269,-1.0353 -1.58802,-0.77808 -1.042761,0.27907 -1.12858,0.36968 -0.870665,0.91924 0.08984,0.19143 0.190825,0.44332 0.224385,0.55973 0.0894,0.30993 0.3521,0.8087 0.50824,0.96484 0.19695,0.19695 0.60637,0.16678 1.0191,-0.0751 z m 7.132919,3.22726 c -0.4041,-0.0535 -0.75565,-0.11815 -0.78122,-0.14373 -0.0489,-0.0489 3.05919,-0.58501 4.6486,-0.80181 2.60399,-0.35517 4.19037,-1.21926 4.19037,-2.28247 0,-0.72944 -0.63257,-1.26262 -2.15265,-1.81441 -0.50749,-0.18421 -1.00048,-0.41272 -1.09555,-0.50779 l -0.17285,-0.17285 0.1732,-0.23414 c 0.24401,-0.32986 1.2441,-0.92822 1.88156,-1.12575 1.35488,-0.41981 2.91158,0.0583 3.97682,1.22149 0.51856,0.56622 0.688,0.98593 0.69024,1.70977 0.004,1.15717 -0.66045,2.0348 -2.09275,2.76589 -1.34939,0.68877 -2.81859,1.14442 -4.42726,1.37304 -1.05286,0.14964 -3.75046,0.15675 -4.83851,0.0128 z M 62.526186,168.6989 c -0.703025,-0.15085 -1.679284,-0.49484 -2.328333,-0.82041 -1.005211,-0.50423 -1.156935,-0.70952 -0.783167,-1.05965 0.262233,-0.24564 0.526065,-0.33318 1.340293,-0.44466 0.801233,-0.1097 1.389287,-0.37293 1.725346,-0.77232 0.278582,-0.33107 0.246737,-0.66251 -0.09825,-1.0226 -0.385574,-0.40246 -0.990027,-0.56401 -2.634165,-0.70404 -5.710685,-0.48636 -8.559443,-1.0052 -12.33066,-2.24578 -2.520734,-0.82922 -3.84595,-1.45491 -5.228626,-2.46865 -0.884891,-0.64877 -1.111451,-1.14703 -0.705951,-1.55253 0.283831,-0.28383 0.790535,-0.27472 2.338739,0.042 2.40634,0.49227 4.194839,0.67336 5.073442,0.51369 0.664214,-0.12071 1.526881,-0.39907 1.671617,-0.53938 0.0828,-0.0803 0.08404,-0.20334 0.0058,-0.57633 -0.08646,-0.41222 -0.07919,-0.52819 0.05564,-0.88652 0.184715,-0.49095 0.627652,-0.9419 1.196777,-1.21843 0.504399,-0.24509 1.606227,-0.32457 2.316393,-0.16709 1.174807,0.26052 2.489952,1.10062 2.979401,1.90321 0.313748,0.51449 0.08183,1.55451 -0.457878,2.0533 -0.320743,0.29644 -1.251771,0.76206 -2.052755,1.02663 -1.369376,0.4523 -2.223672,0.55814 -4.466166,0.55329 -1.105959,-0.002 -2.010833,0.0102 -2.010833,0.0281 0,0.0699 0.972554,0.45726 1.548897,0.61698 0.948107,0.26273 4.651908,0.641 8.310345,0.84874 1.867304,0.10603 2.683008,0.23348 3.772274,0.58944 1.606231,0.52489 3.619188,1.74788 4.853602,2.94886 0.626006,0.60905 0.81888,0.97715 0.81888,1.56286 0,0.88741 -0.784208,1.61107 -1.98405,1.83085 -0.685001,0.12549 -2.256536,0.10427 -2.926617,-0.0395 z m 41.346654,-0.47225 c -4.824933,-0.69365 -8.179153,-4.06178 -8.968683,-9.00587 -0.21497,-1.34614 -0.26014,-5.15821 -0.0818,-6.90033 0.34964,-3.4149 1.23191,-6.82592 2.58093,-9.97831 0.58529,-1.36769 1.12564,-2.44828 1.06464,-2.12902 -0.2702,1.41401 -0.54395,2.69863 -0.97264,4.56416 -0.93628,4.07454 -1.14202,5.4619 -1.13744,7.67017 0.003,1.4719 0.0226,1.68013 0.22978,2.44929 1.71155,6.35376 9.069163,8.31806 17.464203,4.6625 1.91851,-0.8354 4.1842,-2.12505 6.76162,-3.84877 3.4658,-2.31785 6.38311,-4.72395 9.49501,-7.83119 2.03675,-2.03369 2.2759,-2.36159 2.54091,-3.48389 0.10307,-0.4365 0.12625,-0.81595 0.0918,-1.5028 -0.0254,-0.50536 -0.0581,-0.93008 -0.0727,-0.94382 -0.0146,-0.0137 -0.38854,0.045 -0.83092,0.13051 -2.2369,0.43241 -4.6046,0.4434 -7.366,0.0342 -2.85667,-0.42334 -4.16796,-1.35368 -4.70717,-3.33968 -0.2026,-0.74622 -0.20371,-2.71239 -0.002,-3.75175 0.46306,-2.38739 2.15255,-5.129 4.00938,-6.50621 0.94123,-0.6981 2.19036,-1.16758 3.1129,-1.16997 0.55207,-0.001 1.69573,0.31256 2.43889,0.66961 1.72386,0.82821 2.94674,2.19061 4.33104,4.82518 0.93692,1.78312 1.35029,2.21063 2.13287,2.2058 1.18189,-0.007 4.47421,-2.35411 5.59529,-3.98842 0.40625,-0.59225 0.76571,-1.36424 1.00815,-2.16513 0.20199,-0.66729 0.22949,-0.91655 0.26428,-2.39577 0.0676,-2.87481 -0.15502,-8.01248 -0.79704,-18.39129 -0.22099,-3.57258 -0.38262,-6.5148 -0.35916,-6.53825 0.0234,-0.0234 0.65353,-0.19602 1.40018,-0.38347 0.74665,-0.18746 1.56984,-0.41388 1.82932,-0.50316 l 0.47178,-0.16231 0.0481,0.77607 c 0.0265,0.42684 0.0881,1.46187 0.13699,2.30007 0.0489,0.8382 0.18255,2.64795 0.29705,4.02167 0.37665,4.5192 0.48356,6.69497 0.48673,9.906 0.004,3.87368 -0.18729,6.31128 -0.74349,9.48267 -0.85794,4.89184 -2.27104,8.12278 -4.60518,10.52938 -1.13302,1.16819 -2.10641,1.86569 -3.79656,2.72052 -1.56316,0.7906 -1.88423,1.32771 -1.88423,3.15209 0,2.38429 -1.42036,5.90187 -3.29144,8.15134 -1.29233,1.55368 -5.60843,5.80283 -7.88456,7.76226 -3.37366,2.90425 -6.52703,5.04053 -9.77899,6.62486 -2.76437,1.34678 -4.80397,2.00704 -7.06745,2.28787 -0.83959,0.10416 -2.69791,0.1005 -3.44423,-0.007 z m 25.37068,-32.40689 c 0,-0.15352 -0.74742,-1.08166 -1.21272,-1.50593 -0.8739,-0.79686 -1.94954,-1.17163 -3.19213,-1.11222 -1.14103,0.0546 -1.64471,0.44677 -1.64056,1.2775 0.005,0.97872 0.38935,1.26214 1.81207,1.33587 1.60024,0.0829 4.23334,0.0859 4.23334,0.005 z m -68.947861,23.83232 c -0.405304,-0.15007 -0.6958,-0.41658 -0.931546,-0.85463 -0.160951,-0.29907 -0.181586,-0.46735 -0.176486,-1.43934 0.01318,-2.51248 0.892723,-4.69253 2.920578,-7.239 1.205132,-1.51334 4.180638,-4.57357 4.60898,-4.74023 0.685209,-0.2666 0.202605,0.68603 -1.421109,2.80516 -1.141553,1.48986 -2.343637,3.2835 -2.291548,3.41924 0.0244,0.0636 0.171451,0.21255 0.326775,0.33103 0.872031,0.66512 1.101958,2.61686 0.512464,4.35004 -0.291726,0.85771 -1.209481,2.61102 -1.539422,2.94096 -0.433597,0.4336 -1.422702,0.64375 -2.008686,0.42677 z m 2.187551,-2.86547 c 0.595572,-0.55893 0.600328,-1.56969 0.01019,-2.16524 -0.502023,-0.50662 -1.154248,-0.44152 -1.559286,0.15565 -0.175886,0.25931 -0.196679,0.37403 -0.17148,0.94611 0.02588,0.58762 0.05337,0.67712 0.282282,0.91897 0.484815,0.51222 0.992165,0.5632 1.438297,0.14451 z m 42.0931,1.39034 c -0.18498,-0.2044 -0.17674,-0.46898 0.0364,-1.16975 0.21631,-0.71105 0.71447,-1.65856 1.21177,-2.30484 0.52376,-0.68066 2.56715,-2.63411 3.19155,-3.05107 0.65845,-0.4397 1.31507,-0.63821 1.88696,-0.57048 0.41584,0.0493 0.76886,0.19995 1.60004,0.68301 0.60918,0.35404 0.70331,0.29619 1.32943,-0.81697 1.89544,-3.36983 3.29384,-4.75628 4.91421,-4.87222 1.09532,-0.0784 1.88716,0.38631 2.38641,1.40042 0.2455,0.49871 0.27858,0.64709 0.27753,1.24529 -0.001,0.78688 -0.19556,1.44631 -0.76901,2.61161 -0.47431,0.96385 -0.81878,1.42595 -1.63144,2.1885 -0.79378,0.74483 -1.68291,1.26826 -2.80969,1.65405 -0.70422,0.24112 -1.02484,0.29877 -2.04171,0.36714 -0.66346,0.0446 -1.28415,0.0589 -1.37929,0.0317 -0.0952,-0.0272 -0.63246,-0.27875 -1.19402,-0.55906 -1.09367,-0.5459 -1.59147,-0.66416 -2.09555,-0.49781 -0.61975,0.20454 -1.40726,0.82986 -2.8971,2.30045 -0.96842,0.9559 -1.59776,1.51487 -1.70557,1.51487 -0.094,0 -0.23391,-0.0697 -0.31097,-0.15483 z m 11.52687,-5.94966 c 0.73452,-0.19327 1.47357,-0.55092 2.19356,-1.06153 0.85592,-0.60701 0.98446,-0.94666 0.53017,-1.40095 -0.24671,-0.24671 -0.28019,-0.2553 -0.86783,-0.22278 -0.76235,0.0422 -1.12065,0.21141 -1.80697,0.85343 -0.46936,0.43905 -1.64059,1.89636 -1.64059,2.04129 0,0.088 0.92263,-0.0334 1.59166,-0.20946 z m 13.12024,4.8713 c -0.24822,-0.13469 -0.36671,-0.42907 -0.28118,-0.69856 0.029,-0.0913 0.38483,-0.48483 0.79081,-0.87453 0.5869,-0.56338 0.98099,-0.8456 1.92347,-1.3774 3.1978,-1.80443 5.65826,-3.5322 7.46337,-5.24089 1.69233,-1.60193 2.28481,-2.83651 2.44325,-5.09109 0.0293,-0.41652 0.10644,-0.88471 0.17149,-1.0404 l 0.11828,-0.28307 0.32047,0.17252 c 0.17625,0.0949 0.45382,0.28454 0.6168,0.42145 0.6655,0.55899 1.05706,0.38456 1.63029,-0.72626 0.51243,-0.99299 1.03277,-2.57402 1.25421,-3.81091 0.18842,-1.05238 0.24764,-1.22516 0.52405,-1.52883 0.15796,-0.17352 0.18716,-0.17798 0.41017,-0.0627 0.13206,0.0683 0.38966,0.34439 0.57246,0.61357 0.41255,0.60751 0.54881,0.72322 0.76925,0.65326 0.38155,-0.12109 1.09943,-1.45996 1.39844,-2.60815 0.23396,-0.89839 0.35425,-1.81137 0.46128,-3.50123 0.0785,-1.23983 0.20472,-1.70619 0.59631,-2.20402 l 0.17175,-0.21835 0.24808,0.53987 c 0.20932,0.45554 0.26231,0.71702 0.33922,1.67383 0.27926,3.4741 -0.0543,6.30348 -0.96472,8.18404 -0.41472,0.85659 -1.11128,1.79685 -1.65052,2.22795 -0.5192,0.41508 -1.03298,1.15792 -1.56225,2.25875 -0.84161,1.75047 -1.26434,2.22705 -3.64951,4.11449 -0.74406,0.58879 -1.79099,1.43992 -2.32651,1.89141 -3.15707,2.66164 -7.07371,5.16384 -9.94015,6.35041 -0.7954,0.32925 -1.43966,0.38669 -1.84861,0.1648 z m -90.462082,-1.81813 c -2.901843,-0.23822 -5.569688,-1.3888 -7.351359,-3.17047 -2.081501,-2.0815 -3.299917,-5.30367 -3.643339,-9.63501 l -0.05897,-0.74381 -0.189245,0.40514 c -0.452913,0.9696 -1.308205,1.37006 -2.417877,1.13208 -0.495671,-0.10631 -1.819459,-0.70538 -2.494094,-1.12869 -1.708558,-1.07208 -3.185516,-2.61107 -4.489653,-4.67825 -1.261293,-1.99927 -3.935273,-8.16581 -3.935273,-9.07526 0,-0.28342 0.01196,-0.29581 0.232833,-0.24126 0.128058,0.0316 0.255618,0.0834 0.283467,0.11501 0.280501,0.3186 0.987839,1.45759 1.770832,2.85151 1.143336,2.03541 2.670775,4.49719 2.827693,4.5574 0.06232,0.0239 0.318098,-0.0534 0.568405,-0.17184 0.654541,-0.30968 1.457956,-0.35118 2.304213,-0.119 1.660936,0.45566 2.908971,1.40398 4.533492,3.44476 0.447734,0.56246 0.859448,1.09586 0.914917,1.18533 0.08341,0.13454 0.101873,0.0455 0.106741,-0.51465 0.007,-0.80214 0.197958,-2.65521 0.383956,-3.72533 0.529138,-3.04436 1.608077,-6.05473 3.155896,-8.80534 0.399361,-0.7097 1.540186,-2.49766 1.593653,-2.49766 0.0388,0 -0.03711,0.19431 -0.430001,1.10066 -2.231524,5.1479 -3.210863,9.336 -2.933048,12.54307 0.519633,5.99859 3.732946,9.67919 9.394364,10.76051 1.337541,0.25546 4.682508,0.27547 6.195917,0.037 4.27792,-0.67394 8.679089,-2.17879 13.538966,-4.62924 2.882961,-1.45365 6.41905,-3.53159 8.897698,-5.22864 3.950535,-2.70479 5.187961,-4.83531 5.962262,-10.26541 0.283614,-1.98896 0.75393,-6.00442 1.061085,-9.05934 1.00815,-10.02687 1.367009,-18.3064 1.181643,-27.262658 -0.127976,-6.183343 -0.01858,-8.145123 0.597276,-10.711233 0.29547,-1.23115 0.61464,-2.12147 1.12009,-3.12445 l 0.38032,-0.75469 0.22386,1.18355 c 1.22001,6.45003 1.531002,14.270453 0.9422,23.693821 -0.17576,2.81289 -0.39356,5.50822 -0.92705,11.47233 -0.92604,10.35273 -1.22835,15.085 -1.22835,19.22821 0,2.65441 0.21208,3.66262 1.06844,5.0792 1.16123,1.9209 2.519752,2.97491 4.519549,3.5065 1.28525,0.34165 2.95798,0.6258 4.28619,0.72811 3.16284,0.24364 6.60223,-0.48131 9.89468,-2.08558 0.60493,-0.29475 1.11001,-0.52579 1.12239,-0.51341 0.0124,0.0124 -0.14957,0.39078 -0.3599,0.84087 -0.75041,1.60585 -1.56621,3.81754 -2.03477,5.51643 -0.12843,0.46567 -0.27553,0.89042 -0.32688,0.94389 -0.14059,0.1464 -1.91094,0.82723 -3.02133,1.16193 -3.50994,1.05799 -6.8394,1.03532 -10.19538,-0.0694 -2.053537,-0.67599 -3.772049,-1.67297 -5.109429,-2.96419 -2.166392,-2.09161 -2.961239,-4.47091 -2.985031,-8.93538 l -0.0088,-1.65151 -0.14521,0.59266 c -0.52479,2.14191 -1.67677,4.06401 -3.584765,5.98128 -3.198374,3.21391 -8.884195,7.03123 -14.084192,9.45578 -5.057967,2.35833 -10.371744,3.93735 -14.290356,4.24648 -1.196168,0.0944 -1.650279,0.0941 -2.818721,-0.002 z M 24.493201,140.2404 c 0.658632,-0.48785 0.777331,-1.11507 0.335155,-1.771 -0.513564,-0.76183 -1.607027,-1.09153 -2.37965,-0.71752 -0.417663,0.20219 -0.587085,0.40974 -0.716204,0.87737 -0.180283,0.65293 0.239251,1.25617 1.135804,1.63315 0.603714,0.25385 1.264573,0.2449 1.624895,-0.022 z m 84.006979,7.29647 c -2.63045,-0.53052 -4.29596,-2.58637 -4.32131,-5.33409 -0.008,-0.89104 -0.12772,-1.22656 -0.50977,-1.43126 -0.57546,-0.30834 -0.75649,-0.17713 -2.32325,1.68382 -0.46567,0.55311 -1.14798,1.33216 -1.516253,1.73122 -0.6759,0.7324 -1.9195,1.89003 -1.97295,1.83658 -0.0159,-0.0159 0.1412,-0.78675 0.34914,-1.71298 0.31743,-1.41388 0.50044,-2.3058 0.94822,-4.62107 0.0319,-0.16481 0.39708,-0.52582 1.322483,-1.30731 0.70314,-0.59381 1.9484,-1.70704 2.76724,-2.47386 1.97566,-1.85018 2.32253,-2.06569 2.79367,-1.7357 0.19483,0.13647 0.19825,0.16102 0.14433,1.03717 -0.0304,0.49357 -0.0778,1.12978 -0.10531,1.4138 -0.10163,1.04799 0.51755,2.73474 1.33035,3.62407 0.77608,0.84916 1.80275,1.20884 3.21008,1.1246 1.81293,-0.10851 3.52227,-0.90262 5.65997,-2.62945 1.01952,-0.82357 1.03398,-1.24051 0.0919,-2.65002 -0.78698,-1.17746 -1.68862,-2.24192 -3.07889,-3.6349 -2.11478,-2.11888 -4.04395,-3.79126 -10.96369,-9.50425 l -1.64437,-1.3576 -0.34104,0.39757 c -0.705153,0.82205 -2.589323,2.68647 -3.632893,3.5948 -2.18258,1.89974 -5.10752,3.98796 -7.681,5.48373 -1.35166,0.78562 -4.04277,2.13283 -5.461,2.73386 -1.19052,0.50453 -2.934987,1.17313 -2.968487,1.13774 -0.0192,-0.0204 1.965097,-1.70803 6.098317,-5.18656 7.29753,-6.14162 11.30388,-9.57553 11.61908,-9.95888 0.0843,-0.10251 -0.10295,-0.30538 -1.10067,-1.19242 -3.49709,-3.10921 -6.94667,-7.02175 -10.54284,-11.95782 -1.19386,-1.63868 -1.48584,-2.16551 -1.62482,-2.93176 -0.30048,-1.65658 0.66766,-7.444368 1.50546,-8.999968 0.31568,-0.58616 1.13827,-1.44163 1.93774,-2.01521 0.36532,-0.26208 1.32767,-0.88512 2.13855,-1.38452 4.25165,-2.61845 8.98517,-4.987933 16.318013,-8.168383 2.6981,-1.17024 2.48533,-0.98908 2.48533,-2.11607 0,-0.56647 0.23057,-3.04194 0.45746,-4.9113 0.11147,-0.91847 0.30833,-1.60867 0.45883,-1.60867 0.037,0 0.12724,0.0476 0.20045,0.10584 0.20065,0.15954 0.25993,2.14117 0.14057,4.69921 -0.0549,1.17592 -0.0785,2.15931 -0.0525,2.1853 0.026,0.026 0.80376,-0.26465 1.7284,-0.64587 6.33284,-2.61097 13.63882,-5.16144 17.05055,-5.95221 1.44507,-0.33494 3.96533,-0.7768 4.92857,-0.86408 0.77293,-0.07 1.44234,0.0616 1.94973,0.38335 0.79772,0.5059 1.18217,1.84689 1.00515,3.50595 -0.12839,1.20322 -0.37259,2.06188 -0.89958,3.16306 -0.97253,2.03217 -2.2954,3.73269 -6.93203,8.910963 -2.467,2.75519 -2.79505,3.16876 -3.8199,4.81571 -0.46457,0.74655 -0.85404,1.34799 -0.86549,1.33654 -0.0586,-0.0586 0.51333,-2.00122 0.7803,-2.65065 0.93992,-2.28645 2.3022,-4.30562 4.80053,-7.115383 2.32982,-2.62025 4.02646,-4.65797 4.26931,-5.1276 0.22729,-0.43954 0.18704,-0.8108 -0.11741,-1.08283 -0.32961,-0.29451 -0.67486,-0.39491 -1.75726,-0.51104 -2.48249,-0.26635 -5.48114,0.43457 -12.23433,2.85971 -2.75413,0.98904 -5.39706,2.02318 -9.10167,3.56136 l -0.59266,0.24608 -0.0267,0.41681 c -0.0283,0.44227 0.18012,3.035523 0.32954,4.100453 0.29097,2.07385 1.33509,4.68151 2.16808,5.41474 0.20836,0.1834 0.57202,0.39762 0.80813,0.47605 0.42551,0.14133 1.1752,0.18275 1.49137,0.0824 0.16029,-0.0509 0.15942,-0.0657 -0.0365,-0.62083 -0.26373,-0.74721 -0.27302,-1.43666 -0.023,-1.70506 0.41799,-0.44866 1.16577,-0.5524 1.71609,-0.23807 0.84969,0.48532 1.56734,2.78094 1.46193,4.67644 -0.0957,1.719988 -0.69275,2.830288 -1.85269,3.445058 -0.49011,0.25975 -1.41923,0.25866 -2.14166,-0.002 -1.36521,-0.49354 -2.36762,-1.53332 -3.33622,-3.460588 -1.28682,-2.56048 -1.80513,-5.24864 -2.00852,-10.41714 -0.0316,-0.803273 -0.0903,-1.460503 -0.13045,-1.460503 -0.0976,0 -4.79422,2.093893 -7.67112,3.420043 -4.419933,2.03742 -8.027623,3.89843 -10.687353,5.51298 -1.55208,0.94217 -3.62732,2.33607 -3.86377,2.5952 -0.49148,0.53865 -0.29605,0.83804 1.20892,1.851918 2.47139,1.66494 4.72601,3.34523 5.42393,4.04228 0.30752,0.30712 0.6605,0.93563 0.57397,1.02195 -0.0305,0.0304 -0.7555,0.0553 -1.61114,0.0553 h -1.55569 l 0.27811,0.29633 c 0.15297,0.16299 0.98479,1.07739 1.84851,2.032 2.19919,2.43066 4.18552,4.32688 7.836363,7.48089 l 0.868,0.74988 0.16962,-0.19955 c 0.52989,-0.6234 1.76522,-2.29045 2.28787,-3.08743 0.33259,-0.50717 0.94783,-1.62697 1.3672,-2.48845 0.41937,-0.86149 0.96685,-1.98544 1.21662,-2.49767 0.56842,-1.16571 0.97464,-1.70029 1.56509,-2.05959 0.44164,-0.26874 0.4936,-0.28001 1.14006,-0.24717 0.7699,0.0391 1.25452,0.2457 2.286,0.9745 1.64226,1.16033 3.07899,2.88571 4.4344,5.32528 0.54822,0.98671 1.78059,3.58328 2.13331,4.49481 0.16801,0.43419 0.23936,0.52917 0.39751,0.52917 0.12049,0 0.22178,-0.0714 0.27021,-0.1905 0.11543,-0.2839 0.66559,-5.33581 0.81368,-7.47183 0.14039,-2.02495 0.24751,-2.68907 0.6413,-3.97623 0.55678,-1.81993 1.33546,-3.23974 2.06356,-3.76261 0.57745,-0.41469 0.89898,-0.51616 1.6356,-0.51616 0.59574,0 0.73371,0.0325 1.26478,0.29821 0.41751,0.20888 0.75075,0.46354 1.11235,0.85009 0.58886,0.6295 0.87719,1.14573 1.01372,1.81503 0.44529,2.18282 0.50008,3.05609 0.21612,3.44414 -0.22641,0.30938 -0.74431,0.56725 -1.00691,0.50133 -0.11109,-0.0279 -0.3669,-0.18261 -0.56847,-0.34385 -0.86293,-0.69028 -1.99405,-1.23095 -2.57521,-1.23095 -0.60348,0 -1.08304,0.42769 -1.38525,1.23545 -0.46971,1.25539 -1.04333,5.84001 -1.31261,10.49088 -0.12961,2.23881 -0.256,3.22366 -0.55952,4.36033 -0.23231,0.86998 -0.77764,2.37067 -0.86146,2.37067 -0.15956,0 -0.9305,-0.92301 -1.19849,-1.43491 -0.15974,-0.30512 -0.48729,-1.12362 -0.72787,-1.8189 -0.50749,-1.4666 -0.78069,-2.03758 -1.39798,-2.92163 -0.24586,-0.35213 -0.82595,-1.34508 -1.28908,-2.20656 -1.549,-2.88133 -2.07577,-3.59783 -2.80602,-3.81661 -0.43081,-0.12907 -0.90143,-0.0186 -1.7349,0.4073 -1.08604,0.55495 -1.87905,0.37213 -3.52317,-0.8122 -0.3944,-0.2841 -0.73981,-0.4887 -0.76759,-0.45468 -0.0278,0.034 -0.17698,0.44286 -0.33155,0.90852 -0.38049,1.14628 -1.16985,2.93446 -1.79213,4.05978 -0.41909,0.75787 -0.49124,0.94333 -0.39527,1.016 0.41137,0.31147 5.87891,4.99 7.17413,6.13883 2.09669,1.85971 5.08565,4.86476 5.69929,5.72995 0.92149,1.29927 1.55633,2.672 1.933,4.17977 0.17934,0.71792 0.20103,0.99537 0.20183,2.58234 8.5e-4,1.65079 -0.0153,1.84197 -0.22586,2.67211 -0.8484,3.34502 -2.91655,6.11033 -5.87592,7.85664 -1.3092,0.77255 -2.6819,1.01772 -4.09853,0.73201 z M 43.634832,146.306 c -2.028651,-0.23696 -3.801003,-1.25565 -5.150265,-2.96022 -0.340249,-0.42985 -1.185026,-2.0337 -1.187828,-2.25515 -6.77e-4,-0.0529 -0.05813,-0.20529 -0.127696,-0.33867 -0.1617,-0.31005 -0.161905,-1.0216 -5.08e-4,-1.86489 0.161361,-0.84327 0.160648,-1.30823 -0.0026,-1.69895 -0.342613,-0.81999 -0.95159,-1.25813 -3.51326,-2.52771 l -1.775812,-0.88008 v -0.29429 c 0,-0.44686 0.191614,-0.51369 1.439334,-0.50204 1.584003,0.0148 2.422391,0.28373 4.717607,1.51324 1.266529,0.67846 1.897313,1.15141 2.283448,1.71206 0.285007,0.41381 0.323587,0.53231 0.351174,1.07861 0.01928,0.38189 -0.02416,0.86159 -0.114996,1.2699 -0.200778,0.90246 -0.198111,0.90462 1.527124,1.23567 3.456514,0.66327 5.145771,1.51124 5.811611,2.9173 0.695315,1.46831 -0.156939,3.12285 -1.830258,3.55322 -0.529203,0.13611 -1.48045,0.15257 -2.427067,0.042 z m 0.707533,-2.00819 c 0.41723,-0.36625 0.158491,-1.36049 -0.518958,-1.99416 -0.22517,-0.21063 -0.614485,-0.48702 -0.865143,-0.6142 -0.465199,-0.23605 -2.05075,-0.799 -2.250378,-0.799 -0.170822,0 -0.135118,0.14894 0.196681,0.82044 0.341708,0.69157 1.123844,1.59238 1.903455,2.19228 0.811074,0.62411 1.168275,0.71598 1.534343,0.39464 z m 13.176656,-1.33327 c -0.526026,-0.16931 -1.19828,-0.7869 -1.455671,-1.33729 -0.113291,-0.24226 -0.270282,-0.76231 -0.348869,-1.15567 -0.07859,-0.39337 -0.179403,-0.78344 -0.224035,-0.86684 -0.125708,-0.23489 -0.447121,-0.26939 -1.075357,-0.11543 -0.316799,0.0776 -0.783577,0.12938 -1.037284,0.11498 -0.428782,-0.0243 -0.463122,-0.0421 -0.487358,-0.25157 -0.02897,-0.25047 0.02648,-0.27342 1.621919,-0.67115 0.996653,-0.24846 1.175553,-0.40772 1.446766,-1.28795 0.282226,-0.91596 0.661472,-1.52197 1.970981,-3.1495 1.247568,-1.55056 1.63274,-2.08957 1.63274,-2.2849 0,-0.11378 -0.06251,-0.099 -0.359834,0.0853 -0.610915,0.37866 -1.178147,0.6063 -1.883833,0.75603 -0.372533,0.079 -0.783564,0.18423 -0.913402,0.23373 -0.296258,0.11298 -0.436509,0.35401 -0.322795,0.55476 0.06718,0.11861 0.202975,0.14705 0.702078,0.14705 0.576584,0 0.620625,0.0129 0.645752,0.18982 0.03862,0.27183 -0.30214,0.83084 -0.655736,1.07571 -0.718178,0.49737 -1.718819,0.46632 -2.041775,-0.0633 -0.208092,-0.34128 -0.209656,-0.74983 -0.0054,-1.40616 0.42683,-1.37141 1.322374,-2.09046 3.077168,-2.47071 1.632763,-0.35383 2.042813,-0.77052 2.491939,-2.53232 0.144904,-0.56842 0.712739,-0.37056 0.947425,0.33013 0.133031,0.39719 0.120155,1.17862 -0.03432,2.08287 -0.292873,1.71436 -0.741014,2.60739 -2.392245,4.76712 -1.395436,1.82517 -1.312226,1.68426 -0.859883,1.45613 1.01082,-0.50977 2.043499,-1.45916 2.881461,-2.64906 0.236603,-0.33597 0.903047,-1.39717 1.480986,-2.35822 1.312053,-2.1818 1.651907,-2.50758 2.70402,-2.59204 0.840804,-0.0675 1.450501,0.34096 1.659835,1.11195 0.158016,0.58199 0.0481,2.32643 -0.20946,3.32418 -0.769943,2.98271 -2.073724,5.22823 -4.224278,7.27553 -0.882046,0.8397 -1.607951,1.3079 -2.433719,1.5697 -0.724152,0.22959 -1.781084,0.28346 -2.297832,0.11713 z m 2.533102,-2.34612 c 0.870607,-0.35744 1.440942,-0.7433 2.287238,-1.54745 1.972696,-1.87444 3.136913,-4.10169 3.177922,-6.07963 0.01595,-0.76931 -0.08949,-1.0764 -0.464969,-1.3542 -0.225007,-0.16647 -0.226414,-0.16643 -0.597787,0.0133 -0.526411,0.25484 -0.727879,0.50194 -1.412684,1.73271 -0.886485,1.59323 -1.386297,2.29898 -2.200762,3.10755 -0.842415,0.83632 -1.840281,1.52619 -3.006954,2.07884 -0.452552,0.21438 -0.844447,0.44614 -0.870879,0.51501 -0.158378,0.41273 0.450512,1.29378 1.111939,1.60895 0.54842,0.26132 1.219607,0.23582 1.976936,-0.0751 z m 22.529534,0.0451 c 0.2763,-0.70034 0.94147,-2.1537 1.33957,-2.92691 l 0.38143,-0.74084 h 0.44239 c 0.76627,0 2.25399,-0.17236 3.30814,-0.38328 5.48073,-1.09656 10.5283,-4.60712 15.012633,-10.4412 0.3346,-0.43531 0.60836,-0.77526 0.60836,-0.75543 0,0.0897 -0.46789,1.17399 -0.73919,1.71305 -0.79363,1.57689 -2.15548,3.49205 -3.864723,5.43493 -2.81132,3.19564 -6.17505,5.63858 -9.74785,7.07948 -2.00105,0.80701 -3.7293,1.19039 -6.20216,1.37582 l -0.6996,0.0525 z m 71.354853,-3.59624 c -0.10752,-1.51474 -0.0636,-3.04044 0.11567,-4.01334 0.37122,-2.01526 0.38117,-3.17421 0.0458,-5.32917 -0.0725,-0.46566 -0.17002,-1.83376 -0.21677,-3.04022 -0.0467,-1.20645 -0.15962,-2.8257 -0.25082,-3.59833 -0.2129,-1.80359 -0.30914,-3.18804 -0.46845,-6.73878 -0.13638,-3.03937 -0.13894,-3.07571 -0.59248,-8.382 -0.39706,-4.64548 -0.51993,-6.301318 -0.71937,-9.694328 -0.19248,-3.27425 -0.35614,-5.35114 -0.59382,-7.53534 -0.0887,-0.814913 -0.20211,-2.434163 -0.25206,-3.598333 -0.15696,-3.658 -0.34589,-5.21917 -0.82005,-6.77614 -0.28664,-0.9412 -0.3155,-1.95154 -0.0761,-2.66419 0.24313,-0.72384 0.87141,-1.90324 1.88853,-3.54514 0.12105,-0.19542 0.14271,-0.16588 0.80665,1.10066 1.79927,3.43227 3.40756,7.04042 4.11887,9.24058 0.32527,1.0061 0.7691,2.68628 0.76935,2.91249 6e-5,0.0544 -0.13859,0.18465 -0.30811,0.28941 -0.26665,0.16481 -0.32088,0.17366 -0.40216,0.0656 -0.64308,-0.85495 -1.77864,-2.27417 -1.81937,-2.27385 -0.0289,2.6e-4 -0.16688,0.092 -0.30658,0.20383 l -0.254,0.20341 0.01,1.34134 c 0.007,0.94447 0.0746,1.79224 0.22832,2.865333 0.12007,0.8382 0.25941,2.11455 0.30968,2.83634 0.19952,2.86537 0.26806,3.7038 0.34262,4.191 0.16776,1.09611 0.34288,3.27178 0.50769,6.307658 0.0948,1.74625 0.22748,3.7846 0.29485,4.52967 0.0674,0.74507 0.25763,3.25967 0.42283,5.588 0.16519,2.32833 0.39246,5.26203 0.50504,6.51933 0.28238,3.15358 0.33486,4.71346 0.22195,6.59781 -0.16564,2.76451 -0.51982,5.06445 -1.19395,7.75319 -0.62614,2.49737 -1.02712,3.62091 -1.6475,4.61626 -0.58179,0.93345 -0.60184,0.93426 -0.66622,0.0272 z M 48.72552,136.2875 c -1.762843,-0.41164 -2.545467,-1.02737 -2.934188,-2.30848 -0.122005,-0.4021 -0.15005,-0.79574 -0.146996,-2.06324 0.01035,-4.30027 1.304007,-7.96506 4.93005,-13.96633 2.977338,-4.92763 3.375678,-5.6096 4.039995,-6.91647 1.40207,-2.75821 2.189355,-5.17129 2.633943,-8.0732 0.18557,-1.21124 0.208713,-4.379248 0.04082,-5.587998 -0.25675,-1.84849 -0.757629,-3.82609 -1.424761,-5.62533 -0.436976,-1.17851 -2.013165,-4.437773 -2.176418,-4.500433 -0.114122,-0.0438 -1.906172,0.7107 -5.047113,2.124943 -1.001184,0.4508 -1.862502,0.83718 -1.91404,0.85863 -0.163363,0.068 0.03704,-0.8984 0.30629,-1.47701 0.309258,-0.66458 1.013517,-1.383273 1.82947,-1.866953 0.331495,-0.1965 1.379245,-0.67732 2.328333,-1.06848 l 1.725613,-0.71121 0.05426,-0.57691 c 0.08974,-0.9541 0.467441,-1.6995 1.47395,-2.9089 1.121697,-1.3478 1.553082,-1.59096 2.010676,-1.13336 0.119706,0.1197 0.510643,0.7293 0.868749,1.35466 0.358107,0.62536 0.684845,1.13702 0.726086,1.13702 0.04124,0 1.417623,-0.54663 3.058628,-1.21473 3.545073,-1.44331 8.593558,-3.41256 10.036918,-3.91507 0.519914,-0.18101 0.567741,-0.1484 0.658049,0.44872 0.111513,0.73732 -0.500813,1.47353 -1.747928,2.10157 -0.310086,0.15616 -2.917225,1.23728 -5.793642,2.40249 -2.876416,1.16521 -5.244344,2.13306 -5.262062,2.15078 -0.01772,0.0177 0.06847,0.25714 0.191523,0.53206 0.445046,0.99427 1.043849,2.665483 1.336613,3.730363 1.291995,4.69948 1.179514,9.00722 -0.376918,14.435058 -1.410698,4.91962 -3.693706,9.38477 -8.045417,15.73543 -1.563282,2.28136 -2.446476,4.20501 -2.695885,5.87177 -0.04284,0.28631 -0.103339,1.19114 -0.134439,2.01073 -0.06345,1.67223 -0.01205,1.98535 0.409975,2.49734 0.503266,0.61055 1.880014,1.0481 2.77041,0.88048 0.840313,-0.1582 1.275891,-0.44304 2.208702,-1.44433 0.474367,-0.5092 0.878342,-0.90996 0.897722,-0.89058 0.06772,0.0677 -0.154824,1.62097 -0.322449,2.25059 -0.513763,1.92972 -2.586287,4.84348 -3.929481,5.52444 -0.444492,0.22534 -0.615,0.26228 -1.315044,0.2848 -0.455221,0.0146 -1.006451,-0.0213 -1.27,-0.0829 z m -22.544385,-1.81055 c -0.215997,-0.73166 -0.3448,-1.37716 -0.399728,-2.00323 -0.09185,-1.04694 -0.196555,-1.44466 -0.455479,-1.73015 -0.380262,-0.41927 -0.580874,-0.46232 -2.466072,-0.52916 -3.119273,-0.11058 -4.944614,-0.51656 -7.201049,-1.60158 -4.208043,-2.02347 -6.9078463,-5.4319 -8.2928023,-10.46944 -1.586895,-5.77208 -1.778697,-12.36846 -0.542427,-18.654938 0.653369,-3.3224 1.764503,-6.52868 3.3800073,-9.75329 1.588679,-3.171063 3.228248,-5.524993 6.070984,-8.716113 1.366025,-1.53344 1.462954,-1.65973 1.462954,-1.90624 0,-0.43109 -1.38175,-1.60363 -3.187327,-2.70473 -1.100371,-0.67105 -3.614433,-1.91103 -4.257539,-2.09991 -1.1064423,-0.32494 -2.1149913,-0.0481 -3.6966653,1.01488 -0.590596,0.3969 -1.182414,0.74336 -1.31515,0.7699 -0.278747,0.0558 -0.62615,-0.13484 -0.706347,-0.38752 -0.0289,-0.091 0.06298,-0.63499 0.204177,-1.20876 0.141194,-0.57377 0.334795,-1.51947 0.430224,-2.10155 0.30304,-1.84844 0.67854,-2.65124 1.666738,-3.56342 0.624592,-0.57655 1.528987,-1.05128 3.4958903,-1.83505 3.654763,-1.45635 6.714293,-2.21798 9.57022,-2.38237 1.490927,-0.0858 5.464394,0.0301 6.892034,0.20111 3.704317,0.44365 7.416415,1.82335 8.279023,3.07711 0.333096,0.48414 0.410194,1.17942 0.209381,1.88823 -0.07096,0.25046 -0.173692,0.68398 -0.228299,0.96338 -0.242582,1.24117 -1.10072,2.89283 -1.784296,3.43424 -0.18578,0.14714 -0.7936,0.49134 -1.350712,0.76489 -0.557111,0.27355 -1.403549,0.73463 -1.880974,1.02461 -1.37237,0.83356 -3.744571,2.35997 -3.768345,2.42477 -0.0323,0.088 1.004221,0.70488 2.003616,1.1924 2.031691,0.99109 4.0879,1.46227 6.400016,1.46656 4.342306,0.008 5.840787,-0.87005 10.510061,-6.1588 1.372277,-1.55433 2.660012,-2.83478 3.053567,-3.03627 0.163431,-0.0837 0.475568,-0.13873 0.78654,-0.13873 0.92539,0 1.490363,0.47113 1.682105,1.40271 0.552091,2.68233 -0.374037,6.6531 -2.227215,9.5492 -0.412854,0.6452 -0.515636,0.55605 -0.503052,-0.43633 0.0071,-0.55877 0.08525,-1.02271 0.323802,-1.92191 0.25556,-0.96331 0.309061,-1.29924 0.285635,-1.79347 -0.01585,-0.33447 -0.05701,-0.63632 -0.09146,-0.67077 -0.107713,-0.10771 -1.207792,0.70998 -1.81463,1.34882 -0.31913,0.33596 -1.013881,1.25777 -1.543892,2.04846 -1.232221,1.83828 -1.93463,2.72194 -2.874858,3.61669 -1.838331,1.74941 -3.610565,2.49316 -6.152085,2.58181 -4.208235,0.1468 -8.3203,-1.24082 -13.576879,-4.58153 -0.942828,-0.59919 -1.239171,-0.67575 -1.618295,-0.41805 -1.062965,0.7225 -4.775407,4.35811 -6.2092,6.080713 -4.048104,4.86349 -6.2538173,9.98383 -6.7473523,15.663328 -0.451884,5.20018 1.321177,11.0164 4.4617253,14.63591 2.189999,2.52399 5.510103,4.18342 9.513154,4.7548 1.088262,0.15534 1.38287,0.10745 1.469808,-0.23894 0.03587,-0.14293 -0.302282,-1.26411 -1.093513,-3.62567 -2.954342,-8.81772 -3.777205,-12.43162 -3.776174,-16.58443 7.62e-4,-3.155268 0.509948,-5.481268 1.754459,-8.014848 0.922082,-1.87717 2.690238,-4.24242 3.601487,-4.81766 0.236408,-0.14925 0.323109,-0.27097 0.369026,-0.51811 0.08773,-0.47221 0.374875,-0.93362 0.652583,-1.04866 0.33181,-0.13744 0.817479,0.0543 1.472837,0.58158 1.132621,0.91122 1.874226,1.3076 3.053165,1.63194 1.01496,0.27921 3.192016,0.31126 6.000654,0.0883 3.186059,-0.25289 4.724125,-0.29971 6.138333,-0.18686 4.790524,0.38226 8.150872,2.36454 9.70294,5.72379 0.440323,0.95302 0.703879,1.84755 0.922632,3.13151 0.910008,5.341208 0.01115,10.220708 -2.791783,15.155328 -2.661988,4.68648 -6.426951,8.67806 -10.721989,11.36735 -2.068852,1.2954 -5.234134,2.76703 -6.673948,3.10291 l -0.503925,0.11756 0.285906,-0.78983 c 0.157249,-0.43441 0.589448,-1.52591 0.960441,-2.42557 0.370994,-0.89967 0.852118,-2.1882 1.069163,-2.86342 0.262806,-0.81758 0.45156,-1.26783 0.565065,-1.3479 0.09374,-0.0661 0.634402,-0.33599 1.201469,-0.5997 2.294519,-1.06702 4.928313,-2.71079 7.000029,-4.36878 3.363452,-2.69175 6.965842,-7.07536 7.871667,-9.57873 0.48114,-1.3297 0.61353,-2.6046 0.39058,-3.76127 -0.267579,-1.38822 -0.755855,-2.34293 -1.731742,-3.38603 -1.608157,-1.718928 -3.998564,-2.690768 -7.272452,-2.956668 -1.288803,-0.10468 -2.395391,-0.0678 -5.354052,0.17872 -3.204417,0.26694 -3.024085,0.20623 -2.831911,0.95335 0.323635,1.25819 0.410691,2.061488 0.414787,3.827338 0.0032,1.39835 -0.02778,1.92263 -0.145273,2.45534 -0.322948,1.46417 -0.834266,2.02918 -1.650379,1.82368 -0.565179,-0.14231 -2.017146,-0.86828 -2.924897,-1.46241 -2.773859,-1.81552 -4.240477,-3.86894 -5.035294,-7.049938 -0.139624,-0.5588 -0.297986,-1.30175 -0.351915,-1.651 -0.17862,-1.15675 -0.142744,-1.10313 -0.479308,-0.71644 -2.138428,2.4569 -3.052671,4.16194 -3.338424,6.226098 -0.132544,0.95744 -0.05467,1.76123 0.350003,3.61285 0.597903,2.73573 1.382791,5.4808 3.092729,10.81649 0.537239,1.6764 1.222072,3.86715 1.521852,4.86833 0.299779,1.00119 0.584748,1.92017 0.633265,2.04219 0.171143,0.43042 0.623315,0.49022 2.447432,0.32366 1.698915,-0.15512 3.708341,-0.63585 5.22079,-1.24902 l 0.437123,-0.17721 -1.294207,1.93671 c -1.416083,2.11909 -2.568743,4.00472 -3.060638,5.00687 l -0.316195,0.64418 -0.575318,0.1853 c -0.316424,0.10191 -0.795645,0.22109 -1.064936,0.26483 -0.56266,0.0914 -0.73477,0.255 -0.665058,0.63216 0.115758,0.62626 0.149384,2.33257 0.05916,3.00209 -0.102516,0.76074 -0.33665,1.69691 -0.424395,1.69691 -0.02898,0 -0.196102,-0.48578 -0.37138,-1.0795 z m 5.577275,-33.82433 c -0.03022,-0.15134 -0.168888,-0.51876 -0.308152,-0.816488 -0.6914,-1.47809 -2.206119,-2.94868 -3.275208,-3.17979 -0.224451,-0.0485 -0.310663,-0.0211 -0.486376,0.15459 -0.279909,0.27991 -0.218147,0.44218 0.565044,1.48451 1.054804,1.4038 2.001642,2.179438 3.068326,2.513538 0.487074,0.15255 0.497318,0.14889 0.436366,-0.15636 z M 22.944523,74.776529 c 0.328956,-0.15044 1.853223,-1.29036 3.040208,-2.27363 l 0.584874,-0.4845 -0.361214,-0.15751 c -0.198668,-0.0866 -0.728561,-0.25493 -1.177541,-0.37399 -0.714872,-0.18957 -0.995211,-0.21735 -2.25566,-0.22355 -0.791634,-0.004 -1.725084,0.04 -2.074334,0.0975 -1.434254,0.23613 -2.963333,0.5493 -2.963333,0.60693 0,0.0338 0.08572,0.10231 0.1905,0.15217 0.104775,0.0499 0.6477,0.45797 1.2065,0.90692 2.210546,1.77596 2.979926,2.12929 3.81,1.7497 z M 156.96602,133.23504 c -0.0283,-0.11261 -0.007,-0.42693 0.0479,-0.6985 0.0976,-0.48517 1.98114,-5.61206 2.97986,-8.11084 1.25468,-3.13922 2.33564,-6.25494 3.16071,-9.1103 3.17682,-10.99424 4.18327,-22.735868 2.82987,-33.014281 -0.25019,-1.90007 -1.39876,-8.72878 -1.70178,-10.11767 -0.51271,-2.35014 -1.83142,-6.41229 -2.50096,-7.70399 -0.49399,-0.95304 -0.46661,-1.18707 0.55482,-4.74201 1.1104,-3.86457 1.63938,-5.55981 1.82168,-5.83805 0.18546,-0.28303 0.51798,-0.26585 0.74252,0.0384 0.34204,0.46345 1.72222,4.10981 2.48623,6.56846 0.90058,2.89817 1.35716,4.97766 2.19429,9.99369 0.94238,5.64681 1.14878,7.31264 1.32577,10.70052 0.10917,2.08959 0.0583,6.973913 -0.0926,8.890003 -0.31619,4.01535 -0.6884,7.33287 -1.01641,9.05933 -1.24327,6.543838 -2.5203,11.376308 -4.20107,15.897458 -0.50644,1.3623 -2.97562,7.24452 -4.62862,11.02654 -1.31388,3.00614 -2.97341,6.42172 -3.4658,7.13317 -0.20205,0.29194 -0.46673,0.30581 -0.53643,0.0281 z m -74.730083,-4.9106 c -1.181037,-0.31408 -2.410837,-1.88722 -2.865709,-3.66574 -0.45504,-1.77918 -0.60845,-5.23292 -0.30946,-6.96692 0.44867,-2.60206 1.617362,-6.19601 3.674589,-11.30012 1.05325,-2.61318 1.18714,-2.91694 1.41069,-3.20052 0.13202,-0.16747 0.39347,-0.11591 0.39347,0.0776 0,0.15798 -2.13575,7.35033 -2.849817,9.59705 -1.08207,3.40457 -1.34549,4.83107 -1.27424,6.90034 0.0824,2.39289 0.61964,3.95671 1.618027,4.70981 0.63102,0.47599 1.6329,0.68041 1.96872,0.40171 0.25625,-0.21267 0.36483,-0.60804 0.95178,-3.46563 0.33044,-1.60878 0.65909,-3.12134 0.73034,-3.36123 0.18137,-0.61075 0.58534,-1.09844 1.18352,-1.4288 0.90854,-0.50177 1.61015,-0.46614 2.25274,0.1144 l 0.3372,0.30465 0.90636,-0.43712 c 0.94504,-0.45576 1.48165,-0.55121 1.9971,-0.35524 0.36342,0.13817 0.88241,0.6745 1.03218,1.06667 0.38084,0.99723 -0.30018,3.30536 -1.45118,4.91837 -0.94531,1.32476 -2.94359,2.99112 -5.16661,4.30841 -1.1313,0.67038 -3.44479,1.79025 -3.80245,1.84062 -0.18627,0.0262 -0.51803,0 -0.73725,-0.0583 z m 3.38899,-4.38549 c 0.63574,-0.43666 1.83706,-1.64298 2.21713,-2.22634 0.64989,-0.99749 0.91855,-2.11679 0.63819,-2.65895 -0.13163,-0.25453 -0.58481,-0.51521 -0.8957,-0.51521 -0.67274,0 -1.39983,0.53158 -1.58852,1.16139 -0.0582,0.19414 -0.25695,1.22193 -0.44174,2.28397 -0.18479,1.06203 -0.3518,1.99765 -0.37112,2.07914 -0.0473,0.19949 -0.0167,0.19091 0.44176,-0.124 z m 4.02509,-1.03903 c 0.41259,-0.36796 0.9414,-0.93783 1.17513,-1.2664 0.50863,-0.71504 1.16659,-2.05519 1.22582,-2.49677 0.0367,-0.27386 0.009,-0.3435 -0.19961,-0.50847 -0.19466,-0.15364 -0.31917,-0.18384 -0.63458,-0.15386 -0.82561,0.0785 -1.30394,0.51054 -1.55421,1.40387 -0.074,0.26427 -0.37547,1.2509 -0.66985,2.19252 -0.2944,0.94161 -0.51475,1.73253 -0.48968,1.7576 0.0497,0.0497 0.054,0.0463 1.14698,-0.92849 z m 58.579703,2.84989 c -0.083,-0.0527 -0.0512,-0.34539 0.14564,-1.34122 0.13847,-0.70061 0.28969,-1.37356 0.33603,-1.49545 0.33114,-0.87098 1.20854,-4.56018 1.56576,-6.58364 0.70509,-3.99388 0.74617,-5.84712 0.17221,-7.76859 -0.22243,-0.74465 -1.01219,-1.4691 -1.68923,-1.54955 l -0.25177,-0.0299 -0.002,0.77401 c -0.001,0.63823 -0.0296,0.80502 -0.16139,0.95084 -0.37462,0.41459 -1.17062,0.2559 -1.54621,-0.30824 -0.26728,-0.40149 -0.40051,-1.33867 -0.33979,-2.39028 0.10619,-1.83902 0.6947,-3.05507 1.70651,-3.52625 0.55907,-0.26035 1.00214,-0.25301 1.56175,0.0258 2.32546,1.15883 3.20311,5.29557 2.28753,10.78195 -0.56912,3.41024 -1.51234,7.14911 -2.55237,10.11745 -0.5519,1.57514 -0.9234,2.41481 -1.06703,2.41171 -0.033,-8.5e-4 -0.10769,-0.0316 -0.16606,-0.0687 z m -19.76422,-0.21794 c -0.51275,-0.14885 -0.87257,-0.37615 -1.3119,-0.82878 -0.49428,-0.50925 -0.75776,-1.08749 -1.00279,-2.20072 -0.32486,-1.476 -0.45995,-1.57182 -1.7753,-1.25943 -0.94773,0.22509 -1.49116,0.2286 -1.68817,0.0109 -0.0923,-0.10199 -0.12743,-0.2273 -0.0936,-0.33387 0.0584,-0.18395 0.27499,-0.26036 1.82378,-0.6434 0.48895,-0.12093 0.98929,-0.25944 1.11188,-0.30781 0.3954,-0.15603 0.6395,-0.51269 0.86667,-1.26624 0.38206,-1.26747 0.66356,-1.71386 2.58621,-4.10108 1.51475,-1.88075 1.8699,-2.38351 1.8699,-2.64702 v -0.20594 l -0.27516,0.18109 c -0.8606,0.56638 -1.97707,0.99128 -3.02684,1.15193 -0.40319,0.0617 -0.84749,0.25317 -0.9512,0.40992 -0.0342,0.0517 -0.0628,0.19746 -0.0635,0.32387 -0.002,0.32615 0.2359,0.43314 0.70177,0.31583 0.20288,-0.0511 0.49917,-0.0805 0.65841,-0.0653 0.26454,0.0252 0.29171,0.0536 0.31485,0.32929 0.0347,0.4137 -0.40146,1.05155 -0.95001,1.38918 -0.34964,0.21519 -0.52142,0.26122 -1.06743,0.28605 -0.83381,0.0379 -1.13002,-0.10022 -1.36782,-0.63781 -0.19531,-0.44151 -0.16948,-0.83329 0.11205,-1.70032 0.50723,-1.5621 1.73599,-2.50614 3.82614,-2.93956 0.53696,-0.11136 1.10277,-0.2667 1.25735,-0.34522 0.84548,-0.42947 1.3989,-1.21404 1.64752,-2.33565 0.16203,-0.73099 0.22802,-0.83403 0.53414,-0.83403 0.76704,0 1.04101,1.38791 0.68367,3.46339 -0.37578,2.18266 -0.95501,3.2873 -3.3048,6.30268 -0.61135,0.78453 -1.09159,1.44636 -1.0672,1.47076 0.0649,0.0648 0.93937,-0.4413 1.58826,-0.91924 1.37052,-1.00943 2.30552,-2.24833 4.50794,-5.97317 0.6017,-1.0176 1.03988,-1.65914 1.29186,-1.89142 0.8786,-0.80986 2.07795,-1.0359 2.87658,-0.54215 0.83939,0.51896 1.13142,1.47924 0.9695,3.18807 -0.11383,1.20135 -0.34315,2.20545 -0.8508,3.72532 -0.91317,2.73397 -2.51954,5.24763 -4.67186,7.31054 -1.52783,1.46436 -2.89374,2.123 -4.55875,2.19822 -0.52987,0.0239 -0.93981,-0.003 -1.20135,-0.0789 z m 2.4765,-2.72713 c 0.62504,-0.18561 1.60827,-0.69289 2.32318,-1.19858 1.51881,-1.07434 3.51279,-3.55709 4.23511,-5.27328 0.39999,-0.95032 0.64543,-1.95524 0.69406,-2.8418 0.0588,-1.07137 -0.002,-1.39893 -0.32778,-1.77011 -0.3029,-0.34498 -0.5894,-0.38042 -1.06993,-0.13236 -0.52202,0.26947 -0.89868,0.75006 -1.63144,2.08151 -1.26984,2.30737 -2.07244,3.36661 -3.38168,4.46299 -0.9345,0.78255 -2.02908,1.4827 -3.048,1.94966 -1.06016,0.48585 -1.08771,0.50111 -1.13702,0.62961 -0.0249,0.065 0.0274,0.30951 0.11627,0.54343 0.50921,1.34013 1.81689,1.96775 3.22723,1.54893 z m -68.657069,-0.31151 c -0.294742,-1.54648 -0.572932,-2.98897 -0.618201,-3.20555 l -0.08231,-0.39376 -0.989619,-0.14451 c -3.406901,-0.49747 -3.924273,-0.86005 -4.05412,-2.8411 -0.07543,-1.15075 0.238694,-2.42471 0.798497,-3.23838 0.563953,-0.81972 1.653708,-1.01822 2.756519,-0.50211 1.117435,0.52295 2.198296,1.57424 2.804416,2.72769 0.370227,0.70454 0.64266,1.64256 0.994638,3.42466 0.152473,0.77199 0.301069,1.40361 0.330214,1.40361 0.02914,0 0.750791,-1.09031 1.603658,-2.42292 3.131909,-4.89361 4.42259,-6.53979 5.545224,-7.07254 0.830696,-0.3942 1.460056,-0.31726 2.292046,0.28023 0.805513,0.57848 1.162512,1.49455 0.976292,2.5052 -0.241442,1.31035 -1.215484,2.95903 -2.216685,3.75199 l -0.339183,0.26864 -0.541082,-0.51957 c -1.172151,-1.12556 -1.915947,-1.12233 -2.97626,0.0129 -0.642042,0.68743 -1.98543,2.70249 -4.049846,6.0747 -0.869476,1.42028 -1.60729,2.60938 -1.639586,2.64245 -0.0323,0.0331 -0.299873,-1.20519 -0.594616,-2.75167 z m -27.970319,-2.39262 c -0.02672,-0.0443 -0.761159,-1.37589 -1.632088,-2.95916 -0.87093,-1.58327 -1.598364,-2.89391 -1.61652,-2.91254 -0.01816,-0.0186 -0.671818,0.0864 -1.45258,0.23336 -1.548079,0.29144 -2.635863,0.34395 -3.100787,0.1497 -0.350597,-0.1465 -0.751226,-0.62477 -1.072624,-1.28052 -0.40046,-0.81706 -0.535788,-1.48257 -0.54232,-2.667 -0.0051,-0.93271 0.01727,-1.10846 0.188799,-1.48061 0.410867,-0.89141 0.902427,-1.18075 2.006697,-1.18117 0.865336,0 1.338468,0.12951 2.328333,0.63897 1.411407,0.72644 2.212128,1.63891 3.553565,4.04951 0.441044,0.79257 0.827164,1.41327 0.858045,1.37934 0.03088,-0.0339 0.292355,-1.12851 0.581056,-2.43237 1.850376,-8.35693 2.622065,-10.11767 4.434302,-10.11767 1.153585,0 2.14474,0.72641 2.473768,1.81302 0.185564,0.61282 0.165267,2.0903 -0.04241,3.08686 -0.142232,0.68252 -0.788065,2.29679 -0.918897,2.29679 -0.02154,0 -0.234291,-0.111 -0.472793,-0.24666 -0.601916,-0.34239 -1.323495,-0.53874 -1.711956,-0.46586 -0.396963,0.0745 -0.918867,0.54025 -1.171828,1.04581 -0.454776,0.90891 -0.933157,2.81189 -1.907881,7.58946 -0.796637,3.90468 -0.719639,3.56388 -0.781884,3.46074 z m -18.228327,-2.20122 c -1.308479,-2.19278 -2.397663,-5.33691 -3.122241,-9.01294 -0.433392,-2.19874 -0.517488,-3.16283 -0.516973,-5.92667 5.93e-4,-2.95219 0.133479,-4.150138 0.718698,-6.476998 0.408176,-1.62291 0.787499,-2.65021 1.563146,-4.23333 0.585106,-1.19422 1.515991,-2.75167 1.644673,-2.75167 0.129007,0 2.379935,3.99878 2.379935,4.22796 0,0.0571 -0.244435,0.4722 -0.54319,0.92243 -3.174904,4.78474 -4.26602,11.160108 -3.088882,18.048278 0.198074,1.15905 0.799208,3.63786 1.210853,4.99302 0.162283,0.53425 0.282841,0.98358 0.267907,0.99852 -0.01494,0.0149 -0.246202,-0.33994 -0.513926,-0.7886 z m 142.771705,-1.88355 c -0.25738,-0.26983 -0.54911,-0.64967 -0.64828,-0.84408 -0.48749,-0.95554 -0.56227,-2.35522 -0.22723,-4.25331 0.11095,-0.62865 0.52998,-3.0099 0.93115,-5.29167 1.20419,-6.849068 1.96998,-11.019188 2.57318,-14.012328 l 0.5716,-2.83633 0.32185,0.0103 c 0.42496,0.0136 0.72549,0.24457 0.98392,0.75606 0.18954,0.37515 0.21086,0.51626 0.20395,1.35026 -0.007,0.79616 -0.14425,1.68711 -0.94845,6.13834 -1.70769,9.451978 -2.57431,14.708078 -3.07461,18.647828 -0.0576,0.45402 -0.13054,0.8255 -0.16197,0.8255 -0.0314,0 -0.26773,-0.22078 -0.52511,-0.49061 z m -93.274004,-7.84605 c -0.659517,-0.31455 -1.450941,-1.1563 -1.831954,-1.94846 -0.494221,-1.02752 -0.66129,-2.00168 -0.661001,-3.85421 2.54e-4,-1.66808 0.100704,-2.492448 0.505487,-4.148668 0.914679,-3.74253 4.030312,-10.859233 6.821897,-15.582513 1.14646,-1.93978 1.456153,-2.33619 1.751824,-2.24234 0.0975,0.0309 0.177279,0.0915 0.177279,0.13462 0,0.23825 -1.067095,2.7214 -1.793844,4.17431 -0.462668,0.92495 -1.09128,2.2394 -1.396916,2.921 -1.257871,2.805143 -2.898192,7.282953 -3.231058,8.820253 -0.373339,1.72423 -0.430489,3.828548 -0.127356,4.689418 0.266303,0.75629 0.868359,1.33547 1.670959,1.60746 0.227398,0.0771 0.426147,0.12741 0.441663,0.1119 0.01552,-0.0155 0.06567,-0.35788 0.111453,-0.76079 0.04578,-0.40292 0.142955,-0.84805 0.215937,-0.98918 0.397591,-0.76886 1.686984,-0.65315 2.173014,0.19501 0.17687,0.30864 0.200018,0.45455 0.19655,1.23885 -0.0081,1.83225 -0.66091,3.62548 -1.739616,4.77861 -0.667683,0.71376 -1.255584,0.99806 -2.151119,1.04024 -0.591529,0.0279 -0.735082,0.004 -1.133199,-0.18551 z m 45.667864,-3.73385 c -0.37253,-0.21124 -1.26788,-0.80589 -1.98967,-1.32147 -1.11771,-0.79839 -2.16723,-1.50529 -4.14694,-2.79315 -0.64457,-0.419318 -0.70767,-0.411038 -1.25391,0.16449 -0.5726,0.60331 -0.94481,0.80509 -1.81762,0.98538 -1.71775,0.35481 -3.323243,0.0352 -5.738213,-1.14228 -1.26722,-0.617878 -1.6798,-0.922798 -1.94532,-1.437688 -0.22935,-0.44476 -0.37261,-1.24747 -0.30414,-1.70409 0.12098,-0.80668 0.82947,-1.49691 1.72797,-1.68345 0.64739,-0.13439 3.07208,-0.0526 3.91084,0.13193 2.641863,0.58122 5.253423,2.04201 8.250683,4.615088 1.52652,1.31049 4.10074,3.73139 4.28538,4.03015 0.39598,0.64069 -0.009,0.70491 -0.97906,0.15509 z M 99.994647,99.880722 c 1.576413,-0.73407 1.120103,-2.58603 -0.63846,-2.59127 -0.25612,-8.5e-4 -0.61807,0.0399 -0.80434,0.0904 -0.73275,0.19855 -1.27587,1.06847 -1.06534,1.70638 0.28685,0.86915 1.51343,1.257698 2.50814,0.79451 z m 35.387203,1.496448 c -3.67569,-0.24392 -7.81457,-1.842008 -9.96852,-3.849018 l -0.48584,-0.4527 0.89571,-1.43933 c 0.80727,-1.2972 1.77015,-2.71602 1.89601,-2.79382 0.0266,-0.0164 0.53957,0.21357 1.14004,0.51107 1.35161,0.66964 3.30839,1.321 4.84704,1.61345 1.56954,0.29831 4.15867,0.37342 5.89873,0.17111 3.54377,-0.41201 7.38344,-1.67452 10.47729,-3.44499 0.41858,-0.23953 0.77581,-0.42077 0.79383,-0.40275 0.0373,0.0373 0.25781,2.96052 0.34491,4.57221 l 0.058,1.07294 -0.62493,0.40094 c -4.42804,2.840998 -10.22802,4.375618 -15.27225,4.040888 z m -11.80377,-5.787378 c -1.67677,-2.22525 -2.94531,-5.23897 -3.59772,-8.547343 -0.20098,-1.01912 -0.47351,-2.94203 -0.47351,-3.34091 0,-0.19595 0,-0.19601 1.91305,-0.86791 0.0554,-0.0195 0.15275,0.2499 0.24203,0.66996 0.23021,1.08316 0.93492,3.14912 1.3979,4.09813 0.56759,1.163433 1.31835,2.261813 2.13747,3.127153 l 0.68391,0.72251 -0.4704,0.9917 c -0.47651,1.00457 -0.97935,2.45268 -1.16021,3.3412 -0.0545,0.26776 -0.11259,0.48684 -0.1291,0.48684 -0.0165,0 -0.26106,-0.3066 -0.54342,-0.68133 z m 17.57419,-1.93574 c -0.20201,-2.52933 -0.24296,-3.95006 -0.19729,-6.845863 0.0624,-3.95709 -0.0148,-4.96387 -0.63119,-8.23241 -0.33127,-1.75659 -0.31716,-2.8999 0.0502,-4.064 0.22669,-0.71842 1.88538,-4.23333 1.99771,-4.23333 0.0326,0 0.10054,0.10477 0.15093,0.23283 1.49591,3.8012 3.05808,7.95554 3.57375,9.50384 0.55372,1.66248 1.43516,4.8676 1.43516,5.21851 0,0.0665 -0.0877,0.0778 -0.27516,0.0353 -0.45105,-0.10215 -0.80186,-0.32213 -1.42349,-0.8926 -0.52488,-0.48168 -0.88051,-0.70964 -0.96902,-0.62113 -0.0166,0.0166 -0.0791,0.44874 -0.13889,0.96023 -0.19191,1.64275 -0.1025,6.595983 0.14939,8.275953 0.0455,0.30343 0.0329,0.32485 -0.26434,0.44904 -0.349,0.14582 -2.30415,0.65751 -2.97295,0.77806 l -0.43345,0.0781 z m 14.72937,-1.00515 c -0.0252,-0.17313 -0.0709,-0.79103 -0.10146,-1.37312 -0.0306,-0.58208 -0.12289,-1.58942 -0.20512,-2.23853 l -0.14952,-1.180203 0.67755,-0.63738 c 0.37264,-0.35056 0.73961,-0.63862 0.81548,-0.64013 0.17188,-0.003 1.37076,-0.71837 1.41329,-0.8428 0.0172,-0.0502 0.002,-0.22464 -0.0344,-0.38762 -0.0626,-0.2828 -0.0341,-0.33309 0.62224,-1.10067 1.34501,-1.57284 1.98229,-2.53844 2.41378,-3.65732 0.42763,-1.10889 0.53994,-1.70256 0.53341,-2.81968 -0.009,-1.49673 -0.38904,-2.67702 -1.25485,-3.89467 -1.27601,-1.79454 -3.24928,-2.87312 -6.07066,-3.3182 -0.82379,-0.12995 -1.57181,-0.15166 -5.40122,-0.15672 l -4.445,-0.006 -0.83004,-0.22438 c -2.45862,-0.66462 -4.13064,-2.23706 -4.96814,-4.6723 -0.28681,-0.83397 -0.49686,-1.03823 -0.91037,-0.88526 -0.23305,0.0862 -0.38152,0.37943 -0.60275,1.19033 -0.38503,1.41141 -1.10009,2.57941 -2.41465,3.94424 -0.7533,0.7821 -0.93467,0.92239 -1.61499,1.24923 -0.996,0.47849 -1.86603,0.66854 -3.05239,0.66679 -1.64943,-0.002 -2.6155,-0.3937 -3.61546,-1.4643 -0.51528,-0.55167 -0.69081,-0.82989 -1.25293,-1.98581 l -0.65371,-1.34427 -0.4916,0.79393 c -1.53901,2.4855 -2.73965,5.79441 -3.02319,8.33179 l -0.0972,0.87005 -0.86647,0.29852 -0.86647,0.29852 0.0331,-0.26914 c 0.0182,-0.14803 0.0761,-0.70729 0.12853,-1.2428 0.10017,-1.02226 0.53552,-3.81246 0.67343,-4.31606 0.0443,-0.16191 0.0569,-0.49637 0.0279,-0.74323 -0.0479,-0.40794 -0.0662,-0.43899 -0.20026,-0.34062 -0.0811,0.0595 -0.4611,0.35138 -0.84438,0.64855 -1.88931,1.46489 -3.6536,2.17395 -5.82305,2.34026 -2.52526,0.19359 -4.79689,-0.96141 -5.76819,-2.93284 -0.37314,-0.75736 -0.73624,-2.13872 -0.82816,-3.15071 -0.0578,-0.63613 -0.17446,-0.81869 -0.52325,-0.81869 -0.28857,0 -0.52442,0.24369 -2.2124,2.286 -1.48778,1.80009 -3.13413,3.46587 -4.122153,4.17081 -2.00905,1.43341 -4.39427,2.20458 -6.84269,2.21233 -2.23056,0.007 -3.84067,-0.66392 -5.29653,-2.2072 -0.89072,-0.94421 -1.89806,-2.63158 -2.22177,-3.72164 -0.16961,-0.57115 -0.3603,-0.92971 -0.52883,-0.99438 -0.20224,-0.0776 -0.20771,-0.0729 -0.20971,0.18024 -0.003,0.34657 -0.29277,1.59537 -0.54745,2.35706 -0.28571,0.85448 -0.87711,2.10719 -1.36282,2.88674 -0.83394,1.33842 -2.126807,2.09438 -3.760559,2.19884 -2.01548,0.12887 -3.813442,-0.87761 -4.638814,-2.59675 -0.345745,-0.72014 -0.949186,-2.7579 -0.949186,-3.2053 0,-0.44028 -0.44579,-0.65454 -0.818577,-0.39343 -0.09841,0.0689 -0.610317,0.64995 -1.137579,1.29116 -2.684151,3.26427 -4.030027,4.56502 -5.81756,5.62252 -1.918825,1.13518 -3.712801,1.62114 -5.984616,1.62114 -2.031605,0 -3.328014,-0.32921 -4.640872,-1.17849 -1.214504,-0.78566 -2.051536,-1.89148 -2.768559,-3.6576 -0.958355,-2.36055 -1.335085,-4.26385 -1.729552,-8.73798 -0.454944,-5.16008 -1.487212,-19.0054 -1.486352,-19.93574 8.5e-5,-0.0931 0.335506,-0.62944 0.745375,-1.1918 0.409871,-0.56235 0.978612,-1.41217 1.26387,-1.88849 l 0.518651,-0.86603 0.04538,0.36449 c 0.02496,0.20048 0.06702,0.91695 0.09348,1.59216 0.07999,2.04149 0.207272,3.85762 0.379771,5.41867 0.176004,1.59277 0.302203,3.40728 0.382757,5.50333 0.0755,1.96443 0.197528,3.61185 0.379436,5.12234 0.08973,0.74506 0.222168,2.28006 0.294311,3.4111 0.23691,3.71424 0.546636,5.19822 1.454766,6.97018 0.688784,1.34398 1.706929,2.24109 3.028903,2.66884 0.923671,0.29889 2.473881,0.36544 3.839054,0.16482 3.665118,-0.53859 6.438273,-2.28542 10.31422,-6.49699 2.297354,-2.49629 2.331133,-2.52695 2.783584,-2.52695 0.607524,0 0.752651,0.20145 0.692519,0.96131 -0.02633,0.33276 -0.07286,0.93232 -0.103385,1.33236 -0.09947,1.30348 0.236894,2.22492 1.143215,3.13171 0.84534,0.84576 1.99386,1.34477 3.100142,1.34694 1.33281,0.003 2.813257,-0.75434 3.385687,-1.73112 0.11626,-0.19839 0.29215,-0.68006 0.39085,-1.07037 0.3273,-1.29431 0.18308,-2.28636 -0.94493,-6.5 -0.31948,-1.19341 -0.892307,-3.19853 -1.272947,-4.45583 -1.16496,-3.84792 -1.18107,-3.91076 -1.23641,-4.82228 -0.0757,-1.24728 0.0886,-2.34264 0.6136,-4.09074 0.18692,-0.62236 0.24946,-0.72868 0.56158,-0.95478 0.29232,-0.21176 0.37014,-0.23554 0.46388,-0.1418 0.18408,0.18408 1.331187,2.73024 1.744107,3.87126 0.86358,2.38635 1.71801,5.46399 2.60141,9.37028 0.97388,4.30636 1.72181,6.4325 2.73867,7.78521 0.68084,0.90573 1.55175,1.49018 2.71979,1.82521 0.5789,0.16605 0.86803,0.19382 1.98966,0.19105 1.45385,-0.004 2.30081,-0.13375 3.61982,-0.55626 2.8248,-0.90487 4.925573,-2.47313 8.473603,-6.3257 0.98664,-1.07133 1.92178,-2.0269 2.07806,-2.12349 0.36122,-0.22325 0.76433,-0.22582 0.98385,-0.006 0.20981,0.2098 0.22838,0.91554 0.0423,1.60866 -0.54846,2.04337 0.63253,4.21884 2.70933,4.99077 1.28582,0.47794 3.34319,0.58794 4.93045,0.26363 2.98609,-0.61013 5.27189,-2.21106 8.04621,-5.6354 1.30463,-1.6103 1.79822,-2.13213 2.88729,-3.05245 1.30403,-1.10198 1.42131,-1.511 0.6533,-2.27853 -0.3563,-0.35609 -1.43846,-1.1763 -3.68747,-2.79488 -2.10105,-1.51209 -4.87122,-3.84207 -5.46034,-4.59268 -0.83421,-1.06287 -1.1984,-2.21749 -1.11577,-3.53746 0.0975,-1.55701 0.79623,-3.49501 1.58182,-4.3871 0.92953,-1.05553 3.16724,-2.18024 5.24713,-2.63731 1.5096,-0.33174 10.04283,-0.43102 15.78871,-0.18369 1.76953,0.0762 4.53178,0.17601 6.13833,0.22187 2.81783,0.0804 3.82737,0.14329 8.128,0.50608 1.09432,0.0923 2.28523,0.19193 2.64648,0.22137 1.27167,0.10363 1.46539,0.48344 1.00386,1.96817 -0.14007,0.45061 -0.33409,1.19558 -0.43115,1.65551 -0.28627,1.35648 -0.79271,2.1736 -1.73468,2.79884 -0.2557,0.16973 -1.35108,0.71102 -2.4342,1.20289 -6.01107,2.72975 -11.98357,5.83992 -17.27308,8.99494 -2.63386,1.57101 -2.63758,1.57588 -2.61776,3.42213 0.01,0.89044 -0.0175,1.22656 -0.11397,1.41302 -0.24822,0.48001 -0.7409,0.64594 -1.12308,0.37825 -0.10263,-0.0719 -0.34118,-0.39538 -0.53011,-0.71887 -0.54524,-0.93358 -0.83373,-0.9056 -1.70961,0.1658 -0.2884,0.35279 -0.9871,1.11769 -1.55264,1.69977 -0.59958,0.61711 -1.05189,1.1551 -1.08492,1.29045 -0.0748,0.30655 0.10454,0.71985 0.50463,1.1627 1.85437,2.05256 5.17212,1.52686 7.8264,-1.24011 0.44083,-0.45954 1.05272,-1.21574 1.35976,-1.68045 0.66724,-1.00987 1.4745,-2.44148 1.63797,-2.90478 0.29533,-0.83707 0.53174,-1.11514 0.94805,-1.11514 0.66389,0 0.84662,0.36223 0.70314,1.39384 -0.10758,0.77345 -0.005,1.77701 0.26155,2.55082 0.4729,1.37451 1.52776,2.27676 3.17236,2.71339 0.54348,0.1443 0.90537,0.15511 4.36034,0.13038 5.82394,-0.0417 7.65516,0.17402 9.58519,1.1292 2.47546,1.2251 4.37586,3.40515 5.17422,5.93563 0.45275,1.43504 0.66385,4.1208 0.48501,6.17041 -0.48907,5.60471 -2.7607,10.47221 -7.04594,15.097623 l -0.47985,0.51794 -0.0458,-0.31478 z M 133.18023,52.841249 c 4.62468,-3.23471 8.13828,-5.37979 11.76895,-7.18501 1.79932,-0.89466 2.667,-1.39652 2.667,-1.54259 0,-0.14662 -3.74567,-0.52994 -6.64633,-0.68018 -2.73638,-0.14172 -9.01196,-0.12308 -12.02267,0.0357 -1.397,0.0737 -3.4925,0.17786 -4.65666,0.2315 -1.41107,0.065 -2.22957,0.13839 -2.45534,0.22014 -0.30072,0.10888 -0.55328,0.17691 -1.20085,0.3235 -0.23055,0.0522 -0.31515,0.29801 -0.19305,0.56089 0.10663,0.22955 0.14806,0.26114 2.70624,2.06364 3.2523,2.29158 5.39422,3.93687 7.28133,5.59308 0.53552,0.46999 1.04987,0.89983 1.143,0.9552 0.31408,0.18671 0.73206,0.0371 1.60838,-0.57589 z M 4.8077427,92.089582 c -1.509451,-0.49415 -2.39168,-1.87622 -3.111482,-4.874323 -0.347075,-1.44563 -0.496812,-3.0457 -0.440067,-4.70248 0.07703,-2.24901 0.263236,-3.24688 1.635218,-8.763 0.817714,-3.28766 1.069047,-3.9496 1.462158,-3.85094 0.119868,0.0301 0.23201,0.0688 0.249204,0.086 0.0172,0.0172 -0.143499,0.97613 -0.357098,2.13096 -0.640041,3.4604 -0.787416,4.9801 -0.872798,9.00002 -0.05921,2.78761 -0.0042,3.37602 0.394084,4.21827 0.362553,0.76662 1.186688,1.49778 1.880711,1.66853 0.201184,0.0495 0.236276,0.027 0.287546,-0.18471 0.09654,-0.39857 0.807945,-1.97675 0.891064,-1.97675 0.07973,0 0.555893,0.28087 1.110177,0.65484 0.202227,0.13644 0.401039,0.38555 0.550333,0.68955 0.217237,0.44235 0.233309,0.54764 0.22774,1.49194 -0.01277,2.165673 -0.655669,3.564383 -1.92571,4.189623 -0.630839,0.31057 -1.435921,0.40099 -1.98108,0.22251 z m 81.8666743,-2.169 c -0.46383,-0.0976 -1.66823,-0.61411 -2.43123,-1.04273 -1.86759,-1.049113 -3.454427,-2.663073 -3.985957,-4.054073 l -0.22221,-0.5815 0.19535,-0.48375 c 0.37425,-0.92678 3.477617,-4.85908 5.248087,-6.64989 1.54644,-1.56421 1.46832,-1.55228 2.31307,-0.35319 0.75723,1.07483 2.61773,2.94199 3.69066,3.70385 0.44238,0.31412 1.31413,0.82807 1.93723,1.14211 1.30587,0.65815 1.40455,0.77102 1.10584,1.26498 -1.16432,1.92535 -5.25736,6.470103 -6.20327,6.887853 -0.4734,0.20908 -1.12945,0.27532 -1.64757,0.16634 z M 40.965332,70.239429 c -1.815366,-0.61248 -3.304875,-1.52336 -4.53766,-2.77492 -0.586801,-0.59573 -0.811421,-0.89793 -1.080243,-1.45331 l -0.339394,-0.70119 0.251286,-0.60938 c 0.396278,-0.96098 3.247383,-5.20367 4.38786,-6.52952 0.876775,-1.01928 1.552583,-1.69333 1.697742,-1.69333 0.07417,0 0.326871,0.21806 0.561559,0.48458 2.33333,2.64978 4.453671,4.21537 6.813135,5.03061 0.544841,0.18826 0.767903,0.36958 0.767903,0.62422 0,0.72314 -4.043783,6.18063 -5.508708,7.43455 -0.680535,0.58251 -1.662054,0.64365 -3.01348,0.18769 z M 2.9208577,68.716609 c 0,-0.13511 7.6038413,-5.18973 12.7423323,-8.47041 7.547089,-4.81846 10.214841,-6.66312 14.012332,-9.68906 5.530234,-4.40664 11.454397,-10.28883 12.486166,-12.39768 0.561539,-1.14775 0.313409,-1.95134 -0.830893,-2.69094 -1.069422,-0.6912 -1.090681,-0.69481 -4.458607,-0.75644 -3.265903,-0.0598 -3.43276,-0.0817 -4.454651,-0.58473 -1.042469,-0.51321 -1.875159,-1.63467 -2.245414,-3.02413 -0.128918,-0.48378 -0.187737,-1.02461 -0.2199,-2.02193 -0.0497,-1.54113 0.0569,-2.7007 0.348766,-3.79367 l 0.194668,-0.729 -0.2619,0.16481 c -0.404199,0.25436 -4.696571,3.2555 -5.48632,3.83592 -0.386236,0.28386 -1.086228,0.89996 -1.555537,1.36911 -0.717936,0.71768 -0.912674,0.97285 -1.227666,1.60861 -0.368534,0.74382 -0.374378,0.76903 -0.374378,1.6153 0,0.80763 0.01538,0.88453 0.254,1.26981 0.356412,0.57548 0.845135,0.82778 1.524,0.78677 0.439839,-0.0266 0.579549,-0.0812 1.041254,-0.40715 0.61073,-0.43115 0.690921,-0.39991 0.693116,0.26999 9.99e-4,0.30461 -0.04978,0.45637 -0.220663,0.65945 -0.30928,0.36756 -1.591572,1.10273 -3.275163,1.87775 -1.720057,0.7918 -2.171583,1.04071 -3.101279,1.70967 -1.469968,1.0577 -3.378816,3.1164 -3.88814,4.19336 -0.342375,0.72396 -0.475017,1.53743 -0.355858,2.18243 0.143643,0.77753 0.450097,1.19228 1.225736,1.6589 l 0.665852,0.40057 1.09426,-1.03557 c 3.270293,-3.09489 3.937199,-3.66663 4.893219,-4.19497 1.092878,-0.60398 2.289421,-0.78274 2.957608,-0.44185 0.448872,0.22899 0.916204,0.80145 1.065965,1.30575 0.0688,0.23168 0.125093,0.4673 0.125093,0.52359 0,0.0569 0.310115,0.18394 0.6985,0.2861 1.594213,0.41935 2.047086,0.67431 2.413613,1.35881 0.180021,0.3362 0.200182,0.46563 0.171438,1.10067 -0.02803,0.61935 -0.07223,0.79392 -0.317089,1.25239 -0.851516,1.59438 -3.341542,2.84438 -6.434185,3.22998 -3.694198,0.4606 -6.826617,0.17195 -9.297784,-0.8568 -1.159646,-0.48277 -2.041136,-1.55624 -2.177799,-2.65212 -0.0992,-0.79544 0.410638,-2.6943 1.083227,-4.03445 1.263607,-2.51776 3.269088,-4.44516 6.885599,-6.61753 0.724744,-0.43534 0.765278,-0.49766 0.550093,-0.84584 -0.286896,-0.46421 -0.46018,-1.28746 -0.394042,-1.87205 0.14049,-1.24177 0.895359,-3.00432 1.742419,-4.0684 1.059345,-1.33075 2.182989,-2.15308 7.963813,-5.82824 l 1.82947,-1.16309 0.450542,-0.73909 c 0.549741,-0.90183 1.753232,-2.12806 2.529694,-2.5775 1.00387,-0.58107 1.969165,-0.6276 2.963473,-0.14286 0.703611,0.34303 1.93698,1.55938 2.719356,2.68184 1.991512,2.85717 3.248273,5.98691 3.781484,9.41709 0.228762,1.47164 0.209643,5.04047 -0.03538,6.60506 -0.406019,2.59261 -0.788058,3.92242 -1.592891,5.54461 -0.95261,1.92003 -2.212571,3.48108 -5.331216,6.60519 -2.782949,2.78782 -5.730544,5.3871 -9.228666,8.13812 -3.219011,2.53151 -3.828274,2.87301 -7.450665,4.1762 -0.745067,0.26805 -2.440517,0.93587 -3.767667,1.48405 -4.686707,1.93584 -9.8564543,3.93526 -10.8739393,4.20553 -0.527281,0.14006 -2.249393,0.23045 -2.249393,0.11807 z M 23.053656,49.374279 c 2.707783,-0.59303 3.560191,-0.84714 3.86533,-1.15227 0.32072,-0.32072 0.555203,-0.78446 0.555203,-1.09804 0,-0.13979 -0.09916,-0.32571 -0.258949,-0.4855 -0.257487,-0.25748 -0.263102,-0.2587 -0.994833,-0.21613 -0.404736,0.0236 -0.869234,0.0999 -1.032218,0.16975 -0.214168,0.0917 -3.807583,2.51783 -4.049692,2.73415 -0.06688,0.0598 0.172492,0.37821 0.284298,0.37821 0.06782,0 0.80171,-0.14858 1.630861,-0.33017 z m -4.300133,-1.44999 c 1.436103,-0.14977 2.920888,-0.63545 4.166287,-1.3628 l 0.571196,-0.3336 0.213591,-0.70025 c 0.117476,-0.38515 0.213592,-0.72639 0.213592,-0.75833 0,-0.0847 -1.097386,-0.62185 -1.407695,-0.68906 -0.593719,-0.12858 -1.959443,0.53506 -3.079637,1.49648 -0.611053,0.52445 -1.964115,2.00287 -1.968527,2.15092 -0.0019,0.0648 0.340896,0.28129 0.444527,0.28075 0.02328,-9e-5 0.404283,-0.038 0.846666,-0.0841 z m 17.652999,-19.30559 c 1.276294,-0.10262 1.6968,-0.19618 1.772891,-0.39447 0.03173,-0.0827 -0.05149,-0.35796 -0.198535,-0.65665 -0.839262,-1.70478 -3.099757,-2.72394 -4.537689,-2.04584 -0.596773,0.28142 -0.820276,0.55259 -0.868419,1.05363 -0.04958,0.51594 0.159966,1.26946 0.448313,1.61214 0.316906,0.37662 1.140679,0.61559 1.901772,0.55168 0.20955,-0.0176 0.8763,-0.0718 1.481667,-0.12049 z m 78.662298,36.64325 c -0.1652,-1.46571 -0.15514,-2.65316 0.035,-4.1275 0.1433,-1.11139 0.0594,-2.29976 -0.24601,-3.48426 -0.33575,-1.30217 -0.48616,-2.15943 -0.64393,-3.67008 -0.15488,-1.48301 -0.22862,-1.94822 -0.51356,-3.2402 -0.31889,-1.44586 -0.58515,-3.11358 -0.92231,-5.7768 -0.39872,-3.14938 -0.53312,-4.01837 -1.18508,-7.66233 -0.84117,-4.70143 -1.09864,-6.26074 -1.6077,-9.73666 -0.5188,-3.54249 -0.82434,-5.36134 -1.26585,-7.53534 -0.16078,-0.79163 -0.41154,-2.39183 -0.55725,-3.556 -0.40814,-3.26102 -0.79862,-4.96197 -1.46338,-6.37455 -0.2416,-0.5133997 -0.2673,-0.6455797 -0.2668,-1.3724497 8.5e-4,-0.70743 0.0314,-0.87573 0.25669,-1.397 0.14087,-0.32596 0.53651,-1.04986 0.87921,-1.60866 0.3427,-0.5588 0.7022,-1.15856 0.7989,-1.33281 0.0967,-0.17424 0.19486,-0.31504 0.21814,-0.3129 0.0455,0.004 1.99857,2.76405 3.286,4.64352 0.71972,1.05071 1.78792,2.7920797 2.45326,3.9993197 0.38211,0.69334 1.08269,2.26993 1.36856,3.07986 l 0.24717,0.70031 -0.36811,0.19529 -0.36812,0.19528 -0.73779,-0.67327 c -0.40577,-0.3703 -0.93682,-0.85223 -1.18009,-1.07097 l -0.44232,-0.39769 -0.28778,0.24105 -0.28778,0.24105 0.0148,0.75593 c 0.0177,0.90376 0.0944,1.3564 0.57811,3.40969 0.20293,0.86149 0.50364,2.44821 0.66825,3.52607 0.16461,1.07785 0.43163,2.56375 0.59338,3.302 0.41233,1.88188 0.51536,2.48324 0.85371,4.98293 0.35938,2.65502 0.48597,3.48241 0.80309,5.24933 0.13372,0.74507 0.51581,3.06917 0.84909,5.16467 0.33329,2.0955 0.77475,4.7244 0.98103,5.842 0.49937,2.70556 0.62442,3.74928 0.6847,5.715 0.0806,2.62786 -0.16554,5.09738 -0.78892,7.91534 -0.5777,2.61151 -1.0438,3.87016 -1.85324,5.00449 -0.21279,0.29819 -0.39613,0.54217 -0.40742,0.54217 -0.0113,0 -0.0903,-0.61912 -0.17561,-1.37583 z m -24.731103,-0.0659 c -0.10925,-0.17678 0.58556,-0.65877 2.49913,-1.73363 1.66337,-0.93433 2.23123,-1.30092 2.81517,-1.81737 0.52933,-0.46816 0.54065,-0.71757 0.0516,-1.13619 -0.64359,-0.55088 -1.22537,-0.6527 -2.96784,-0.5194 l -0.90543,0.0693 -0.0419,-0.20299 c -0.17086,-0.82688 -0.0965,-1.27876 0.36098,-2.1927 0.41907,-0.83728 0.82591,-1.43414 1.89177,-2.77533 2.03987,-2.56682 4.11718,-4.26612 8.925813,-7.30162 2.12918,-1.34408 3.89218,-2.50809 6.84556,-4.51975 1.36456,-0.92946 1.7382,-1.11827 1.73369,-0.87609 -0.004,0.22915 -1.69635,2.35765 -2.57845,3.24347 -1.56065,1.56722 -2.86483,2.54371 -6.77524,5.07289 -3.618583,2.34043 -6.021333,4.02894 -7.003983,4.92197 -0.47733,0.43381 -0.87746,0.81876 -0.88918,0.85545 -0.0117,0.0367 0.27832,0.0737 0.64452,0.0822 1.02389,0.0239 2.20057,0.4618 3.07432,1.14416 0.73932,0.57737 0.99065,1.79833 0.57063,2.77218 -0.70883,1.6435 -3.17834,3.89751 -4.93069,4.50043 -1.00346,0.34525 -3.19391,0.61771 -3.32042,0.41301 z m 66.972793,-2.29365 c -1.02446,-1.10805 -2.05707,-2.22929 -2.29467,-2.49165 l -0.432,-0.47702 -1.41072,0.64394 c -1.34417,0.61357 -2.18401,0.89141 -2.70281,0.89416 -0.6385,0.003 -1.6075,-0.86172 -2.16456,-1.93247 -0.64161,-1.23325 -0.9056,-2.53565 -0.68065,-3.35795 0.12419,-0.45394 0.76842,-1.07461 1.30529,-1.25754 0.57903,-0.19729 1.94543,-0.18675 2.75741,0.0213 1.51812,0.38894 2.25374,0.88715 4.10292,2.77879 l 1.44355,1.47669 -0.004,-5.15027 c -0.004,-4.50922 0.0137,-5.24235 0.13953,-5.89005 0.34875,-1.79489 0.98851,-2.46765 2.33342,-2.45371 0.53254,0.006 0.72325,0.0494 1.17025,0.26949 1.10469,0.54384 1.60782,1.65932 1.70315,3.77601 0.0457,1.01578 -0.0411,1.83719 -0.26924,2.54621 -0.0218,0.0677 -0.2024,0.0472 -0.60881,-0.0689 -0.71617,-0.2046 -1.54451,-0.17052 -1.87919,0.0773 -0.28955,0.21442 -0.57874,0.64384 -0.69253,1.02836 -0.25289,0.85453 -0.25,4.0043 0.009,9.52066 0.0521,1.10974 0.0819,2.0275 0.0662,2.03948 -0.0156,0.012 -0.86661,-0.88482 -1.89107,-1.99286 z m -89.450325,0.63337 c -1.258865,-0.23757 -3.403129,-1.40944 -4.65119,-2.54195 -1.027915,-0.93274 -1.94021,-2.26324 -2.087014,-3.04373 -0.10172,-0.54079 0.569442,-1.54498 3.27586,-4.90134 1.318875,-1.6356 3.246036,-3.59834 3.53312,-3.59834 0.227488,0 0.350617,0.1278 0.985286,1.02263 0.27815,0.39217 1.04015,1.2487 1.693333,1.90339 1.337278,1.34037 2.454447,2.14791 4.090523,2.95682 0.888596,0.43934 0.949415,0.4854 0.949415,0.71902 0,0.60694 -2.354999,3.55403 -4.789238,5.99333 -0.745279,0.74683 -1.246098,1.1784 -1.495501,1.28873 -0.387543,0.17143 -1.134029,0.27137 -1.504594,0.20144 z M 4.9941717,62.086919 c 0.02039,-0.12806 0.06034,-0.45239 0.08878,-0.72074 0.07127,-0.67268 0.531882,-1.5678 1.038109,-2.0174 0.701048,-0.62262 13.6868023,-6.92492 13.8769203,-6.7348 0.105908,0.10591 0.176013,0.7998 0.114524,1.13356 -0.08213,0.4458 -0.425984,0.95402 -0.839226,1.2404 -0.172322,0.11942 -2.102836,1.09027 -4.290032,2.15745 -4.752301,2.31875 -9.4387423,4.75414 -9.8144853,5.10027 -0.147218,0.13561 -0.212073,0.0767 -0.174586,-0.15874 z M 142.3392,57.268549 c -0.0831,-0.0831 -0.0687,-0.66875 0.0317,-1.28711 0.10668,-0.65743 0.40109,-1.25851 0.86059,-1.75701 0.50721,-0.55026 10.45751,-6.74065 12.83274,-7.98365 0.17738,-0.0928 0.2031,-0.0769 0.3175,0.19693 0.16854,0.40337 0.15376,1.0351 -0.0339,1.44818 -0.0851,0.18726 -0.34627,0.51111 -0.58045,0.71967 -0.23418,0.20855 -1.75409,1.19834 -3.37759,2.19952 -4.40987,2.7195 -6.94474,4.37139 -9.84257,6.41408 -0.083,0.0585 -0.17662,0.0807 -0.20798,0.0494 z m -86.56995,-5.44732 c -0.567869,-0.25772 -1.327144,-1.07493 -1.667144,-1.79436 -0.89112,-1.88558 -0.822367,-5.03487 0.182491,-8.35916 1.048962,-3.47019 3.570063,-9.11362 5.695218,-12.74862 0.992806,-1.69816 1.3161,-2.11909 1.556664,-2.02678 0.07867,0.0302 0.14304,0.10163 0.14304,0.15875 0,0.21664 -0.852912,2.26357 -1.388709,3.33281 -1.317755,2.62972 -2.539035,5.56677 -3.551463,8.54088 -0.816079,2.39731 -0.942849,3.05011 -0.943569,4.85883 -5.93e-4,1.48709 -5.08e-4,1.48762 0.253408,1.98135 0.300652,0.58456 0.714664,0.9431 1.329687,1.15152 l 0.448313,0.15193 0.09338,-0.69628 c 0.144498,-1.07741 0.351063,-1.32435 1.107844,-1.32435 0.374087,0 0.490127,0.0406 0.737992,0.25823 0.416821,0.36598 0.502623,0.70208 0.450377,1.76421 -0.111979,2.27649 -1.187422,4.20419 -2.666475,4.77958 -0.495931,0.19293 -1.32224,0.17969 -1.781056,-0.0285 z m -19.164937,-0.87976 c 0.295957,-0.51698 1.234153,-1.33033 2.607809,-2.26077 3.095155,-2.09649 5.20601,-4.13356 7.287481,-7.03274 1.603069,-2.23284 2.782062,-4.45615 4.617491,-8.70751 3.031668,-7.0222 4.667803,-10.27446 6.814088,-13.54483 2.171428,-3.30869 3.387653,-4.55826 5.158931,-5.30038 0.504574,-0.21141 0.687997,-0.24291 1.425739,-0.24487 0.724712,-0.002 0.901546,0.0262 1.227667,0.19548 0.784758,0.40728 1.302119,1.09619 1.52099,2.02534 0.125726,0.53374 0.05074,1.70054 -0.379487,5.90493 -0.157248,1.5367 -0.330949,3.53695 -0.386002,4.445 -0.207269,3.41873 0.138346,6.7155 0.932627,8.89619 0.821677,2.2559 2.552097,3.93646 4.788871,4.65088 0.448439,0.14323 0.870821,0.19914 1.735667,0.22978 0.996234,0.0353 1.278894,0.0126 2.201333,-0.17632 1.33695,-0.27389 2.92039,-0.78715 3.851002,-1.24828 1.939147,-0.96089 3.624117,-2.79209 4.436597,-4.82164 0.7497,-1.87273 0.98189,-3.33325 0.91454,-5.75261 -0.13278,-4.77002 -1.28574,-9.68456 -3.42648,-14.60552 -0.790247,-1.81657 -0.812497,-2.25761 -0.276597,-5.4818797 0.293127,-1.76362 0.560347,-2.78479 0.952637,-3.64041 0.2066,-0.45063 0.28569,-0.55183 0.37397,-0.47856 0.1946,0.16151 1.09605,1.68736 1.63266,2.76356 1.39315,2.79402 2.25535,5.4828597 3.903,12.1718097 1.64568,6.6809 2.32133,8.76062 3.80705,11.71844 1.97236,3.92663 4.26444,5.47242 8.088623,5.45499 0.93431,-0.004 1.32877,-0.044 1.86266,-0.1876 1.7103,-0.46005 3.1473,-1.50344 3.50045,-2.54164 0.15497,-0.45562 0.1185,-1.21679 -0.0845,-1.76219 -0.21596,-0.58034 -0.61418,-1.31042 -2.23,-4.08834 -2.60063,-4.47101 -3.36199,-6.10246 -4.734623,-10.14546 -0.80547,-2.37247 -2.00591,-6.54421 -2.17156,-7.5465497 -0.0477,-0.28868 -0.17378,-0.59794 -0.33561,-0.82329 -0.14257,-0.19851 -0.36234,-0.58101 -0.48837,-0.84998 -0.20817,-0.44425 -0.22893,-0.57825 -0.22659,-1.46272 l 0.003,-0.97366 0.60762,-1.778 c 0.3342,-0.9779 0.63346,-1.97983 0.66503,-2.22652 l 0.0574,-0.44851 0.2106,0.19451 c 0.33847,0.31263 2.78832,3.0701 3.676823,4.13854 1.81321,2.18039 3.7097,4.8367797 3.7097,5.1961197 0,0.3182 -0.30079,0.51186 -0.79501,0.51186 -0.35681,0 -0.60987,-0.0833 -1.35757,-0.44682 -0.50545,-0.24575 -0.9373,-0.42853 -0.95965,-0.40618 -0.055,0.055 0.21729,1.16679 0.42671,1.742 0.0932,0.25611 0.60595,1.43721 1.13933,2.62466 3.05344,6.79778 4.75452,11.57133 5.32523,14.94367 0.20386,1.20458 0.20536,3.90376 0.003,5.19886 -0.664,4.24744 -2.21172,6.83959 -4.84028,8.1066 -1.02279,0.493 -1.89428,0.70493 -3.13266,0.7618 -1.725323,0.0792 -3.347783,-0.26639 -4.910673,-1.0461 -0.97888,-0.48835 -1.68745,-0.99583 -2.57321,-1.84295 -1.76589,-1.68885 -3.02806,-3.80063 -4.62272,-7.73442 l -0.52955,-1.30631 -0.18009,0.18009 c -0.099,0.0991 -0.1801,0.22795 -0.1801,0.28645 0,0.27439 -0.27124,2.38463 -0.38899,3.02631 -1.24007,6.75784 -5.231257,11.3 -10.560299,12.01809 -2.088299,0.2814 -4.49239,-0.10021 -6.374916,-1.01191 -1.06553,-0.51606 -1.995317,-1.35257 -2.738807,-2.4641 -1.399865,-2.09282 -2.544271,-5.5664 -2.981644,-9.05008 -0.177891,-1.41691 -0.138621,-5.37398 0.09243,-9.31333 0.225578,-3.8461 0.213963,-4.03762 -0.259727,-4.28257 -0.330445,-0.17088 -0.797308,-0.0678 -1.597401,0.35256 -1.397385,0.73425 -2.500972,2.00697 -4.288712,4.94601 -1.317028,2.16519 -2.323354,4.18471 -4.433597,8.89744 -0.613282,1.36963 -1.396763,3.04736 -1.741071,3.7283 -2.749385,5.43748 -6.252454,8.95298 -10.836544,10.87498 -1.512527,0.63417 -2.737984,0.97134 -3.773192,1.03813 l -0.902875,0.0583 z M 152.79644,37.722539 c -0.1544,-0.0671 -0.59255,-0.34569 -0.97366,-0.61916 -1.73669,-1.24619 -2.97152,-1.83909 -4.13651,-1.98614 -0.90403,-0.11411 -1.15563,-0.0267 -1.29199,0.44875 -0.12267,0.42772 -0.69782,0.96095 -1.26567,1.17341 -0.69892,0.2615 -1.57515,0.24883 -2.13648,-0.0309 -0.91242,-0.45468 -1.64483,-1.48731 -1.70665,-2.40621 -0.0274,-0.40816 0.002,-0.52498 0.21359,-0.85386 0.50302,-0.781 1.22014,-1.09533 2.65281,-1.16278 1.60092,-0.0754 2.98421,0.20645 4.71962,0.9615 0.48088,0.20922 0.91746,0.36602 0.97018,0.34845 0.15954,-0.0532 -0.68609,-0.88425 -1.28396,-1.26186 -0.74133,-0.4682 -3.49217,-1.88087 -5.07863,-2.60808 -1.56112,-0.71559 -2.09892,-1.05487 -2.8086,-1.77185 -0.95555,-0.96539 -1.5868,-2.1182 -1.95696,-3.57392 -0.21818,-0.85804 -0.14697,-1.25296 0.31892,-1.76864 0.81948,-0.90707 2.27733,-0.97948 3.86387,-0.1919 0.71902,0.35693 1.84864,1.43056 2.18186,2.0737 0.18987,0.36649 0.19598,0.4117 0.0723,0.5354 -0.23762,0.23761 -0.73908,0.29596 -1.3866,0.16134 -0.71241,-0.14811 -1.03093,-0.15401 -1.53002,-0.0283 -0.43908,0.11056 -0.79832,0.48098 -0.79832,0.82316 0,0.52494 0.31491,0.78191 2.07758,1.69532 2.88546,1.49523 4.66102,2.58206 6.05042,3.70349 0.99926,0.80653 2.64171,2.41671 3.1404,3.07868 0.58803,0.78057 1.1752,1.94665 1.23516,2.45296 0.0456,0.38521 0.029,0.43923 -0.20914,0.67732 -0.28472,0.28472 -0.50645,0.31564 -0.93349,0.13015 z M 48.605201,36.559949 c -0.02383,-0.15134 -0.08453,-0.80857 -0.134888,-1.4605 -0.428288,-5.54447 -1.398034,-11.1709 -2.633201,-15.27773 -0.5199,-1.72863 -0.725476,-2.0366 -1.359454,-2.0366 -0.380871,0 -0.628123,0.28366 -0.905596,1.03896 -0.09873,0.26874 -0.270238,0.66879 -0.38113,0.889 -0.110893,0.2202 -0.34454,0.80042 -0.519216,1.28937 -0.34543,0.96692 -0.849242,2.032 -0.961191,2.032 -0.106373,0 -0.282445,-0.65672 -0.329148,-1.22767 -0.02285,-0.2794 0.002,-0.78853 0.05521,-1.1314 0.162917,-1.04955 0.768549,-3.55339 1.118925,-4.62593 0.399278,-1.22224 1.291667,-3.09774 1.689595,-3.55095 0.359395,-0.40933 0.846089,-0.63578 1.371629,-0.63819 0.795029,-0.004 1.186943,0.31073 1.729071,1.387 1.257887,2.49725 2.01974,5.48522 2.855851,11.20055 0.321913,2.20048 0.809815,6.37459 0.809842,6.92838 1.2e-5,0.24464 -0.224224,0.85374 -0.794823,2.159 -0.924883,2.11569 -1.473557,3.29987 -1.528948,3.29987 -0.02156,0 -0.0587,-0.12382 -0.08253,-0.27516 z m 74.796319,-0.0597 c -1.13256,-0.10668 -1.62425,-0.38333 -2.00031,-1.12545 -0.19935,-0.39339 -0.21671,-0.50566 -0.18615,-1.2042 0.0293,-0.67054 0.0733,-0.85377 0.33937,-1.41404 0.68885,-1.45054 1.45063,-2.34508 2.82075,-3.31233 0.46567,-0.32874 1.36102,-0.95958 1.98967,-1.40186 1.46997,-1.03418 2.23588,-1.6715 3.15383,-2.62435 0.9781,-1.01529 0.97517,-1.07837 -0.0635,-1.3663 -1.45971,-0.40466 -2.37005,-1.10255 -2.63729,-2.0218 -0.17911,-0.61615 -0.11418,-1.37144 0.23084,-2.68487 0.14586,-0.55527 0.29917,-1.14293 0.34069,-1.30591 0.0415,-0.16298 0.11147,-0.82973 0.15545,-1.48167 0.11519,-1.70783 0.39237,-2.35135 1.20273,-2.7924 0.3954,-0.21521 0.48476,-0.2303 1.16065,-0.19605 0.59471,0.0301 0.88336,0.0974 1.5366,0.3581 2.47375,0.98718 4.45584,2.65477 5.84356,4.91635 0.69965,1.1402 0.79447,1.42425 0.79138,2.37067 -0.006,1.7059 -0.62212,3.11115 -1.58926,3.62215 -0.51338,0.27125 -1.61188,0.24577 -2.63268,-0.0611 -0.96054,-0.28872 -1.46162,-0.34912 -1.84543,-0.22245 -0.34955,0.11536 -0.8175,0.60035 -1.08425,1.12371 -0.35088,0.68842 -0.91192,1.4661 -1.61497,2.23857 -0.85157,0.93564 -1.62896,1.59693 -2.77132,2.35744 -0.8564,0.57013 -3.20511,1.8213 -3.41895,1.8213 -0.20246,0 -0.48341,0.3378 -0.48341,0.58121 0,0.36841 0.29497,0.55088 1.397,0.86417 0.95448,0.27136 1.09033,0.28841 2.24366,0.28168 1.07594,-0.006 1.54022,-0.0612 3.75648,-0.44467 2.66557,-0.46116 3.57182,-0.65308 5.69771,-1.20666 0.71945,-0.18735 1.34947,-0.32684 1.40004,-0.30998 0.10966,0.0366 -1.15439,1.05473 -2.0489,1.65036 -2.3195,1.54451 -4.69822,2.45514 -7.45066,2.85229 -1.09583,0.15811 -3.26818,0.22896 -4.23333,0.13805 z m 12.18909,-14.31787 c 0.61478,-0.0997 0.76528,-0.18827 0.76407,-0.44944 -0.001,-0.27414 -0.36601,-0.98522 -0.70529,-1.37496 -0.29049,-0.3337 -2.41213,-1.85348 -2.48532,-1.78029 -0.0989,0.0989 -0.12365,2.17243 -0.0312,2.61464 0.10968,0.52446 0.44141,0.95342 0.78916,1.02048 0.36885,0.0711 1.12786,0.0573 1.66854,-0.0304 z m -4.34132,-1.02921 c 0.12897,-0.14324 0.15181,-0.31269 0.14432,-1.0706 -0.0109,-1.10392 -0.14268,-1.48359 -0.578,-1.66548 -1.15601,-0.48301 -2.65032,0.73371 -2.33576,1.90187 0.1572,0.58379 0.675,0.88904 1.70966,1.00787 0.66341,0.0762 0.86445,0.0432 1.05978,-0.17366 z m -14.56866,9.74236 c -0.0865,-0.43228 -0.0602,-1.01251 0.084,-1.85597 0.35161,-2.05689 1.30624,-3.99507 3.41648,-6.93642 1.28522,-1.7914 2.57795,-3.73263 2.98827,-4.48733 0.79842,-1.46855 1.09694,-2.85802 0.7782,-3.62222 -0.28782,-0.69006 -1.11704,-1.20378 -1.94309,-1.20378 -0.7223,0 -1.8473,0.60943 -2.56769,1.39097 -0.47584,0.51622 -0.60639,0.84698 -0.61121,1.54847 l -0.004,0.57422 -0.19974,-0.38327 c -0.31758,-0.60936 -0.41407,-1.30285 -0.36245,-2.60478 0.0745,-1.87868 0.56147,-3.22416 1.51632,-4.1894497 0.82114,-0.83012 1.61441,-1.02907 2.48562,-0.62338 0.87002,0.40514 1.86343,1.8413797 2.35047,3.3982197 0.34198,1.09317 0.43629,1.89543 0.43795,3.72533 0.002,1.81534 -0.0902,2.48812 -0.51198,3.75042 -0.52997,1.58611 -1.12801,2.52996 -3.49788,5.52058 -1.98235,2.50159 -2.86144,3.73763 -3.70315,5.20683 -0.57397,1.00187 -0.60631,1.04087 -0.65617,0.79156 z m -24.324953,-3.59526 c -0.0854,-0.22264 0.11697,-2.43131 0.34825,-3.80013 0.56238,-3.32852 0.82837,-6.34978 0.84232,-9.56733 0.01,-2.19401 -0.004,-2.43616 -0.18651,-3.24955 -0.24242,-1.0827197 -0.63548,-2.2140097 -0.9171,-2.6395597 -0.2637,-0.39848 -0.73638,-0.73184 -1.26201,-0.89003 -0.45093,-0.13571 -0.93514,-0.15891 -1.00363,-0.0481 -0.0249,0.0402 0.0119,0.34702 0.0817,0.6818 0.22558,1.08193 -0.0998,1.61472 -0.98652,1.61544 -1.05086,8.5e-4 -1.61393,-1.14513 -1.62227,-3.30169 -0.008,-2.0345 0.54114,-3.28373 1.73221,-3.94144 1.1926,-0.65857 2.92242,0.0532 3.95608,1.62768 1.00882,1.53669 1.59355,3.73257 1.74339,6.5470997 0.12341,2.31816 -0.3445,7.60502 -1.01603,11.47992 -0.31351,1.809 -1.03041,4.8576 -1.23764,5.26291 -0.19001,0.37166 -0.38067,0.46167 -0.47227,0.22296 z m -21.092079,-4.44013 c -1.171082,-0.5852 -1.958674,-2.19829 -1.96261,-4.01967 -8.47e-4,-0.37419 0.07875,-1.11714 0.17679,-1.651 0.17746,-0.96631 0.17854,-1.07995 0.02502,-2.63275 l -0.05551,-0.56142 0.609268,-1.23775 c 0.335097,-0.68076 0.643685,-1.23775 0.68575,-1.23775 0.04207,0 0.14327,0.21908 0.224897,0.48684 0.205412,0.6738 0.203969,2.48248 -0.0025,3.19616 -0.431077,1.48969 -0.172494,3.49791 0.557447,4.32927 0.399758,0.4553 0.682809,0.56596 1.329248,0.51971 1.025554,-0.0734 1.770569,-0.58097 2.186644,-1.48979 0.300782,-0.657 0.278752,-1.27152 -0.105249,-2.93585 -0.502513,-2.17801 -0.504061,-2.19684 -0.266264,-3.24089 0.298405,-1.31014 0.402083,-1.58511 0.597663,-1.58511 0.09537,0 0.230628,0.1137 0.322628,0.27123 0.241198,0.413 0.708768,2.38641 0.943808,3.98347 0.11568,0.78603 0.28987,1.64173 0.38708,1.90157 0.39821,1.0643 1.25568,2.04656 2.01131,2.30403 0.698892,0.23814 1.631222,0.14576 1.631222,-0.16163 0,-0.0658 -0.37735,-0.87411 -0.83855,-1.79618 -0.918522,-1.83639 -1.443182,-3.31759 -1.512562,-4.27021 -0.0682,-0.93683 0.42147,-2.78262 0.73825,-2.78262 0.17552,0 0.25806,0.18389 0.51225,1.14118 0.254652,0.95903 0.518032,1.58151 1.362082,3.21916 0.88169,1.71067 1.023917,2.1555 1.023917,3.20238 0,0.84241 -0.107457,1.36091 -0.579427,2.79588 -0.47904,1.45644 -0.98243,1.88327 -2.141932,1.81614 -1.34126,-0.0776 -2.46798,-0.93802 -3.17277,-2.42277 -0.13662,-0.28782 -0.27532,-0.5233 -0.308223,-0.5233 -0.0329,0 -0.142944,0.30805 -0.244536,0.68455 -0.246253,0.91263 -0.421513,1.30005 -0.837502,1.85136 -0.606372,0.80362 -1.209441,1.10343 -2.221313,1.10428 -0.453562,4.3e-4 -0.654967,-0.048 -1.076276,-0.25852 z m -20.382926,-2.57349 c -0.364343,-0.36434 -0.29292,-0.72839 0.411985,-2.09991 1.143635,-2.22515 1.477674,-3.34761 1.338593,-4.49804 -0.08674,-0.71744 -0.201397,-0.8989 -0.568011,-0.8989 -0.324126,0 -0.99006,-0.51975 -1.272703,-0.99332 -0.309718,-0.51894 -0.492343,-1.33342 -0.41045,-1.8305397 0.197348,-1.19798 1.469499,-2.43091 2.5239,-2.44609 0.420924,-0.006 0.926633,0.23803 1.299117,0.62703 0.666925,0.69651 1.004935,2.1194497 0.931947,3.9232597 -0.04671,1.15444 -0.176316,1.90334 -0.532322,3.07595 -0.117769,0.38791 -0.200824,0.7452 -0.184564,0.79398 0.05266,0.15797 0.779822,-0.73867 1.051083,-1.29606 0.349158,-0.71744 1.427071,-3.66287 1.979924,-5.4102097 0.637845,-2.01596 1.125632,-2.90949 2.082338,-3.81447 0.663654,-0.62776 1.139872,-0.94342 2.172571,-1.44005 0.696839,-0.33511 0.951274,-0.41595 1.312312,-0.41693 0.768994,-0.002 1.355095,0.42429 1.744061,1.26879 0.247535,0.53742 0.241856,1.7588 -0.01201,2.58233 -0.194107,0.62968 -0.657824,1.4509 -1.083087,1.91809 -1.238199,1.3602597 -1.671833,1.2269097 -1.636161,-0.50315 0.01959,-0.94987 -0.07005,-1.39355 -0.367052,-1.81691 -0.159184,-0.2269 -0.489177,-0.37398 -0.744626,-0.33188 -0.529325,0.0872 -0.774256,0.46555 -1.352154,2.08852 -1.007246,2.8287297 -2.08466,5.2264597 -3.005544,6.6886597 -0.731306,1.16119 -2.075954,2.89839 -2.724187,3.51948 -0.61517,0.58941 -1.457383,1.19704 -1.936856,1.39737 -0.43499,0.18175 -0.778728,0.15238 -1.018106,-0.087 z m 21.453534,-5.82468 c -0.0073,-0.0116 -0.03773,-0.93557 -0.06757,-2.05317 -0.05413,-2.02738 -0.05487,-2.03354 -0.323354,-2.7093297 -0.559742,-1.4089 -1.369538,-2.61463 -2.722319,-4.05334 -0.937288,-0.99683 -1.098289,-1.32047 -0.942435,-1.89449 0.123166,-0.45363 0.651787,-1.2065 0.847133,-1.2065 0.197708,0 1.09795,0.76062 1.619892,1.36867 1.979515,2.30606 2.887998,4.92946 2.618048,7.5600497 -0.139866,1.36295 -0.631195,3.00928 -0.898088,3.00928 -0.0649,0 -0.123988,-0.01 -0.131309,-0.0212 z m 3.036117,-4.5719997 c 0.982655,-1.29663 1.865085,-2.44032 2.279305,-2.95414 0.6142,-0.7619 1.1343,-1.76626 1.19541,-2.30847 0.13119,-1.16389 -0.77491,-1.46699 -2.33494,-0.78109 -0.3847,0.16914 -0.77124,0.30753 -0.858976,0.30753 -0.239308,0 -0.278727,-0.26732 -0.126208,-0.85591 0.284904,-1.09949 0.727344,-1.67234 1.606274,-2.0797 0.43506,-0.20164 0.6174,-0.23573003 1.27,-0.23742003 0.65793,-0.002 0.81352,0.0269 1.139242,0.20970003 0.20748,0.11642 0.48855,0.37022 0.6246,0.564 0.64817,0.92322 0.23566,2.66449 -1.107622,4.6754 -0.57096,0.85475 -2.07473,2.40162 -2.99941,3.08539 -0.636958,0.471 -0.847663,0.5858197 -0.687675,0.37471 z"
       id="path880" />
  </g>
</svg>
