<svg xmlns="http://www.w3.org/2000/svg" xmlns:rdkit="http://www.rdkit.org/xml" xmlns:xlink="http://www.w3.org/1999/xlink" version="1.1" baseProfile="full" xml:space="preserve" width="600px" height="600px" viewBox="0 0 600 600">
<!-- END OF HEADER -->
<rect style="opacity:1.0;fill:#FFFFFF;stroke:none" width="600.0" height="600.0" x="0.0" y="0.0"> </rect>
<path class="bond-0 atom-0 atom-1" d="M 569.1,368.1 L 540.4,332.3" style="fill:none;fill-rule:evenodd;stroke:#000000;stroke-width:2.0px;stroke-linecap:butt;stroke-linejoin:miter;stroke-opacity:1"/>
<path class="bond-0 atom-0 atom-1" d="M 540.4,332.3 L 511.8,296.6" style="fill:none;fill-rule:evenodd;stroke:#0000FF;stroke-width:2.0px;stroke-linecap:butt;stroke-linejoin:miter;stroke-opacity:1"/>
<path class="bond-1 atom-1 atom-2" d="M 502.3,260.8 L 515.0,214.5" style="fill:none;fill-rule:evenodd;stroke:#0000FF;stroke-width:2.0px;stroke-linecap:butt;stroke-linejoin:miter;stroke-opacity:1"/>
<path class="bond-1 atom-1 atom-2" d="M 515.0,214.5 L 527.6,168.2" style="fill:none;fill-rule:evenodd;stroke:#000000;stroke-width:2.0px;stroke-linecap:butt;stroke-linejoin:miter;stroke-opacity:1"/>
<path class="bond-2 atom-2 atom-3" d="M 527.6,168.2 L 487.0,141.6" style="fill:none;fill-rule:evenodd;stroke:#000000;stroke-width:2.0px;stroke-linecap:butt;stroke-linejoin:miter;stroke-opacity:1"/>
<path class="bond-2 atom-2 atom-3" d="M 487.0,141.6 L 446.4,114.9" style="fill:none;fill-rule:evenodd;stroke:#0000FF;stroke-width:2.0px;stroke-linecap:butt;stroke-linejoin:miter;stroke-opacity:1"/>
<path class="bond-2 atom-2 atom-3" d="M 507.8,175.7 L 472.4,152.5" style="fill:none;fill-rule:evenodd;stroke:#000000;stroke-width:2.0px;stroke-linecap:butt;stroke-linejoin:miter;stroke-opacity:1"/>
<path class="bond-2 atom-2 atom-3" d="M 472.4,152.5 L 437.0,129.2" style="fill:none;fill-rule:evenodd;stroke:#0000FF;stroke-width:2.0px;stroke-linecap:butt;stroke-linejoin:miter;stroke-opacity:1"/>
<path class="bond-3 atom-3 atom-4" d="M 417.4,117.0 L 380.0,147.0" style="fill:none;fill-rule:evenodd;stroke:#0000FF;stroke-width:2.0px;stroke-linecap:butt;stroke-linejoin:miter;stroke-opacity:1"/>
<path class="bond-3 atom-3 atom-4" d="M 380.0,147.0 L 342.5,177.0" style="fill:none;fill-rule:evenodd;stroke:#000000;stroke-width:2.0px;stroke-linecap:butt;stroke-linejoin:miter;stroke-opacity:1"/>
<path class="bond-4 atom-4 atom-5" d="M 342.5,177.0 L 383.0,284.1" style="fill:none;fill-rule:evenodd;stroke:#000000;stroke-width:2.0px;stroke-linecap:butt;stroke-linejoin:miter;stroke-opacity:1"/>
<path class="bond-4 atom-4 atom-5" d="M 363.0,182.6 L 394.7,266.4" style="fill:none;fill-rule:evenodd;stroke:#000000;stroke-width:2.0px;stroke-linecap:butt;stroke-linejoin:miter;stroke-opacity:1"/>
<path class="bond-5 atom-5 atom-6" d="M 383.0,284.1 L 310.5,372.7" style="fill:none;fill-rule:evenodd;stroke:#000000;stroke-width:2.0px;stroke-linecap:butt;stroke-linejoin:miter;stroke-opacity:1"/>
<path class="bond-6 atom-6 atom-7" d="M 300.7,371.1 L 318.4,418.0" style="fill:none;fill-rule:evenodd;stroke:#000000;stroke-width:2.0px;stroke-linecap:butt;stroke-linejoin:miter;stroke-opacity:1"/>
<path class="bond-6 atom-6 atom-7" d="M 318.4,418.0 L 336.1,464.8" style="fill:none;fill-rule:evenodd;stroke:#FF0000;stroke-width:2.0px;stroke-linecap:butt;stroke-linejoin:miter;stroke-opacity:1"/>
<path class="bond-6 atom-6 atom-7" d="M 316.8,365.1 L 334.5,411.9" style="fill:none;fill-rule:evenodd;stroke:#000000;stroke-width:2.0px;stroke-linecap:butt;stroke-linejoin:miter;stroke-opacity:1"/>
<path class="bond-6 atom-6 atom-7" d="M 334.5,411.9 L 352.2,458.7" style="fill:none;fill-rule:evenodd;stroke:#FF0000;stroke-width:2.0px;stroke-linecap:butt;stroke-linejoin:miter;stroke-opacity:1"/>
<path class="bond-7 atom-6 atom-8" d="M 310.5,372.7 L 261.2,364.7" style="fill:none;fill-rule:evenodd;stroke:#000000;stroke-width:2.0px;stroke-linecap:butt;stroke-linejoin:miter;stroke-opacity:1"/>
<path class="bond-7 atom-6 atom-8" d="M 261.2,364.7 L 212.0,356.6" style="fill:none;fill-rule:evenodd;stroke:#0000FF;stroke-width:2.0px;stroke-linecap:butt;stroke-linejoin:miter;stroke-opacity:1"/>
<path class="bond-8 atom-8 atom-9" d="M 190.7,336.3 L 173.8,291.7" style="fill:none;fill-rule:evenodd;stroke:#0000FF;stroke-width:2.0px;stroke-linecap:butt;stroke-linejoin:miter;stroke-opacity:1"/>
<path class="bond-8 atom-8 atom-9" d="M 173.8,291.7 L 157.0,247.1" style="fill:none;fill-rule:evenodd;stroke:#000000;stroke-width:2.0px;stroke-linecap:butt;stroke-linejoin:miter;stroke-opacity:1"/>
<path class="bond-9 atom-9 atom-10" d="M 163.3,239.5 L 112.7,231.2" style="fill:none;fill-rule:evenodd;stroke:#000000;stroke-width:2.0px;stroke-linecap:butt;stroke-linejoin:miter;stroke-opacity:1"/>
<path class="bond-9 atom-9 atom-10" d="M 112.7,231.2 L 62.1,222.9" style="fill:none;fill-rule:evenodd;stroke:#FF0000;stroke-width:2.0px;stroke-linecap:butt;stroke-linejoin:miter;stroke-opacity:1"/>
<path class="bond-9 atom-9 atom-10" d="M 160.5,256.4 L 109.9,248.1" style="fill:none;fill-rule:evenodd;stroke:#000000;stroke-width:2.0px;stroke-linecap:butt;stroke-linejoin:miter;stroke-opacity:1"/>
<path class="bond-9 atom-9 atom-10" d="M 109.9,248.1 L 59.3,239.9" style="fill:none;fill-rule:evenodd;stroke:#FF0000;stroke-width:2.0px;stroke-linecap:butt;stroke-linejoin:miter;stroke-opacity:1"/>
<path class="bond-10 atom-9 atom-11" d="M 157.0,247.1 L 186.0,211.7" style="fill:none;fill-rule:evenodd;stroke:#000000;stroke-width:2.0px;stroke-linecap:butt;stroke-linejoin:miter;stroke-opacity:1"/>
<path class="bond-10 atom-9 atom-11" d="M 186.0,211.7 L 215.0,176.2" style="fill:none;fill-rule:evenodd;stroke:#0000FF;stroke-width:2.0px;stroke-linecap:butt;stroke-linejoin:miter;stroke-opacity:1"/>
<path class="bond-11 atom-11 atom-12" d="M 222.7,140.6 L 205.9,96.0" style="fill:none;fill-rule:evenodd;stroke:#0000FF;stroke-width:2.0px;stroke-linecap:butt;stroke-linejoin:miter;stroke-opacity:1"/>
<path class="bond-11 atom-11 atom-12" d="M 205.9,96.0 L 189.0,51.4" style="fill:none;fill-rule:evenodd;stroke:#000000;stroke-width:2.0px;stroke-linecap:butt;stroke-linejoin:miter;stroke-opacity:1"/>
<path class="bond-12 atom-8 atom-13" d="M 183.0,372.0 L 154.0,407.5" style="fill:none;fill-rule:evenodd;stroke:#0000FF;stroke-width:2.0px;stroke-linecap:butt;stroke-linejoin:miter;stroke-opacity:1"/>
<path class="bond-12 atom-8 atom-13" d="M 154.0,407.5 L 125.0,442.9" style="fill:none;fill-rule:evenodd;stroke:#000000;stroke-width:2.0px;stroke-linecap:butt;stroke-linejoin:miter;stroke-opacity:1"/>
<path class="bond-13 atom-5 atom-1" d="M 383.0,284.1 L 433.0,281.7" style="fill:none;fill-rule:evenodd;stroke:#000000;stroke-width:2.0px;stroke-linecap:butt;stroke-linejoin:miter;stroke-opacity:1"/>
<path class="bond-13 atom-5 atom-1" d="M 433.0,281.7 L 482.9,279.4" style="fill:none;fill-rule:evenodd;stroke:#0000FF;stroke-width:2.0px;stroke-linecap:butt;stroke-linejoin:miter;stroke-opacity:1"/>
<path class="bond-14 atom-11 atom-4" d="M 244.0,160.9 L 293.3,168.9" style="fill:none;fill-rule:evenodd;stroke:#0000FF;stroke-width:2.0px;stroke-linecap:butt;stroke-linejoin:miter;stroke-opacity:1"/>
<path class="bond-14 atom-11 atom-4" d="M 293.3,168.9 L 342.5,177.0" style="fill:none;fill-rule:evenodd;stroke:#000000;stroke-width:2.0px;stroke-linecap:butt;stroke-linejoin:miter;stroke-opacity:1"/>
<path d="M 527.0,170.5 L 527.6,168.2 L 525.6,166.9" style="fill:none;stroke:#000000;stroke-width:2.0px;stroke-linecap:butt;stroke-linejoin:miter;stroke-miterlimit:10;stroke-opacity:1;"/>
<path d="M 314.1,368.3 L 310.5,372.7 L 308.0,372.3" style="fill:none;stroke:#000000;stroke-width:2.0px;stroke-linecap:butt;stroke-linejoin:miter;stroke-miterlimit:10;stroke-opacity:1;"/>
<path d="M 157.8,249.4 L 157.0,247.1 L 158.4,245.4" style="fill:none;stroke:#000000;stroke-width:2.0px;stroke-linecap:butt;stroke-linejoin:miter;stroke-miterlimit:10;stroke-opacity:1;"/>
<path class="atom-1" d="M 491.2 264.5 L 500.5 279.5 Q 501.4 281.0, 502.9 283.7 Q 504.3 286.4, 504.4 286.5 L 504.4 264.5 L 508.2 264.5 L 508.2 292.9 L 504.3 292.9 L 494.3 276.5 Q 493.2 274.5, 491.9 272.3 Q 490.7 270.1, 490.4 269.5 L 490.4 292.9 L 486.7 292.9 L 486.7 264.5 L 491.2 264.5 " fill="#0000FF"/>
<path class="atom-3" d="M 425.6 91.2 L 434.9 106.2 Q 435.8 107.7, 437.3 110.4 Q 438.8 113.0, 438.9 113.2 L 438.9 91.2 L 442.6 91.2 L 442.6 119.5 L 438.8 119.5 L 428.8 103.1 Q 427.6 101.2, 426.4 99.0 Q 425.2 96.8, 424.8 96.1 L 424.8 119.5 L 421.2 119.5 L 421.2 91.2 L 425.6 91.2 " fill="#0000FF"/>
<path class="atom-7" d="M 338.0 480.0 Q 338.0 473.2, 341.4 469.4 Q 344.7 465.6, 351.0 465.6 Q 357.3 465.6, 360.6 469.4 Q 364.0 473.2, 364.0 480.0 Q 364.0 486.8, 360.6 490.8 Q 357.2 494.6, 351.0 494.6 Q 344.8 494.6, 341.4 490.8 Q 338.0 486.9, 338.0 480.0 M 351.0 491.4 Q 355.3 491.4, 357.6 488.6 Q 360.0 485.6, 360.0 480.0 Q 360.0 474.4, 357.6 471.6 Q 355.3 468.8, 351.0 468.8 Q 346.7 468.8, 344.3 471.6 Q 342.0 474.4, 342.0 480.0 Q 342.0 485.7, 344.3 488.6 Q 346.7 491.4, 351.0 491.4 " fill="#FF0000"/>
<path class="atom-8" d="M 191.2 340.1 L 200.5 355.1 Q 201.4 356.6, 202.9 359.3 Q 204.4 361.9, 204.5 362.1 L 204.5 340.1 L 208.2 340.1 L 208.2 368.4 L 204.3 368.4 L 194.4 352.0 Q 193.2 350.1, 192.0 347.9 Q 190.8 345.7, 190.4 345.0 L 190.4 368.4 L 186.7 368.4 L 186.7 340.1 L 191.2 340.1 " fill="#0000FF"/>
<path class="atom-10" d="M 30.9 228.7 Q 30.9 221.9, 34.3 218.1 Q 37.7 214.3, 43.9 214.3 Q 50.2 214.3, 53.6 218.1 Q 56.9 221.9, 56.9 228.7 Q 56.9 235.6, 53.5 239.5 Q 50.1 243.4, 43.9 243.4 Q 37.7 243.4, 34.3 239.5 Q 30.9 235.6, 30.9 228.7 M 43.9 240.2 Q 48.3 240.2, 50.6 237.3 Q 52.9 234.4, 52.9 228.7 Q 52.9 223.2, 50.6 220.4 Q 48.3 217.5, 43.9 217.5 Q 39.6 217.5, 37.3 220.3 Q 34.9 223.1, 34.9 228.7 Q 34.9 234.4, 37.3 237.3 Q 39.6 240.2, 43.9 240.2 " fill="#FF0000"/>
<path class="atom-11" d="M 223.2 144.3 L 232.5 159.3 Q 233.4 160.8, 234.9 163.5 Q 236.4 166.2, 236.5 166.3 L 236.5 144.3 L 240.2 144.3 L 240.2 172.7 L 236.4 172.7 L 226.4 156.3 Q 225.2 154.3, 224.0 152.1 Q 222.8 149.9, 222.4 149.3 L 222.4 172.7 L 218.8 172.7 L 218.8 144.3 L 223.2 144.3 " fill="#0000FF"/>
<path class="legend" d="M 188.2 563.4 Q 188.2 561.4, 189.2 560.3 Q 190.2 559.1, 192.1 559.1 Q 194.0 559.1, 195.0 560.5 L 194.0 561.2 Q 193.6 560.8, 193.1 560.6 Q 192.7 560.3, 192.1 560.3 Q 191.0 560.3, 190.4 561.1 Q 189.7 561.9, 189.7 563.4 Q 189.7 564.9, 190.4 565.7 Q 191.0 566.4, 192.2 566.4 Q 192.9 566.4, 193.4 566.3 Q 193.8 566.1, 194.4 565.9 L 194.8 566.9 Q 193.6 567.6, 192.1 567.6 Q 190.2 567.6, 189.2 566.5 Q 188.2 565.4, 188.2 563.4 " fill="#000000"/>
<path class="legend" d="M 196.0 565.3 Q 196.0 564.0, 197.1 563.2 Q 198.1 562.5, 200.1 562.5 L 201.3 562.5 L 201.3 562.2 Q 201.3 561.2, 200.9 560.8 Q 200.4 560.3, 199.4 560.3 Q 198.8 560.3, 198.2 560.4 Q 197.7 560.6, 196.9 560.9 L 196.5 559.9 Q 198.0 559.1, 199.4 559.1 Q 201.2 559.1, 202.0 559.9 Q 202.8 560.6, 202.8 562.2 L 202.8 567.5 L 201.6 567.5 Q 201.6 567.4, 201.6 567.2 Q 201.5 566.9, 201.4 566.5 Q 200.3 567.7, 198.7 567.7 Q 197.5 567.7, 196.8 567.0 Q 196.0 566.4, 196.0 565.3 M 197.5 565.2 Q 197.5 565.9, 197.9 566.2 Q 198.3 566.5, 199.0 566.5 Q 199.7 566.5, 200.3 566.2 Q 200.9 565.9, 201.3 565.4 L 201.3 563.6 L 200.2 563.6 Q 198.9 563.6, 198.2 564.0 Q 197.5 564.4, 197.5 565.2 " fill="#000000"/>
<path class="legend" d="M 204.7 560.4 L 204.7 559.3 L 206.1 559.3 L 206.1 558.1 Q 206.1 556.7, 206.9 556.0 Q 207.6 555.3, 208.7 555.3 Q 209.3 555.3, 209.7 555.5 Q 210.2 555.6, 210.7 555.8 L 210.3 556.8 Q 209.5 556.5, 208.9 556.5 Q 208.3 556.5, 208.0 556.9 Q 207.6 557.3, 207.6 558.0 L 207.6 559.3 L 210.1 559.3 L 210.1 560.4 L 207.6 560.4 L 207.6 570.0 L 206.1 570.0 L 206.1 560.4 L 204.7 560.4 " fill="#000000"/>
<path class="legend" d="M 210.9 560.4 L 210.9 559.3 L 212.4 559.3 L 212.4 558.1 Q 212.4 556.7, 213.1 556.0 Q 213.9 555.3, 215.0 555.3 Q 215.6 555.3, 216.0 555.5 Q 216.5 555.6, 217.0 555.8 L 216.5 556.8 Q 215.8 556.5, 215.2 556.5 Q 214.6 556.5, 214.2 556.9 Q 213.9 557.3, 213.9 558.0 L 213.9 559.3 L 216.4 559.3 L 216.4 560.4 L 213.9 560.4 L 213.9 570.0 L 212.4 570.0 L 212.4 560.4 L 210.9 560.4 " fill="#000000"/>
<path class="legend" d="M 217.2 563.4 Q 217.2 561.4, 218.2 560.3 Q 219.2 559.1, 221.1 559.1 Q 222.9 559.1, 223.7 560.2 Q 224.5 561.3, 224.5 563.3 L 224.5 563.6 L 218.7 563.6 Q 218.8 565.0, 219.4 565.7 Q 220.0 566.4, 221.2 566.4 Q 221.8 566.4, 222.4 566.3 Q 223.0 566.1, 223.7 565.8 L 224.2 566.8 Q 223.4 567.3, 222.6 567.5 Q 221.9 567.6, 221.1 567.6 Q 219.3 567.6, 218.2 566.5 Q 217.2 565.4, 217.2 563.4 M 221.1 560.3 Q 220.1 560.3, 219.5 560.9 Q 219.0 561.4, 218.8 562.5 L 222.9 562.5 Q 222.8 561.4, 222.3 560.8 Q 221.9 560.3, 221.1 560.3 " fill="#000000"/>
<path class="legend" d="M 225.8 556.2 L 227.2 556.2 L 227.2 557.6 L 225.8 557.6 L 225.8 556.2 M 225.8 559.3 L 227.2 559.3 L 227.2 567.5 L 225.8 567.5 L 225.8 559.3 " fill="#000000"/>
<path class="legend" d="M 233.5 559.1 Q 234.9 559.1, 235.5 559.9 Q 236.2 560.6, 236.2 562.1 L 236.2 567.5 L 234.7 567.5 L 234.7 562.2 Q 234.7 561.2, 234.4 560.8 Q 234.0 560.3, 233.2 560.3 Q 232.4 560.3, 231.8 560.7 Q 231.2 561.0, 230.8 561.6 L 230.8 567.5 L 229.3 567.5 L 229.3 559.3 L 230.5 559.3 L 230.7 560.4 Q 231.8 559.1, 233.5 559.1 " fill="#000000"/>
<path class="legend" d="M 238.1 563.4 Q 238.1 561.4, 239.1 560.3 Q 240.1 559.1, 242.0 559.1 Q 243.8 559.1, 244.6 560.2 Q 245.4 561.3, 245.4 563.3 L 245.4 563.6 L 239.7 563.6 Q 239.7 565.0, 240.3 565.7 Q 240.9 566.4, 242.1 566.4 Q 242.8 566.4, 243.3 566.3 Q 243.9 566.1, 244.7 565.8 L 245.1 566.8 Q 244.3 567.3, 243.5 567.5 Q 242.8 567.6, 242.0 567.6 Q 240.2 567.6, 239.2 566.5 Q 238.1 565.4, 238.1 563.4 M 242.0 560.3 Q 241.0 560.3, 240.5 560.9 Q 239.9 561.4, 239.7 562.5 L 243.8 562.5 Q 243.7 561.4, 243.3 560.8 Q 242.8 560.3, 242.0 560.3 " fill="#000000"/>
<path class="legend" d="" fill="#000000"/>
<path class="legend" d="M 262.2 559.1 Q 263.6 559.1, 264.3 559.9 Q 265.0 560.6, 265.0 562.1 L 265.0 567.5 L 263.5 567.5 L 263.5 562.2 Q 263.5 561.2, 263.1 560.8 Q 262.7 560.3, 261.9 560.3 Q 261.2 560.3, 260.5 560.7 Q 259.9 561.0, 259.6 561.6 Q 259.6 561.8, 259.6 562.1 L 259.6 567.5 L 258.1 567.5 L 258.1 562.2 Q 258.1 561.2, 257.7 560.8 Q 257.3 560.3, 256.5 560.3 Q 255.8 560.3, 255.2 560.7 Q 254.5 561.0, 254.2 561.6 L 254.2 567.5 L 252.7 567.5 L 252.7 559.3 L 253.9 559.3 L 254.0 560.4 Q 255.1 559.1, 256.8 559.1 Q 258.7 559.1, 259.3 560.6 Q 260.4 559.1, 262.2 559.1 " fill="#000000"/>
<path class="legend" d="M 266.8 563.4 Q 266.8 561.4, 267.9 560.3 Q 268.9 559.1, 270.7 559.1 Q 272.6 559.1, 273.6 560.3 Q 274.7 561.4, 274.7 563.4 Q 274.7 565.4, 273.6 566.5 Q 272.6 567.6, 270.7 567.6 Q 268.9 567.6, 267.9 566.5 Q 266.8 565.4, 266.8 563.4 M 268.4 563.4 Q 268.4 564.9, 269.0 565.7 Q 269.6 566.4, 270.7 566.4 Q 271.9 566.4, 272.5 565.7 Q 273.1 564.9, 273.1 563.4 Q 273.1 561.9, 272.5 561.1 Q 271.9 560.3, 270.7 560.3 Q 269.6 560.3, 269.0 561.1 Q 268.4 561.9, 268.4 563.4 " fill="#000000"/>
<path class="legend" d="M 276.0 555.4 L 277.5 555.4 L 277.5 567.5 L 276.0 567.5 L 276.0 555.4 " fill="#000000"/>
<path class="legend" d="M 279.5 563.4 Q 279.5 561.4, 280.5 560.3 Q 281.6 559.1, 283.4 559.1 Q 285.2 559.1, 286.0 560.2 Q 286.8 561.3, 286.8 563.3 L 286.8 563.6 L 281.1 563.6 Q 281.1 565.0, 281.7 565.7 Q 282.4 566.4, 283.5 566.4 Q 284.2 566.4, 284.8 566.3 Q 285.3 566.1, 286.1 565.8 L 286.5 566.8 Q 285.7 567.3, 284.9 567.5 Q 284.2 567.6, 283.4 567.6 Q 281.6 567.6, 280.6 566.5 Q 279.5 565.4, 279.5 563.4 M 283.4 560.3 Q 282.5 560.3, 281.9 560.9 Q 281.3 561.4, 281.1 562.5 L 285.2 562.5 Q 285.1 561.4, 284.7 560.8 Q 284.2 560.3, 283.4 560.3 " fill="#000000"/>
<path class="legend" d="M 288.1 563.4 Q 288.1 561.4, 289.1 560.3 Q 290.1 559.1, 292.0 559.1 Q 293.9 559.1, 294.9 560.5 L 293.9 561.2 Q 293.5 560.8, 293.0 560.6 Q 292.6 560.3, 292.0 560.3 Q 290.9 560.3, 290.2 561.1 Q 289.6 561.9, 289.6 563.4 Q 289.6 564.9, 290.3 565.7 Q 290.9 566.4, 292.1 566.4 Q 292.8 566.4, 293.2 566.3 Q 293.7 566.1, 294.3 565.9 L 294.7 566.9 Q 293.5 567.6, 292.0 567.6 Q 290.1 567.6, 289.1 566.5 Q 288.1 565.4, 288.1 563.4 " fill="#000000"/>
<path class="legend" d="M 302.9 559.3 L 302.9 567.5 L 301.7 567.5 L 301.5 566.4 Q 300.4 567.6, 298.7 567.6 Q 297.3 567.6, 296.6 566.9 Q 295.9 566.2, 295.9 564.7 L 295.9 559.3 L 297.4 559.3 L 297.4 564.6 Q 297.4 565.6, 297.8 566.0 Q 298.2 566.5, 299.0 566.5 Q 299.7 566.5, 300.4 566.1 Q 301.0 565.8, 301.4 565.2 L 301.4 559.3 L 302.9 559.3 " fill="#000000"/>
<path class="legend" d="M 304.9 555.4 L 306.3 555.4 L 306.3 567.5 L 304.9 567.5 L 304.9 555.4 " fill="#000000"/>
<path class="legend" d="M 308.4 563.4 Q 308.4 561.4, 309.4 560.3 Q 310.4 559.1, 312.2 559.1 Q 314.0 559.1, 314.8 560.2 Q 315.6 561.3, 315.6 563.3 L 315.6 563.6 L 309.9 563.6 Q 309.9 565.0, 310.5 565.7 Q 311.2 566.4, 312.3 566.4 Q 313.0 566.4, 313.6 566.3 Q 314.2 566.1, 314.9 565.8 L 315.3 566.8 Q 314.5 567.3, 313.8 567.5 Q 313.0 567.6, 312.3 567.6 Q 310.4 567.6, 309.4 566.5 Q 308.4 565.4, 308.4 563.4 M 312.2 560.3 Q 311.3 560.3, 310.7 560.9 Q 310.1 561.4, 310.0 562.5 L 314.1 562.5 Q 313.9 561.4, 313.5 560.8 Q 313.0 560.3, 312.2 560.3 " fill="#000000"/>
<path class="legend" d="" fill="#000000"/>
<path class="legend" d="M 322.9 561.8 Q 322.9 559.0, 324.2 557.5 Q 325.5 556.0, 328.0 556.0 Q 330.4 556.0, 331.6 557.7 L 330.6 558.6 Q 329.7 557.4, 328.0 557.4 Q 326.3 557.4, 325.4 558.5 Q 324.5 559.6, 324.5 561.8 Q 324.5 564.1, 325.4 565.2 Q 326.4 566.4, 328.2 566.4 Q 329.5 566.4, 330.9 565.6 L 331.4 566.8 Q 330.8 567.2, 329.9 567.4 Q 329.0 567.6, 328.0 567.6 Q 325.5 567.6, 324.2 566.1 Q 322.9 564.6, 322.9 561.8 " fill="#000000"/>
<path class="legend" d="M 338.7 561.5 Q 339.7 562.0, 340.3 562.6 Q 340.9 563.3, 340.9 564.4 Q 340.9 565.4, 340.4 566.1 Q 339.9 566.8, 339.0 567.3 Q 338.1 567.7, 337.0 567.7 Q 335.1 567.7, 334.0 566.8 Q 332.9 565.9, 332.9 564.4 Q 332.9 563.5, 333.4 562.8 Q 333.9 562.1, 334.9 561.6 Q 334.1 561.1, 333.7 560.5 Q 333.3 559.9, 333.3 558.9 Q 333.3 557.6, 334.3 556.8 Q 335.3 556.0, 336.9 556.0 Q 338.6 556.0, 339.5 556.8 Q 340.5 557.6, 340.5 558.9 Q 340.5 559.8, 340.0 560.4 Q 339.6 561.0, 338.7 561.5 M 336.9 557.2 Q 336.0 557.2, 335.4 557.7 Q 334.9 558.1, 334.9 558.9 Q 334.9 559.5, 335.3 559.9 Q 335.6 560.3, 336.1 560.5 Q 336.6 560.8, 337.6 561.1 Q 338.3 560.6, 338.6 560.1 Q 338.9 559.6, 338.9 558.9 Q 338.9 558.1, 338.4 557.7 Q 337.9 557.2, 336.9 557.2 M 337.0 566.5 Q 338.0 566.5, 338.7 565.9 Q 339.3 565.3, 339.3 564.4 Q 339.3 563.8, 339.0 563.4 Q 338.6 563.0, 338.1 562.8 Q 337.6 562.6, 336.7 562.3 L 336.0 562.0 Q 335.2 562.5, 334.9 563.1 Q 334.5 563.6, 334.5 564.4 Q 334.5 565.3, 335.2 565.9 Q 335.9 566.5, 337.0 566.5 " fill="#000000"/>
<path class="legend" d="M 342.6 556.2 L 344.1 556.2 L 344.1 561.0 L 349.9 561.0 L 349.9 556.2 L 351.4 556.2 L 351.4 567.5 L 349.9 567.5 L 349.9 562.3 L 344.1 562.3 L 344.1 567.5 L 342.6 567.5 L 342.6 556.2 " fill="#000000"/>
<path class="legend" d="M 354.1 566.2 L 356.6 566.2 L 356.6 557.8 L 353.8 558.6 L 353.4 557.7 L 356.9 556.1 L 358.1 556.3 L 358.1 566.2 L 360.3 566.2 L 360.3 567.5 L 354.1 567.5 L 354.1 566.2 " fill="#000000"/>
<path class="legend" d="M 365.7 567.6 Q 363.7 567.6, 362.6 566.1 Q 361.6 564.6, 361.6 561.8 Q 361.6 559.1, 362.6 557.6 Q 363.7 556.0, 365.7 556.0 Q 367.8 556.0, 368.9 557.6 Q 369.9 559.1, 369.9 561.8 Q 369.9 564.6, 368.9 566.1 Q 367.8 567.6, 365.7 567.6 M 365.7 566.4 Q 367.0 566.4, 367.6 565.2 Q 368.3 564.1, 368.3 561.8 Q 368.3 559.6, 367.6 558.5 Q 367.0 557.3, 365.7 557.3 Q 364.5 557.3, 363.9 558.5 Q 363.2 559.6, 363.2 561.8 Q 363.2 564.1, 363.9 565.2 Q 364.5 566.4, 365.7 566.4 " fill="#000000"/>
<path class="legend" d="M 373.4 556.2 L 377.1 562.2 Q 377.5 562.8, 378.0 563.8 Q 378.6 564.9, 378.7 565.0 L 378.7 556.2 L 380.2 556.2 L 380.2 567.5 L 378.6 567.5 L 374.6 560.9 Q 374.2 560.2, 373.7 559.3 Q 373.2 558.4, 373.1 558.1 L 373.1 567.5 L 371.6 567.5 L 371.6 556.2 L 373.4 556.2 " fill="#000000"/>
<path class="legend" d="M 389.5 563.6 L 390.9 563.6 L 390.9 564.9 L 389.5 564.9 L 389.5 567.5 L 388.0 567.5 L 388.0 564.9 L 382.2 564.9 L 382.2 563.9 L 387.1 556.2 L 389.5 556.2 L 389.5 563.6 M 384.0 563.6 L 388.0 563.6 L 388.0 557.2 L 384.0 563.6 " fill="#000000"/>
<path class="legend" d="M 392.3 561.8 Q 392.3 559.1, 393.7 557.6 Q 395.0 556.0, 397.5 556.0 Q 400.0 556.0, 401.4 557.6 Q 402.7 559.1, 402.7 561.8 Q 402.7 564.6, 401.4 566.1 Q 400.0 567.7, 397.5 567.7 Q 395.0 567.7, 393.7 566.1 Q 392.3 564.6, 392.3 561.8 M 397.5 566.4 Q 399.2 566.4, 400.2 565.2 Q 401.1 564.1, 401.1 561.8 Q 401.1 559.6, 400.2 558.5 Q 399.2 557.3, 397.5 557.3 Q 395.8 557.3, 394.8 558.4 Q 393.9 559.6, 393.9 561.8 Q 393.9 564.1, 394.8 565.2 Q 395.8 566.4, 397.5 566.4 " fill="#000000"/>
<path class="legend" d="M 404.2 558.3 Q 404.6 557.2, 405.6 556.7 Q 406.6 556.0, 408.0 556.0 Q 409.7 556.0, 410.6 557.0 Q 411.6 557.9, 411.6 559.6 Q 411.6 561.2, 410.4 562.8 Q 409.1 564.4, 406.6 566.2 L 411.8 566.2 L 411.8 567.5 L 404.2 567.5 L 404.2 566.4 Q 406.3 564.9, 407.5 563.8 Q 408.8 562.7, 409.4 561.7 Q 410.0 560.7, 410.0 559.6 Q 410.0 558.5, 409.5 557.9 Q 408.9 557.3, 408.0 557.3 Q 407.1 557.3, 406.5 557.7 Q 405.8 558.1, 405.4 558.9 L 404.2 558.3 " fill="#000000"/>
</svg>