<?xml version="1.0" encoding="UTF-8" standalone="no"?>
<!-- Created with Inkscape (http://www.inkscape.org/) -->

<svg
   width="24mm"
   height="78mm"
   viewBox="0 0 24 78"
   version="1.1"
   id="svg8"
   inkscape:version="1.2 (dc2aeda, 2022-05-15)"
   sodipodi:docname="cc-by-sa-4.0-vertical_black.svg"
   inkscape:export-filename="/Users/drewpotter/Desktop/Projects/dinarly-reborn/pottercorp-overlay/pottercorp_overlay.png"
   inkscape:export-xdpi="300"
   inkscape:export-ydpi="300"
   xml:space="preserve"
   xmlns:inkscape="http://www.inkscape.org/namespaces/inkscape"
   xmlns:sodipodi="http://sodipodi.sourceforge.net/DTD/sodipodi-0.dtd"
   xmlns="http://www.w3.org/2000/svg"
   xmlns:svg="http://www.w3.org/2000/svg"
   xmlns:rdf="http://www.w3.org/1999/02/22-rdf-syntax-ns#"
   xmlns:cc="http://creativecommons.org/ns#"
   xmlns:dc="http://purl.org/dc/elements/1.1/"><defs
     id="defs2"><path
       inkscape:connector-curvature="0"
       id="SVGID_38_"
       d="m 198.96,428.44 c 3.34,8.98 9.97,16.39 17.75,21.82 11.22,7.9 24.24,12.57 36.9,17.58 0.49,0.21 0.95,0.49 1.41,0.77 -0.68,-0.05 -1.35,-0.11 -2.01,-0.29 -7.27,-1.82 -14.69,-3.02 -21.94,-4.97 -7.37,-1.96 -14.7,-4.61 -20.93,-9.11 -3.57,-2.55 -6.65,-5.75 -9.14,-9.36 1.15,6.12 3.83,12.01 7.87,16.77 4.88,5.75 11.83,9.37 19,11.41 9.35,2.66 19.12,3.31 28.77,3.98 -1.8,0.7 -3.73,0.6 -5.61,0.76 -7.92,0.67 -15.94,1.54 -23.86,0.41 -5.72,-0.77 -11.33,-2.91 -15.8,-6.61 3.34,5.94 8.44,11.13 15,13.35 8.82,3.11 18.35,1.52 27.26,-0.29 1.82,-0.28 3.6,-1.11 5.47,-0.81 -7.53,2.83 -14.94,6.42 -23.03,7.33 -4.08,0.48 -8.24,0.04 -12.09,-1.38 4.55,4.72 11.33,7.38 17.88,6.49 7.74,-0.92 14.57,-4.96 21.28,-8.61 1.72,-0.86 3.32,-2.03 5.21,-2.52 -0.42,0.4 -0.84,0.79 -1.3,1.14 -5.3,3.87 -9.77,8.87 -15.62,11.99 -2.95,1.61 -6.27,2.56 -9.65,2.5 4.07,2.34 9.35,2.29 13.57,0.25 5.63,-2.66 9.68,-7.58 13.78,-12.09 2.35,-2.44 4.67,-5.28 8.09,-6.18 0.82,-0.22 -0.09,-2.59 -1.14,-4.85 -0.9,-1.93 -1.91,-3.77 -2.06,-4.14 -1.93,-4.71 -6.81,-8.24 -10.75,-11.21 -4.51,-3.39 -9.36,-6.3 -14.27,-9.07 -8.43,-4.75 -17.08,-9.14 -25.19,-14.44 -6.93,-4.54 -13.55,-9.77 -18.73,-16.3 -3.91,-4.9 -6.98,-10.52 -8.67,-16.57 -0.93,7.45 -0.07,15.18 2.55,22.25" /><path
       inkscape:connector-curvature="0"
       id="SVGID_37_"
       d="m 375.42,438.95 c -7.22,4.96 -14.69,9.8 -23.09,12.54 -5.27,1.81 -10.98,2.85 -15.52,6.29 -6.18,4.58 -9.75,11.57 -13.97,17.8 -0.98,1.28 -1.57,2.91 -2.84,3.95 -0.03,-0.05 -0.06,-0.1 -0.09,-0.14 -0.72,1.66 -1.58,3.3 -2.6,4.78 0.39,0.5 0.65,1.2 1.33,1.33 1.92,0.57 3.48,1.87 4.9,3.24 3.93,3.84 7.21,8.35 11.56,11.76 2.67,2.15 5.77,3.91 9.2,4.44 3.31,0.58 6.69,-0.28 9.73,-1.58 -2.64,0.02 -5.29,-0.36 -7.73,-1.39 -7.19,-2.94 -12.33,-9.02 -18.5,-13.5 l -0.29,-0.67 c 8.12,3.96 15.77,9.45 24.88,10.9 6.89,1.29 14.17,-1.36 19,-6.33 -3.76,1.38 -7.83,1.85 -11.81,1.42 -8.2,-0.87 -15.73,-4.48 -23.34,-7.4 1.38,-0.21 2.72,0.26 4.05,0.54 5.2,1.12 10.44,2.07 15.76,2.34 6.4,0.24 13.09,-0.88 18.47,-4.52 3.94,-2.57 6.93,-6.32 9.31,-10.33 -5.34,4.07 -11.91,6.27 -18.58,6.71 -8.89,0.64 -17.77,-0.52 -26.61,-1.25 4.39,-0.78 8.88,-0.78 13.31,-1.37 9.97,-1.13 20.33,-3.07 28.69,-8.98 7.34,-5.1 12.05,-13.39 13.72,-22.07 -3.39,4.94 -7.96,9.02 -13.19,11.94 -10.98,6.19 -23.64,8.04 -35.76,10.77 -1.69,0.34 -3.33,0.96 -5.06,1.03 0.44,-0.27 0.88,-0.54 1.35,-0.75 11.77,-4.67 23.81,-9.02 34.49,-15.94 7.98,-5.15 15.1,-12.06 19.07,-20.8 3.54,-7.75 4.68,-16.53 3.67,-24.95 -3.51,12.67 -12.93,22.79 -23.51,30.19" /><rect
       id="SVGID_36_"
       x="251.38"
       y="428.25"
       width="99.220001"
       height="98.199997" /><path
       inkscape:connector-curvature="0"
       id="SVGID_35_"
       d="m 277.31,530.61 c -0.27,0.26 -0.4,0.57 -0.4,0.94 0,0.39 0.13,0.71 0.4,0.97 0.27,0.26 0.6,0.39 0.99,0.39 0.37,0 0.69,-0.13 0.96,-0.39 0.27,-0.26 0.4,-0.58 0.4,-0.97 0,-0.37 -0.14,-0.68 -0.4,-0.94 -0.27,-0.26 -0.59,-0.39 -0.96,-0.39 -0.4,0 -0.72,0.13 -0.99,0.39 m -2.79,-0.02 c -0.28,0.27 -0.42,0.59 -0.42,0.96 0,0.37 0.14,0.69 0.42,0.96 0.28,0.27 0.61,0.4 1,0.4 0.37,0 0.69,-0.14 0.97,-0.4 0.28,-0.27 0.42,-0.58 0.42,-0.96 0,-0.37 -0.14,-0.69 -0.42,-0.96 -0.28,-0.27 -0.6,-0.4 -0.97,-0.4 -0.39,0 -0.72,0.14 -1,0.4 m 5.55,-2.74 c -0.28,0.27 -0.42,0.6 -0.42,0.98 0,0.39 0.14,0.72 0.42,0.98 0.28,0.27 0.61,0.4 1,0.4 0.37,0 0.69,-0.14 0.97,-0.4 0.28,-0.27 0.42,-0.6 0.42,-0.98 0,-0.39 -0.14,-0.72 -0.42,-0.98 -0.28,-0.27 -0.6,-0.4 -0.97,-0.4 -0.39,0 -0.72,0.13 -1,0.4 m -8.35,-0.04 c -0.28,0.28 -0.42,0.6 -0.42,0.97 0,0.39 0.14,0.72 0.42,1 0.28,0.28 0.61,0.42 1,0.42 0.37,0 0.69,-0.14 0.97,-0.42 0.28,-0.28 0.42,-0.61 0.42,-1 0,-0.37 -0.14,-0.69 -0.42,-0.97 -0.28,-0.28 -0.6,-0.42 -0.97,-0.42 -0.39,0 -0.72,0.14 -1,0.42 m 0,-2.79 c -0.28,0.27 -0.42,0.6 -0.42,0.99 0,0.39 0.14,0.72 0.42,0.98 0.28,0.27 0.61,0.4 1,0.4 0.39,0 0.72,-0.13 1,-0.4 0.28,-0.27 0.42,-0.6 0.42,-0.98 0,-0.39 -0.14,-0.72 -0.42,-0.99 -0.28,-0.27 -0.61,-0.4 -1,-0.4 -0.39,0 -0.72,0.13 -1,0.4 m 8.25,0.02 c -0.29,0.28 -0.43,0.61 -0.43,1 0,0.39 0.14,0.72 0.43,1 0.29,0.28 0.63,0.42 1.04,0.42 0.39,0 0.72,-0.14 1.01,-0.42 0.29,-0.28 0.43,-0.61 0.43,-1 0,-0.39 -0.14,-0.72 -0.43,-1 -0.29,-0.28 -0.62,-0.42 -1.01,-0.42 -0.41,0 -0.75,0.14 -1.04,0.42 m 0,-2.74 c -0.29,0.27 -0.43,0.59 -0.43,0.96 0,0.37 0.14,0.69 0.43,0.96 0.29,0.27 0.63,0.4 1.04,0.4 0.41,0 0.75,-0.13 1.04,-0.4 0.29,-0.27 0.43,-0.59 0.43,-0.96 0,-0.37 -0.14,-0.69 -0.43,-0.96 -0.29,-0.27 -0.63,-0.4 -1.04,-0.4 -0.41,0 -0.75,0.14 -1.04,0.4 m -8.25,-0.05 c -0.28,0.27 -0.42,0.6 -0.42,0.99 0,0.39 0.14,0.72 0.42,0.98 0.28,0.27 0.61,0.4 1,0.4 0.39,0 0.72,-0.13 1,-0.4 0.28,-0.27 0.42,-0.6 0.42,-0.98 0,-0.39 -0.14,-0.72 -0.42,-0.99 -0.28,-0.27 -0.61,-0.4 -1,-0.4 -0.39,0 -0.72,0.13 -1,0.4 m 8.29,-2.73 c -0.28,0.28 -0.42,0.6 -0.42,0.97 0,0.39 0.14,0.72 0.42,1 0.28,0.28 0.62,0.42 1.03,0.42 0.41,0 0.75,-0.14 1.03,-0.42 0.28,-0.28 0.42,-0.61 0.42,-1 0,-0.37 -0.14,-0.69 -0.42,-0.97 -0.28,-0.28 -0.62,-0.42 -1.03,-0.42 -0.41,0 -0.75,0.14 -1.03,0.42 m -8.29,-0.06 c -0.28,0.28 -0.42,0.6 -0.42,0.97 0,0.39 0.14,0.72 0.42,1 0.28,0.28 0.61,0.42 1,0.42 0.37,0 0.69,-0.14 0.97,-0.42 0.28,-0.28 0.42,-0.61 0.42,-1 0,-0.37 -0.14,-0.69 -0.42,-0.97 -0.28,-0.28 -0.6,-0.42 -0.97,-0.42 -0.39,0.01 -0.72,0.15 -1,0.42 m 0,-2.66 c -0.28,0.26 -0.42,0.56 -0.42,0.92 0,0.37 0.14,0.68 0.42,0.94 0.28,0.26 0.61,0.39 1,0.39 0.37,0 0.69,-0.13 0.97,-0.39 0.28,-0.26 0.42,-0.57 0.42,-0.94 0,-0.35 -0.14,-0.66 -0.42,-0.92 -0.28,-0.26 -0.6,-0.39 -0.97,-0.39 -0.39,0 -0.72,0.13 -1,0.39 m 8.29,-0.01 c -0.28,0.27 -0.42,0.59 -0.42,0.96 0,0.37 0.14,0.69 0.42,0.96 0.28,0.27 0.62,0.4 1.03,0.4 0.41,0 0.75,-0.13 1.03,-0.4 0.28,-0.27 0.42,-0.59 0.42,-0.96 0,-0.37 -0.14,-0.69 -0.42,-0.96 -0.28,-0.27 -0.62,-0.4 -1.03,-0.4 -0.41,0 -0.75,0.13 -1.03,0.4 m -5.57,-2.8 c -0.28,0.27 -0.42,0.59 -0.42,0.96 0,0.39 0.14,0.72 0.42,0.98 0.28,0.27 0.61,0.4 1,0.4 0.39,0 0.72,-0.13 1,-0.4 0.28,-0.27 0.42,-0.6 0.42,-0.98 0,-0.37 -0.14,-0.69 -0.42,-0.96 -0.28,-0.27 -0.61,-0.4 -1,-0.4 -0.39,0 -0.72,0.13 -1,0.4 m 2.83,0 c -0.28,0.27 -0.42,0.59 -0.42,0.96 0,0.39 0.14,0.72 0.42,0.98 0.28,0.27 0.61,0.4 1,0.4 0.37,0 0.69,-0.13 0.97,-0.4 0.28,-0.27 0.42,-0.6 0.42,-0.98 0,-0.37 -0.14,-0.69 -0.42,-0.96 -0.28,-0.27 -0.6,-0.4 -0.97,-0.4 -0.39,0 -0.73,0.13 -1,0.4" /><path
       inkscape:connector-curvature="0"
       id="SVGID_34_"
       d="m 285.58,536.13 c -0.28,0.26 -0.42,0.57 -0.42,0.94 0,0.37 0.14,0.68 0.42,0.94 0.28,0.26 0.61,0.39 1,0.39 0.39,0 0.72,-0.13 1,-0.39 0.28,-0.26 0.42,-0.57 0.42,-0.94 0,-0.37 -0.14,-0.68 -0.42,-0.94 -0.28,-0.26 -0.61,-0.39 -1,-0.39 -0.39,0 -0.72,0.13 -1,0.39 m 0,-2.8 c -0.28,0.28 -0.42,0.61 -0.42,1 0,0.39 0.14,0.72 0.42,1 0.28,0.28 0.61,0.42 1,0.42 0.39,0 0.72,-0.14 1,-0.42 0.28,-0.28 0.42,-0.61 0.42,-1 0,-0.39 -0.14,-0.72 -0.42,-1 -0.28,-0.28 -0.61,-0.42 -1,-0.42 -0.39,0 -0.72,0.14 -1,0.42 m 2.87,-2.74 c -0.25,0.27 -0.38,0.59 -0.38,0.96 0,0.37 0.13,0.69 0.38,0.96 0.25,0.27 0.56,0.4 0.93,0.4 0.35,0 0.65,-0.14 0.9,-0.4 0.25,-0.27 0.38,-0.58 0.38,-0.96 0,-0.37 -0.13,-0.69 -0.38,-0.96 -0.25,-0.27 -0.55,-0.4 -0.9,-0.4 -0.37,0 -0.68,0.14 -0.93,0.4 m 2.64,0 c -0.29,0.27 -0.43,0.59 -0.43,0.96 0,0.37 0.14,0.69 0.43,0.96 0.29,0.27 0.63,0.4 1.04,0.4 0.41,0 0.75,-0.14 1.04,-0.4 0.29,-0.27 0.43,-0.58 0.43,-0.96 0,-0.37 -0.15,-0.69 -0.43,-0.96 -0.29,-0.27 -0.63,-0.4 -1.04,-0.4 -0.41,0 -0.76,0.14 -1.04,0.4 m -5.51,-0.05 c -0.28,0.27 -0.42,0.6 -0.42,0.98 0,0.39 0.14,0.72 0.42,0.98 0.28,0.27 0.62,0.4 1.03,0.4 0.41,0 0.75,-0.14 1.03,-0.4 0.28,-0.27 0.42,-0.6 0.42,-0.98 0,-0.39 -0.14,-0.72 -0.42,-0.98 -0.28,-0.27 -0.62,-0.4 -1.03,-0.4 -0.41,0 -0.75,0.13 -1.03,0.4 m 0,-2.7 c -0.28,0.26 -0.42,0.57 -0.42,0.94 0,0.39 0.14,0.71 0.42,0.97 0.28,0.26 0.62,0.39 1.03,0.39 0.41,0 0.75,-0.13 1.03,-0.39 0.28,-0.26 0.42,-0.58 0.42,-0.97 0,-0.37 -0.14,-0.68 -0.42,-0.94 -0.28,-0.26 -0.62,-0.39 -1.03,-0.39 -0.41,0 -0.75,0.13 -1.03,0.39 m 8.29,-0.02 c -0.28,0.27 -0.42,0.59 -0.42,0.96 0,0.39 0.14,0.72 0.42,0.99 0.28,0.27 0.62,0.4 1.03,0.4 0.39,0 0.72,-0.13 1,-0.4 0.28,-0.27 0.42,-0.6 0.42,-0.99 0,-0.37 -0.14,-0.69 -0.42,-0.96 -0.28,-0.27 -0.61,-0.4 -1,-0.4 -0.41,0 -0.75,0.13 -1.03,0.4 m -8.29,-2.71 c -0.28,0.27 -0.42,0.59 -0.42,0.96 0,0.39 0.14,0.72 0.42,0.99 0.28,0.27 0.61,0.4 1,0.4 0.37,0 0.69,-0.14 0.97,-0.4 0.28,-0.27 0.42,-0.6 0.42,-0.99 0,-0.37 -0.14,-0.69 -0.42,-0.96 -0.28,-0.27 -0.6,-0.4 -0.97,-0.4 -0.39,-0.01 -0.72,0.13 -1,0.4 m 8.29,-0.07 c -0.28,0.28 -0.42,0.6 -0.42,0.97 0,0.39 0.14,0.72 0.42,1 0.28,0.28 0.61,0.42 1,0.42 0.39,0 0.72,-0.14 1,-0.42 0.28,-0.28 0.42,-0.61 0.42,-1 0,-0.37 -0.14,-0.69 -0.42,-0.97 -0.28,-0.28 -0.61,-0.42 -1,-0.42 -0.39,0 -0.72,0.14 -1,0.42 m -8.29,-2.75 c -0.28,0.28 -0.42,0.61 -0.42,1 0,0.39 0.14,0.72 0.42,1 0.28,0.28 0.61,0.42 1,0.42 0.37,0 0.69,-0.14 0.97,-0.42 0.28,-0.28 0.42,-0.61 0.42,-1 0,-0.39 -0.14,-0.72 -0.42,-1 -0.28,-0.28 -0.6,-0.42 -0.97,-0.42 -0.39,0.01 -0.72,0.14 -1,0.42 m 8.41,-0.11 c -0.26,0.28 -0.39,0.61 -0.39,1 0,0.41 0.13,0.75 0.39,1.03 0.26,0.28 0.58,0.42 0.97,0.42 0.37,0 0.68,-0.14 0.94,-0.42 0.26,-0.28 0.39,-0.62 0.39,-1.03 0,-0.39 -0.13,-0.72 -0.39,-1 -0.26,-0.28 -0.57,-0.42 -0.94,-0.42 -0.39,0 -0.72,0.14 -0.97,0.42 m -8.41,-2.68 c -0.28,0.27 -0.42,0.6 -0.42,0.98 0,0.39 0.14,0.72 0.42,0.99 0.28,0.27 0.62,0.4 1.03,0.4 0.39,0 0.72,-0.13 1,-0.4 0.28,-0.27 0.42,-0.6 0.42,-0.99 0,-0.39 -0.14,-0.72 -0.42,-0.98 -0.28,-0.27 -0.61,-0.4 -1,-0.4 -0.41,0 -0.75,0.14 -1.03,0.4 m 2.85,0 c -0.27,0.27 -0.4,0.59 -0.4,0.96 0,0.37 0.13,0.69 0.4,0.96 0.27,0.27 0.59,0.4 0.96,0.4 0.37,0 0.69,-0.13 0.96,-0.4 0.27,-0.27 0.4,-0.59 0.4,-0.96 0,-0.37 -0.14,-0.69 -0.4,-0.96 -0.27,-0.27 -0.59,-0.4 -0.96,-0.4 -0.38,0 -0.7,0.14 -0.96,0.4 m 2.73,0 c -0.28,0.27 -0.42,0.59 -0.42,0.96 0,0.37 0.14,0.69 0.42,0.96 0.28,0.27 0.61,0.4 1,0.4 0.39,0 0.72,-0.13 1,-0.4 0.28,-0.27 0.42,-0.59 0.42,-0.96 0,-0.37 -0.14,-0.69 -0.42,-0.96 -0.28,-0.27 -0.61,-0.4 -1,-0.4 -0.39,0 -0.72,0.14 -1,0.4" /><path
       inkscape:connector-curvature="0"
       id="SVGID_33_"
       d="m 302.25,530.69 c -0.28,0.26 -0.42,0.56 -0.42,0.91 0,0.35 0.14,0.66 0.42,0.92 0.28,0.26 0.61,0.39 1,0.39 0.39,0 0.72,-0.13 1,-0.39 0.28,-0.26 0.42,-0.56 0.42,-0.92 0,-0.35 -0.14,-0.66 -0.42,-0.91 -0.28,-0.26 -0.61,-0.39 -1,-0.39 -0.39,0 -0.73,0.13 -1,0.39 m 2.81,-0.08 c -0.27,0.26 -0.4,0.57 -0.4,0.94 0,0.39 0.14,0.71 0.4,0.97 0.27,0.26 0.6,0.39 0.99,0.39 0.39,0 0.72,-0.13 0.98,-0.39 0.27,-0.26 0.4,-0.58 0.4,-0.97 0,-0.37 -0.13,-0.68 -0.4,-0.94 -0.27,-0.26 -0.6,-0.39 -0.98,-0.39 -0.39,0 -0.72,0.13 -0.99,0.39 m -5.61,-2.75 c -0.28,0.26 -0.42,0.57 -0.42,0.94 0,0.39 0.14,0.71 0.42,0.97 0.28,0.26 0.61,0.39 1,0.39 0.39,0 0.72,-0.13 1,-0.39 0.28,-0.26 0.42,-0.58 0.42,-0.97 0,-0.37 -0.14,-0.68 -0.42,-0.94 -0.28,-0.26 -0.61,-0.39 -1,-0.39 -0.39,0.01 -0.73,0.14 -1,0.39 m 0,-2.75 c -0.28,0.27 -0.42,0.59 -0.42,0.96 0,0.37 0.14,0.69 0.42,0.96 0.28,0.27 0.61,0.4 1,0.4 0.37,0 0.69,-0.13 0.97,-0.4 0.28,-0.27 0.42,-0.59 0.42,-0.96 0,-0.37 -0.14,-0.69 -0.42,-0.96 -0.28,-0.27 -0.6,-0.4 -0.97,-0.4 -0.39,-0.01 -0.73,0.13 -1,0.4 m 2.78,-0.03 c -0.27,0.27 -0.4,0.59 -0.4,0.96 0,0.39 0.13,0.72 0.4,0.99 0.27,0.27 0.6,0.4 0.98,0.4 0.37,0 0.69,-0.13 0.96,-0.4 0.27,-0.27 0.4,-0.6 0.4,-0.99 0,-0.37 -0.13,-0.69 -0.4,-0.96 -0.27,-0.27 -0.59,-0.4 -0.96,-0.4 -0.38,0 -0.71,0.13 -0.98,0.4 m 2.76,0 c -0.28,0.27 -0.42,0.59 -0.42,0.96 0,0.37 0.14,0.69 0.42,0.96 0.28,0.27 0.61,0.4 1,0.4 0.37,0 0.69,-0.13 0.97,-0.4 0.28,-0.27 0.42,-0.59 0.42,-0.96 0,-0.37 -0.14,-0.69 -0.42,-0.96 -0.28,-0.27 -0.6,-0.4 -0.97,-0.4 -0.39,0 -0.72,0.13 -1,0.4 m 2.8,0 c -0.28,0.27 -0.42,0.59 -0.42,0.96 0,0.37 0.14,0.69 0.42,0.96 0.28,0.27 0.61,0.4 1,0.4 0.39,0 0.72,-0.13 1,-0.4 0.28,-0.27 0.42,-0.59 0.42,-0.96 0,-0.37 -0.14,-0.69 -0.42,-0.96 -0.28,-0.27 -0.61,-0.4 -1,-0.4 -0.39,0 -0.72,0.13 -1,0.4 m -8.34,-2.82 c -0.28,0.28 -0.42,0.61 -0.42,1 0,0.41 0.14,0.75 0.42,1.03 0.28,0.28 0.61,0.42 1,0.42 0.37,0 0.69,-0.14 0.97,-0.42 0.28,-0.28 0.42,-0.62 0.42,-1.03 0,-0.39 -0.14,-0.72 -0.42,-1 -0.28,-0.28 -0.6,-0.42 -0.97,-0.42 -0.39,0.01 -0.73,0.15 -1,0.42 m 8.34,-0.05 c -0.28,0.28 -0.42,0.62 -0.42,1.03 0,0.41 0.14,0.75 0.42,1.03 0.28,0.28 0.61,0.42 1,0.42 0.39,0 0.72,-0.14 1,-0.42 0.28,-0.28 0.42,-0.62 0.42,-1.03 0,-0.41 -0.14,-0.75 -0.42,-1.03 -0.28,-0.28 -0.61,-0.42 -1,-0.42 -0.39,0 -0.72,0.14 -1,0.42 m -5.6,-2.65 c -0.28,0.27 -0.42,0.59 -0.42,0.96 0,0.37 0.14,0.69 0.42,0.96 0.28,0.27 0.61,0.4 1,0.4 0.39,0 0.72,-0.13 1,-0.4 0.28,-0.27 0.42,-0.59 0.42,-0.96 0,-0.37 -0.14,-0.69 -0.42,-0.96 -0.28,-0.27 -0.61,-0.4 -1,-0.4 -0.39,0 -0.72,0.13 -1,0.4 m 2.82,-0.1 c -0.27,0.28 -0.4,0.61 -0.4,1 0,0.39 0.13,0.72 0.4,1 0.27,0.28 0.6,0.42 0.99,0.42 0.37,0 0.69,-0.14 0.96,-0.42 0.27,-0.28 0.4,-0.61 0.4,-1 0,-0.39 -0.13,-0.72 -0.4,-1 -0.27,-0.28 -0.59,-0.42 -0.96,-0.42 -0.4,0.01 -0.73,0.15 -0.99,0.42" /><path
       inkscape:connector-curvature="0"
       id="SVGID_32_"
       d="m 313.31,530.64 c -0.28,0.26 -0.42,0.57 -0.42,0.94 0,0.37 0.14,0.68 0.42,0.94 0.28,0.26 0.62,0.39 1.03,0.39 0.39,0 0.72,-0.13 1,-0.39 0.28,-0.26 0.42,-0.57 0.42,-0.94 0,-0.37 -0.14,-0.68 -0.42,-0.94 -0.28,-0.26 -0.61,-0.39 -1,-0.39 -0.41,0 -0.75,0.13 -1.03,0.39 m 8.33,-0.07 c -0.27,0.27 -0.4,0.59 -0.4,0.96 0,0.39 0.14,0.72 0.4,0.98 0.27,0.27 0.6,0.4 0.98,0.4 0.39,0 0.72,-0.14 0.98,-0.4 0.27,-0.27 0.4,-0.6 0.4,-0.98 0,-0.37 -0.13,-0.69 -0.4,-0.96 -0.27,-0.27 -0.6,-0.4 -0.98,-0.4 -0.38,0 -0.71,0.13 -0.98,0.4 m -8.33,-2.71 c -0.28,0.28 -0.42,0.6 -0.42,0.97 0,0.39 0.14,0.72 0.42,1 0.28,0.28 0.62,0.42 1.03,0.42 0.39,0 0.72,-0.14 1,-0.42 0.28,-0.28 0.42,-0.61 0.42,-1 0,-0.37 -0.14,-0.69 -0.42,-0.97 -0.28,-0.28 -0.61,-0.42 -1,-0.42 -0.41,0.01 -0.75,0.15 -1.03,0.42 m 8.26,-0.07 c -0.28,0.27 -0.42,0.6 -0.42,0.98 0,0.39 0.14,0.72 0.42,0.99 0.28,0.27 0.62,0.4 1.03,0.4 0.39,0 0.72,-0.13 1,-0.4 0.28,-0.27 0.42,-0.6 0.42,-0.99 0,-0.39 -0.14,-0.72 -0.42,-0.98 -0.28,-0.27 -0.61,-0.4 -1,-0.4 -0.41,0 -0.75,0.14 -1.03,0.4 m -8.26,-2.73 c -0.28,0.28 -0.42,0.6 -0.42,0.97 0,0.39 0.14,0.72 0.42,1 0.28,0.28 0.61,0.42 1,0.42 0.37,0 0.69,-0.14 0.97,-0.42 0.28,-0.28 0.42,-0.61 0.42,-1 0,-0.37 -0.14,-0.69 -0.42,-0.97 -0.28,-0.28 -0.6,-0.42 -0.97,-0.42 -0.39,0.01 -0.72,0.15 -1,0.42 m 8.28,-0.05 c -0.29,0.28 -0.43,0.6 -0.43,0.97 0,0.39 0.14,0.72 0.43,1 0.29,0.28 0.63,0.42 1.04,0.42 0.39,0 0.73,-0.14 1.01,-0.42 0.29,-0.28 0.43,-0.61 0.43,-1 0,-0.37 -0.14,-0.69 -0.43,-0.97 -0.29,-0.28 -0.62,-0.42 -1.01,-0.42 -0.41,0 -0.76,0.14 -1.04,0.42 m -8.28,-2.68 c -0.28,0.27 -0.42,0.59 -0.42,0.96 0,0.37 0.14,0.69 0.42,0.96 0.28,0.27 0.61,0.4 1,0.4 0.37,0 0.69,-0.14 0.97,-0.4 0.28,-0.27 0.42,-0.59 0.42,-0.96 0,-0.37 -0.14,-0.69 -0.42,-0.96 -0.28,-0.27 -0.6,-0.4 -0.97,-0.4 -0.39,0 -0.72,0.14 -1,0.4 m 8.34,-0.05 c -0.28,0.27 -0.42,0.59 -0.42,0.96 0,0.37 0.14,0.69 0.42,0.96 0.28,0.27 0.61,0.4 1,0.4 0.39,0 0.72,-0.13 1,-0.4 0.28,-0.27 0.42,-0.59 0.42,-0.96 0,-0.37 -0.14,-0.69 -0.42,-0.96 -0.28,-0.27 -0.61,-0.4 -1,-0.4 -0.38,0 -0.72,0.13 -1,0.4 m -2.8,-2.73 c -0.28,0.26 -0.42,0.57 -0.42,0.94 0,0.39 0.14,0.71 0.42,0.97 0.28,0.26 0.61,0.39 1,0.39 0.37,0 0.69,-0.13 0.97,-0.39 0.28,-0.26 0.42,-0.58 0.42,-0.97 0,-0.37 -0.14,-0.68 -0.42,-0.94 -0.28,-0.26 -0.6,-0.39 -0.97,-0.39 -0.39,0 -0.72,0.13 -1,0.39 m -5.54,-0.03 c -0.28,0.28 -0.42,0.61 -0.42,1 0,0.39 0.14,0.72 0.42,1 0.28,0.28 0.61,0.42 1,0.42 0.37,0 0.69,-0.14 0.97,-0.42 0.28,-0.28 0.42,-0.61 0.42,-1 0,-0.39 -0.14,-0.72 -0.42,-1 -0.28,-0.28 -0.6,-0.42 -0.97,-0.42 -0.39,0 -0.72,0.14 -1,0.42 m 2.81,-0.02 c -0.27,0.27 -0.4,0.59 -0.4,0.96 0,0.39 0.13,0.72 0.4,0.98 0.27,0.27 0.59,0.4 0.96,0.4 0.37,0 0.69,-0.13 0.96,-0.4 0.27,-0.27 0.4,-0.6 0.4,-0.98 0,-0.37 -0.13,-0.69 -0.4,-0.96 -0.27,-0.27 -0.59,-0.4 -0.96,-0.4 -0.37,0 -0.69,0.14 -0.96,0.4" /><path
       inkscape:connector-curvature="0"
       id="SVGID_31_"
       d="m 210.76,555.5 c -0.28,0.27 -0.42,0.59 -0.42,0.96 0,0.39 0.14,0.72 0.42,0.98 0.28,0.27 0.62,0.4 1.03,0.4 0.39,0 0.72,-0.13 1,-0.4 0.28,-0.27 0.42,-0.59 0.42,-0.98 0,-0.37 -0.14,-0.69 -0.42,-0.96 -0.28,-0.27 -0.61,-0.4 -1,-0.4 -0.42,0 -0.76,0.13 -1.03,0.4 m 0,-2.77 c -0.28,0.27 -0.42,0.6 -0.42,0.98 0,0.39 0.14,0.72 0.42,0.99 0.28,0.27 0.61,0.4 1,0.4 0.37,0 0.69,-0.13 0.97,-0.4 0.28,-0.27 0.42,-0.6 0.42,-0.99 0,-0.39 -0.14,-0.72 -0.42,-0.98 -0.28,-0.27 -0.6,-0.4 -0.97,-0.4 -0.39,-0.01 -0.73,0.13 -1,0.4 m 0,-2.72 c -0.28,0.27 -0.42,0.59 -0.42,0.96 0,0.37 0.14,0.69 0.42,0.96 0.28,0.27 0.61,0.4 1,0.4 0.37,0 0.69,-0.13 0.97,-0.4 0.28,-0.27 0.42,-0.59 0.42,-0.96 0,-0.37 -0.14,-0.69 -0.42,-0.96 -0.28,-0.27 -0.6,-0.4 -0.97,-0.4 -0.39,0 -0.73,0.13 -1,0.4 m 2.78,-2.79 c -0.27,0.26 -0.4,0.56 -0.4,0.91 0,0.37 0.13,0.69 0.4,0.94 0.27,0.26 0.6,0.39 0.98,0.39 0.39,0 0.72,-0.13 0.98,-0.39 0.27,-0.26 0.4,-0.57 0.4,-0.94 0,-0.35 -0.13,-0.65 -0.4,-0.91 -0.27,-0.26 -0.6,-0.39 -0.98,-0.39 -0.38,0.01 -0.71,0.13 -0.98,0.39 m 2.79,0 c -0.28,0.26 -0.42,0.57 -0.42,0.94 0,0.39 0.14,0.71 0.42,0.97 0.28,0.26 0.62,0.39 1.03,0.39 0.39,0 0.72,-0.13 1,-0.39 0.28,-0.26 0.42,-0.58 0.42,-0.97 0,-0.37 -0.14,-0.68 -0.42,-0.94 -0.28,-0.26 -0.61,-0.39 -1,-0.39 -0.41,0.01 -0.75,0.13 -1.03,0.39 m -5.57,-0.09 c -0.28,0.27 -0.42,0.59 -0.42,0.96 0,0.39 0.14,0.72 0.42,0.98 0.28,0.27 0.61,0.4 1,0.4 0.37,0 0.69,-0.13 0.97,-0.4 0.28,-0.27 0.42,-0.6 0.42,-0.98 0,-0.37 -0.14,-0.69 -0.42,-0.96 -0.28,-0.27 -0.6,-0.4 -0.97,-0.4 -0.39,-0.01 -0.73,0.13 -1,0.4 m 0,-2.79 c -0.28,0.28 -0.42,0.6 -0.42,0.97 0,0.39 0.14,0.72 0.42,1 0.28,0.28 0.61,0.42 1,0.42 0.37,0 0.69,-0.14 0.97,-0.42 0.28,-0.28 0.42,-0.61 0.42,-1 0,-0.37 -0.14,-0.69 -0.42,-0.97 -0.28,-0.28 -0.6,-0.42 -0.97,-0.42 -0.39,0 -0.73,0.14 -1,0.42 m 0,-2.69 c -0.28,0.26 -0.42,0.57 -0.42,0.94 0,0.37 0.14,0.68 0.42,0.94 0.28,0.26 0.61,0.39 1,0.39 0.37,0 0.69,-0.13 0.97,-0.39 0.28,-0.26 0.42,-0.57 0.42,-0.94 0,-0.37 -0.14,-0.68 -0.42,-0.94 -0.28,-0.26 -0.6,-0.39 -0.97,-0.39 -0.39,0 -0.73,0.13 -1,0.39 m 0,-2.73 c -0.28,0.27 -0.42,0.59 -0.42,0.96 0,0.37 0.14,0.69 0.42,0.96 0.28,0.27 0.61,0.4 1,0.4 0.39,0 0.72,-0.13 1,-0.4 0.28,-0.27 0.42,-0.59 0.42,-0.96 0,-0.37 -0.14,-0.69 -0.42,-0.96 -0.28,-0.27 -0.61,-0.4 -1,-0.4 -0.39,0 -0.73,0.13 -1,0.4 m 2.81,0 c -0.27,0.27 -0.4,0.59 -0.4,0.96 0,0.37 0.13,0.69 0.4,0.96 0.27,0.27 0.6,0.4 0.98,0.4 0.39,0 0.72,-0.13 0.98,-0.4 0.27,-0.27 0.4,-0.59 0.4,-0.96 0,-0.37 -0.13,-0.69 -0.4,-0.96 -0.27,-0.27 -0.6,-0.4 -0.98,-0.4 -0.38,0 -0.71,0.13 -0.98,0.4 m 2.77,0 c -0.27,0.27 -0.4,0.59 -0.4,0.96 0,0.39 0.13,0.72 0.4,0.98 0.27,0.27 0.59,0.4 0.96,0.4 0.37,0 0.69,-0.13 0.96,-0.4 0.27,-0.27 0.4,-0.6 0.4,-0.98 0,-0.37 -0.13,-0.69 -0.4,-0.96 -0.27,-0.27 -0.59,-0.4 -0.96,-0.4 -0.37,0 -0.69,0.13 -0.96,0.4 m 2.73,0 c -0.28,0.27 -0.42,0.59 -0.42,0.96 0,0.39 0.14,0.72 0.42,0.98 0.28,0.27 0.61,0.4 1,0.4 0.37,0 0.69,-0.13 0.97,-0.4 0.28,-0.27 0.42,-0.6 0.42,-0.98 0,-0.37 -0.14,-0.69 -0.42,-0.96 -0.28,-0.27 -0.6,-0.4 -0.97,-0.4 -0.39,0 -0.72,0.13 -1,0.4" /><path
       inkscape:connector-curvature="0"
       id="SVGID_30_"
       d="m 232.94,555.54 c -0.28,0.26 -0.42,0.57 -0.42,0.94 0,0.39 0.14,0.71 0.42,0.97 0.28,0.26 0.61,0.39 1,0.39 0.37,0 0.69,-0.13 0.97,-0.39 0.28,-0.26 0.42,-0.58 0.42,-0.97 0,-0.37 -0.14,-0.68 -0.42,-0.94 -0.28,-0.26 -0.6,-0.39 -0.97,-0.39 -0.39,0 -0.73,0.13 -1,0.39 m -5.56,-0.01 c -0.27,0.27 -0.4,0.59 -0.4,0.96 0,0.37 0.13,0.69 0.4,0.96 0.27,0.27 0.6,0.4 0.99,0.4 0.37,0 0.69,-0.13 0.96,-0.4 0.27,-0.27 0.4,-0.58 0.4,-0.96 0,-0.37 -0.14,-0.69 -0.4,-0.96 -0.27,-0.27 -0.59,-0.4 -0.96,-0.4 -0.4,0 -0.73,0.13 -0.99,0.4 m 2.75,0 c -0.28,0.27 -0.42,0.59 -0.42,0.96 0,0.37 0.14,0.69 0.42,0.96 0.28,0.27 0.61,0.4 1,0.4 0.37,0 0.69,-0.13 0.97,-0.4 0.28,-0.27 0.42,-0.58 0.42,-0.96 0,-0.37 -0.14,-0.69 -0.42,-0.96 -0.28,-0.27 -0.6,-0.4 -0.97,-0.4 -0.38,0 -0.72,0.13 -1,0.4 m -5.51,-2.76 c -0.28,0.26 -0.42,0.56 -0.42,0.92 0,0.35 0.14,0.65 0.42,0.91 0.28,0.26 0.62,0.39 1.02,0.39 0.41,0 0.75,-0.13 1.03,-0.39 0.28,-0.26 0.42,-0.56 0.42,-0.91 0,-0.35 -0.14,-0.66 -0.42,-0.92 -0.28,-0.26 -0.62,-0.39 -1.03,-0.39 -0.4,0 -0.74,0.13 -1.02,0.39 m 8.32,0.01 c -0.28,0.27 -0.42,0.6 -0.42,0.98 0,0.39 0.14,0.72 0.42,0.99 0.28,0.27 0.61,0.4 1,0.4 0.39,0 0.72,-0.14 1,-0.4 0.28,-0.27 0.42,-0.6 0.42,-0.99 0,-0.39 -0.14,-0.72 -0.42,-0.98 -0.28,-0.27 -0.61,-0.4 -1,-0.4 -0.39,0 -0.73,0.13 -1,0.4 m -5.58,-2.73 c -0.28,0.26 -0.42,0.57 -0.42,0.94 0,0.37 0.14,0.68 0.42,0.94 0.28,0.26 0.61,0.39 1,0.39 0.39,0 0.72,-0.13 1,-0.39 0.28,-0.26 0.42,-0.57 0.42,-0.94 0,-0.37 -0.14,-0.68 -0.42,-0.94 -0.28,-0.26 -0.61,-0.39 -1,-0.39 -0.39,0 -0.72,0.13 -1,0.39 m 2.82,-0.01 c -0.27,0.25 -0.4,0.55 -0.4,0.9 0,0.37 0.13,0.68 0.4,0.93 0.27,0.25 0.59,0.37 0.96,0.37 0.37,0 0.69,-0.13 0.96,-0.37 0.27,-0.25 0.4,-0.56 0.4,-0.93 0,-0.35 -0.14,-0.65 -0.4,-0.9 -0.27,-0.25 -0.59,-0.37 -0.96,-0.37 -0.38,-0.01 -0.69,0.12 -0.96,0.37 m 2.76,-0.1 c -0.28,0.28 -0.42,0.61 -0.42,1 0,0.41 0.14,0.75 0.42,1.02 0.28,0.28 0.62,0.42 1.03,0.42 0.39,0 0.72,-0.14 1,-0.42 0.28,-0.28 0.42,-0.62 0.42,-1.02 0,-0.39 -0.14,-0.72 -0.42,-1 -0.28,-0.28 -0.61,-0.42 -1,-0.42 -0.41,0 -0.76,0.14 -1.03,0.42 m 0.07,-2.79 c -0.27,0.27 -0.4,0.6 -0.4,0.98 0,0.39 0.13,0.72 0.4,0.99 0.27,0.27 0.6,0.4 0.98,0.4 0.39,0 0.72,-0.13 0.98,-0.4 0.27,-0.27 0.4,-0.6 0.4,-0.99 0,-0.39 -0.14,-0.72 -0.4,-0.98 -0.27,-0.27 -0.6,-0.4 -0.98,-0.4 -0.39,0 -0.72,0.14 -0.98,0.4 m -5.65,-2.71 c -0.28,0.27 -0.42,0.59 -0.42,0.96 0,0.37 0.14,0.69 0.42,0.96 0.28,0.27 0.61,0.4 1,0.4 0.39,0 0.72,-0.13 1,-0.4 0.28,-0.27 0.42,-0.59 0.42,-0.96 0,-0.37 -0.14,-0.69 -0.42,-0.96 -0.28,-0.27 -0.61,-0.4 -1,-0.4 -0.39,-0.01 -0.72,0.13 -1,0.4 m 2.83,0 c -0.28,0.27 -0.42,0.59 -0.42,0.96 0,0.37 0.14,0.69 0.42,0.96 0.28,0.27 0.62,0.4 1.03,0.4 0.41,0 0.75,-0.13 1.03,-0.4 0.28,-0.27 0.42,-0.59 0.42,-0.96 0,-0.37 -0.14,-0.69 -0.42,-0.96 -0.28,-0.27 -0.62,-0.4 -1.03,-0.4 -0.41,-0.01 -0.75,0.13 -1.03,0.4" /><path
       inkscape:connector-curvature="0"
       id="SVGID_29_"
       d="m 244.1,555.57 c -0.27,0.26 -0.4,0.57 -0.4,0.94 0,0.37 0.13,0.68 0.4,0.94 0.27,0.26 0.59,0.39 0.98,0.39 0.39,0 0.72,-0.13 0.98,-0.39 0.27,-0.26 0.4,-0.57 0.4,-0.94 0,-0.37 -0.13,-0.68 -0.4,-0.94 -0.27,-0.26 -0.6,-0.39 -0.98,-0.39 -0.39,0 -0.72,0.13 -0.98,0.39 m -5.62,-0.07 c -0.28,0.27 -0.42,0.59 -0.42,0.96 0,0.39 0.14,0.72 0.42,0.98 0.28,0.27 0.61,0.4 1,0.4 0.37,0 0.69,-0.13 0.97,-0.4 0.28,-0.27 0.42,-0.59 0.42,-0.98 0,-0.37 -0.14,-0.69 -0.42,-0.96 -0.28,-0.27 -0.6,-0.4 -0.97,-0.4 -0.39,0 -0.72,0.13 -1,0.4 m 2.8,0 c -0.28,0.27 -0.42,0.59 -0.42,0.96 0,0.39 0.14,0.72 0.42,0.98 0.28,0.27 0.61,0.4 1,0.4 0.39,0 0.72,-0.13 1,-0.4 0.28,-0.27 0.42,-0.59 0.42,-0.98 0,-0.37 -0.14,-0.69 -0.42,-0.96 -0.28,-0.27 -0.61,-0.4 -1,-0.4 -0.39,0 -0.72,0.13 -1,0.4 m 5.6,-2.76 c -0.28,0.28 -0.42,0.61 -0.42,1 0,0.41 0.14,0.75 0.42,1.03 0.28,0.28 0.61,0.42 1,0.42 0.37,0 0.69,-0.14 0.97,-0.42 0.28,-0.28 0.42,-0.62 0.42,-1.03 0,-0.39 -0.14,-0.72 -0.42,-1 -0.28,-0.28 -0.6,-0.42 -0.97,-0.42 -0.39,0 -0.72,0.14 -1,0.42 m -5.67,-2.76 c -0.27,0.27 -0.4,0.59 -0.4,0.96 0,0.39 0.13,0.72 0.4,0.98 0.27,0.27 0.6,0.4 0.98,0.4 0.37,0 0.69,-0.13 0.96,-0.4 0.27,-0.27 0.4,-0.6 0.4,-0.98 0,-0.37 -0.13,-0.69 -0.4,-0.96 -0.27,-0.27 -0.59,-0.4 -0.96,-0.4 -0.38,0 -0.71,0.13 -0.98,0.4 m 2.76,0 c -0.28,0.27 -0.42,0.59 -0.42,0.96 0,0.39 0.14,0.72 0.42,0.98 0.28,0.27 0.61,0.4 1,0.4 0.37,0 0.69,-0.13 0.97,-0.4 0.28,-0.27 0.42,-0.6 0.42,-0.98 0,-0.37 -0.14,-0.69 -0.42,-0.96 -0.28,-0.27 -0.6,-0.4 -0.97,-0.4 -0.39,0 -0.72,0.13 -1,0.4 m -5.52,-2.74 c -0.26,0.27 -0.39,0.59 -0.39,0.96 0,0.39 0.13,0.72 0.39,0.99 0.26,0.27 0.57,0.4 0.94,0.4 0.37,0 0.68,-0.14 0.94,-0.4 0.26,-0.27 0.39,-0.6 0.39,-0.99 0,-0.37 -0.13,-0.69 -0.39,-0.96 -0.26,-0.27 -0.57,-0.4 -0.94,-0.4 -0.36,0 -0.68,0.13 -0.94,0.4 m 2.58,-2.75 c -0.28,0.27 -0.42,0.6 -0.42,0.99 0,0.39 0.14,0.72 0.42,0.98 0.28,0.27 0.62,0.4 1.03,0.4 0.41,0 0.75,-0.14 1.03,-0.4 0.28,-0.27 0.42,-0.6 0.42,-0.98 0,-0.39 -0.14,-0.72 -0.42,-0.99 -0.28,-0.27 -0.62,-0.4 -1.03,-0.4 -0.41,0 -0.75,0.13 -1.03,0.4 m 5.73,0 c -0.23,0.22 -0.37,0.47 -0.42,0.76 -0.04,-0.29 -0.18,-0.54 -0.4,-0.76 -0.28,-0.27 -0.61,-0.4 -1,-0.4 -0.41,0 -0.75,0.13 -1.03,0.4 -0.28,0.27 -0.42,0.59 -0.42,0.96 0,0.37 0.14,0.69 0.42,0.96 0.28,0.27 0.62,0.4 1.03,0.4 0.39,0 0.72,-0.13 1,-0.4 0.23,-0.22 0.36,-0.47 0.4,-0.76 0.04,0.29 0.18,0.54 0.42,0.76 0.29,0.27 0.63,0.4 1.04,0.4 0.41,0 0.75,-0.13 1.04,-0.4 0.29,-0.27 0.43,-0.59 0.43,-0.96 0,-0.37 -0.14,-0.69 -0.43,-0.96 -0.29,-0.27 -0.63,-0.4 -1.04,-0.4 -0.41,0 -0.76,0.13 -1.04,0.4" /><path
       inkscape:connector-curvature="0"
       id="SVGID_28_"
       d="m 260.67,555.54 c -0.27,0.26 -0.4,0.57 -0.4,0.94 0,0.39 0.13,0.71 0.4,0.97 0.27,0.26 0.6,0.39 0.98,0.39 0.39,0 0.72,-0.13 0.99,-0.39 0.27,-0.26 0.4,-0.58 0.4,-0.97 0,-0.37 -0.14,-0.68 -0.4,-0.94 -0.27,-0.26 -0.6,-0.39 -0.99,-0.39 -0.38,0 -0.71,0.13 -0.98,0.39 m -8.33,-0.01 c -0.28,0.27 -0.42,0.59 -0.42,0.96 0,0.37 0.14,0.69 0.42,0.96 0.28,0.27 0.61,0.4 1,0.4 0.37,0 0.69,-0.13 0.97,-0.4 0.28,-0.27 0.42,-0.58 0.42,-0.96 0,-0.37 -0.14,-0.69 -0.42,-0.96 -0.28,-0.27 -0.6,-0.4 -0.97,-0.4 -0.39,0 -0.72,0.13 -1,0.4 m 0,-2.75 c -0.28,0.27 -0.42,0.59 -0.42,0.96 0,0.39 0.14,0.72 0.42,0.99 0.28,0.27 0.61,0.4 1,0.4 0.39,0 0.72,-0.13 1,-0.4 0.28,-0.27 0.42,-0.6 0.42,-0.99 0,-0.37 -0.14,-0.69 -0.42,-0.96 -0.28,-0.27 -0.61,-0.4 -1,-0.4 -0.39,0 -0.72,0.13 -1,0.4 m 8.26,-0.01 c -0.28,0.28 -0.42,0.6 -0.42,0.97 0,0.39 0.14,0.72 0.42,1 0.28,0.28 0.62,0.42 1.03,0.42 0.39,0 0.72,-0.14 1,-0.42 0.28,-0.28 0.42,-0.61 0.42,-1 0,-0.37 -0.14,-0.69 -0.42,-0.97 -0.28,-0.28 -0.61,-0.42 -1,-0.42 -0.41,0 -0.75,0.14 -1.03,0.42 m -8.26,-2.8 c -0.28,0.28 -0.42,0.61 -0.42,1 0,0.39 0.14,0.72 0.42,1 0.28,0.28 0.61,0.42 1,0.42 0.39,0 0.72,-0.14 1,-0.42 0.28,-0.28 0.42,-0.61 0.42,-1 0,-0.39 -0.14,-0.72 -0.42,-1 -0.28,-0.28 -0.61,-0.42 -1,-0.42 -0.39,0 -0.72,0.14 -1,0.42 m 0,-2.8 c -0.28,0.28 -0.42,0.6 -0.42,0.97 0,0.39 0.14,0.72 0.42,1 0.28,0.28 0.61,0.42 1,0.42 0.37,0 0.69,-0.14 0.97,-0.42 0.28,-0.28 0.42,-0.61 0.42,-1 0,-0.37 -0.14,-0.69 -0.42,-0.97 -0.28,-0.28 -0.6,-0.42 -0.97,-0.42 -0.39,0 -0.72,0.14 -1,0.42 m 8.29,0 c -0.28,0.28 -0.42,0.62 -0.42,1.03 0,0.41 0.14,0.75 0.42,1.03 0.28,0.28 0.62,0.42 1.03,0.42 -0.41,0 -0.75,0.13 -1.04,0.4 -0.29,0.27 -0.43,0.59 -0.43,0.96 0,0.37 0.14,0.69 0.43,0.96 0.29,0.27 0.63,0.4 1.04,0.4 0.39,0 0.73,-0.14 1.01,-0.4 0.28,-0.27 0.43,-0.58 0.43,-0.96 0,-0.37 -0.15,-0.69 -0.43,-0.96 -0.29,-0.27 -0.63,-0.4 -1.01,-0.4 0.41,0 0.75,-0.14 1.03,-0.42 0.28,-0.28 0.42,-0.62 0.42,-1.03 0,-0.41 -0.14,-0.75 -0.42,-1.03 -0.28,-0.28 -0.62,-0.42 -1.03,-0.42 -0.41,0 -0.75,0.14 -1.03,0.42 m -5.5,-2.76 c -0.27,0.27 -0.4,0.59 -0.4,0.98 0,0.39 0.14,0.72 0.4,0.98 0.27,0.27 0.59,0.4 0.96,0.4 0.37,0 0.69,-0.13 0.96,-0.4 0.27,-0.27 0.4,-0.6 0.4,-0.98 0,-0.39 -0.13,-0.72 -0.4,-0.98 -0.27,-0.27 -0.59,-0.4 -0.96,-0.4 -0.37,0 -0.69,0.13 -0.96,0.4 m 2.72,0 c -0.27,0.27 -0.4,0.59 -0.4,0.96 0,0.39 0.14,0.72 0.4,0.98 0.27,0.27 0.6,0.4 0.99,0.4 0.39,0 0.72,-0.13 0.98,-0.4 0.27,-0.27 0.4,-0.6 0.4,-0.98 0,-0.37 -0.13,-0.69 -0.4,-0.96 -0.27,-0.27 -0.6,-0.4 -0.98,-0.4 -0.4,0 -0.73,0.13 -0.99,0.4 m -5.51,-0.03 c -0.28,0.27 -0.42,0.6 -0.42,0.99 0,0.39 0.14,0.72 0.42,0.98 0.28,0.27 0.61,0.4 1,0.4 0.37,0 0.69,-0.13 0.97,-0.4 0.28,-0.27 0.42,-0.6 0.42,-0.98 0,-0.39 -0.14,-0.72 -0.42,-0.99 -0.28,-0.27 -0.6,-0.4 -0.97,-0.4 -0.39,0 -0.72,0.13 -1,0.4 m 0,-2.77 c -0.28,0.27 -0.42,0.6 -0.42,0.99 0,0.39 0.14,0.72 0.42,0.98 0.28,0.27 0.61,0.4 1,0.4 0.39,0 0.72,-0.13 1,-0.4 0.28,-0.27 0.42,-0.6 0.42,-0.98 0,-0.39 -0.14,-0.72 -0.42,-0.99 -0.28,-0.27 -0.61,-0.4 -1,-0.4 -0.39,0 -0.72,0.13 -1,0.4 m 0,-2.7 c -0.28,0.26 -0.42,0.57 -0.42,0.94 0,0.39 0.14,0.71 0.42,0.97 0.28,0.26 0.61,0.39 1,0.39 0.39,0 0.72,-0.13 1,-0.39 0.28,-0.26 0.42,-0.58 0.42,-0.97 0,-0.37 -0.14,-0.68 -0.42,-0.94 -0.28,-0.26 -0.61,-0.39 -1,-0.39 -0.39,0 -0.72,0.13 -1,0.39" /><path
       inkscape:connector-curvature="0"
       id="SVGID_27_"
       d="m 266.21,555.53 c -0.28,0.27 -0.42,0.59 -0.42,0.96 0,0.37 0.14,0.69 0.42,0.96 0.28,0.27 0.62,0.4 1.03,0.4 0.39,0 0.72,-0.13 1,-0.4 0.28,-0.27 0.42,-0.58 0.42,-0.96 0,-0.37 -0.14,-0.69 -0.42,-0.96 -0.28,-0.27 -0.61,-0.4 -1,-0.4 -0.41,0 -0.76,0.13 -1.03,0.4 m 2.84,0 c -0.27,0.27 -0.4,0.59 -0.4,0.96 0,0.37 0.14,0.69 0.4,0.96 0.27,0.27 0.59,0.4 0.96,0.4 0.37,0 0.69,-0.13 0.96,-0.4 0.27,-0.27 0.4,-0.58 0.4,-0.96 0,-0.37 -0.14,-0.69 -0.4,-0.96 -0.27,-0.27 -0.59,-0.4 -0.96,-0.4 -0.38,0 -0.7,0.13 -0.96,0.4 m 2.71,0 c -0.27,0.27 -0.4,0.59 -0.4,0.96 0,0.37 0.13,0.69 0.4,0.96 0.27,0.27 0.6,0.4 0.98,0.4 0.39,0 0.72,-0.13 0.98,-0.4 0.27,-0.27 0.4,-0.58 0.4,-0.96 0,-0.37 -0.14,-0.69 -0.4,-0.96 -0.27,-0.27 -0.6,-0.4 -0.98,-0.4 -0.38,0 -0.71,0.13 -0.98,0.4 m -2.82,-2.78 c -0.29,0.27 -0.43,0.59 -0.43,0.96 0,0.39 0.14,0.72 0.43,0.99 0.29,0.27 0.63,0.4 1.04,0.4 0.39,0 0.73,-0.13 1.01,-0.4 0.29,-0.27 0.43,-0.6 0.43,-0.99 0,-0.37 -0.14,-0.69 -0.43,-0.96 -0.29,-0.27 -0.62,-0.4 -1.01,-0.4 -0.41,0 -0.76,0.14 -1.04,0.4 m 0,-2.81 c -0.29,0.28 -0.43,0.61 -0.43,1 0,0.39 0.14,0.72 0.43,1 0.29,0.28 0.63,0.42 1.04,0.42 0.39,0 0.73,-0.14 1.01,-0.42 0.29,-0.28 0.43,-0.61 0.43,-1 0,-0.39 -0.14,-0.72 -0.43,-1 -0.29,-0.28 -0.62,-0.42 -1.01,-0.42 -0.41,0 -0.76,0.14 -1.04,0.42 m -0.02,-2.79 c -0.28,0.27 -0.42,0.6 -0.42,0.98 0,0.39 0.14,0.72 0.42,0.99 0.28,0.27 0.62,0.4 1.03,0.4 0.39,0 0.72,-0.13 1,-0.4 0.28,-0.27 0.42,-0.6 0.42,-0.99 0,-0.39 -0.14,-0.72 -0.42,-0.98 -0.28,-0.27 -0.61,-0.4 -1,-0.4 -0.41,0 -0.75,0.14 -1.03,0.4 m -2.71,-2.7 c -0.28,0.26 -0.42,0.56 -0.42,0.91 0,0.35 0.14,0.66 0.42,0.91 0.28,0.26 0.62,0.39 1.03,0.39 0.41,0 0.75,-0.13 1.03,-0.39 0.28,-0.26 0.42,-0.56 0.42,-0.91 0,-0.35 -0.14,-0.66 -0.42,-0.91 -0.28,-0.26 -0.62,-0.39 -1.03,-0.39 -0.41,0 -0.76,0.13 -1.03,0.39 m 2.85,0 c -0.26,0.26 -0.39,0.57 -0.39,0.94 0,0.39 0.13,0.71 0.39,0.97 0.26,0.26 0.58,0.39 0.97,0.39 0.37,0 0.68,-0.13 0.94,-0.39 0.26,-0.26 0.39,-0.58 0.39,-0.97 0,-0.37 -0.13,-0.68 -0.39,-0.94 -0.26,-0.26 -0.57,-0.39 -0.94,-0.39 -0.39,0 -0.71,0.13 -0.97,0.39 m -0.14,-5.53 c -0.28,0.27 -0.42,0.59 -0.42,0.96 0,0.37 0.14,0.69 0.42,0.96 0.28,0.27 0.62,0.4 1.03,0.4 0.41,0 0.75,-0.13 1.03,-0.4 0.28,-0.27 0.42,-0.59 0.42,-0.96 0,-0.37 -0.14,-0.69 -0.42,-0.96 -0.28,-0.27 -0.62,-0.4 -1.03,-0.4 -0.41,0 -0.75,0.13 -1.03,0.4" /><path
       inkscape:connector-curvature="0"
       id="SVGID_26_"
       d="m 282.84,555.53 c -0.28,0.27 -0.42,0.59 -0.42,0.96 0,0.37 0.14,0.69 0.42,0.96 0.28,0.27 0.61,0.4 1,0.4 0.37,0 0.69,-0.13 0.97,-0.4 0.28,-0.27 0.42,-0.58 0.42,-0.96 0,-0.37 -0.14,-0.69 -0.42,-0.96 -0.28,-0.27 -0.6,-0.4 -0.97,-0.4 -0.39,0 -0.72,0.13 -1,0.4 m -2.76,-0.06 c -0.27,0.27 -0.4,0.6 -0.4,0.98 0,0.39 0.13,0.72 0.4,0.98 0.27,0.27 0.6,0.4 0.99,0.4 0.37,0 0.69,-0.13 0.96,-0.4 0.27,-0.27 0.4,-0.59 0.4,-0.98 0,-0.39 -0.14,-0.72 -0.4,-0.98 -0.27,-0.27 -0.59,-0.4 -0.96,-0.4 -0.39,0 -0.72,0.13 -0.99,0.4 m 5.55,-2.69 c -0.27,0.27 -0.4,0.59 -0.4,0.96 0,0.39 0.13,0.72 0.4,0.99 0.27,0.27 0.6,0.4 0.98,0.4 0.39,0 0.72,-0.13 0.98,-0.4 0.27,-0.27 0.4,-0.6 0.4,-0.99 0,-0.37 -0.14,-0.69 -0.4,-0.96 -0.27,-0.27 -0.6,-0.4 -0.98,-0.4 -0.39,0 -0.72,0.13 -0.98,0.4 m -8.36,-0.05 c -0.28,0.27 -0.42,0.59 -0.42,0.96 0,0.39 0.14,0.72 0.42,0.98 0.28,0.27 0.61,0.4 1,0.4 0.39,0 0.72,-0.14 1,-0.4 0.28,-0.27 0.42,-0.59 0.42,-0.98 0,-0.37 -0.14,-0.69 -0.42,-0.96 -0.28,-0.27 -0.61,-0.4 -1,-0.4 -0.39,-0.01 -0.73,0.13 -1,0.4 m 8.29,-2.72 c -0.28,0.27 -0.42,0.6 -0.42,0.98 0,0.39 0.14,0.72 0.42,0.99 0.28,0.27 0.62,0.4 1.03,0.4 0.39,0 0.72,-0.14 1,-0.4 0.28,-0.27 0.42,-0.6 0.42,-0.99 0,-0.39 -0.14,-0.72 -0.42,-0.98 -0.28,-0.27 -0.61,-0.4 -1,-0.4 -0.41,0 -0.76,0.13 -1.03,0.4 m -8.29,-0.07 c -0.28,0.28 -0.42,0.6 -0.42,0.97 0,0.39 0.14,0.72 0.42,1 0.28,0.28 0.61,0.42 1,0.42 0.39,0 0.72,-0.14 1,-0.42 0.28,-0.28 0.42,-0.61 0.42,-1 0,-0.37 -0.14,-0.69 -0.42,-0.97 -0.28,-0.28 -0.61,-0.42 -1,-0.42 -0.39,0 -0.73,0.14 -1,0.42 m 0,-2.63 c -0.28,0.26 -0.42,0.56 -0.42,0.91 0,0.35 0.14,0.66 0.42,0.92 0.28,0.26 0.61,0.39 1,0.39 0.39,0 0.72,-0.13 1,-0.39 0.28,-0.26 0.42,-0.56 0.42,-0.92 0,-0.35 -0.14,-0.66 -0.42,-0.91 -0.28,-0.26 -0.61,-0.39 -1,-0.39 -0.39,0 -0.73,0.13 -1,0.39 m 8.29,-0.09 c -0.28,0.28 -0.42,0.6 -0.42,0.97 0,0.39 0.14,0.72 0.42,1 0.28,0.28 0.62,0.42 1.03,0.42 0.39,0 0.72,-0.14 1,-0.42 0.28,-0.28 0.42,-0.61 0.42,-1 0,-0.37 -0.14,-0.69 -0.42,-0.97 -0.28,-0.28 -0.61,-0.42 -1,-0.42 -0.41,0.01 -0.76,0.15 -1.03,0.42 m -5.55,-2.78 c -0.28,0.27 -0.42,0.59 -0.42,0.96 0,0.39 0.14,0.72 0.42,0.98 0.28,0.27 0.61,0.4 1,0.4 0.37,0 0.69,-0.13 0.97,-0.4 0.28,-0.27 0.42,-0.6 0.42,-0.98 0,-0.37 -0.14,-0.69 -0.42,-0.96 -0.28,-0.27 -0.6,-0.4 -0.97,-0.4 -0.39,-0.01 -0.72,0.13 -1,0.4 m 2.8,-0.02 c -0.28,0.26 -0.42,0.56 -0.42,0.92 0,0.37 0.14,0.68 0.42,0.94 0.28,0.26 0.61,0.39 1,0.39 0.39,0 0.72,-0.13 1,-0.39 0.28,-0.26 0.42,-0.57 0.42,-0.94 0,-0.35 -0.14,-0.66 -0.42,-0.92 -0.28,-0.26 -0.61,-0.39 -1,-0.39 -0.39,0 -0.72,0.13 -1,0.39" /><path
       inkscape:connector-curvature="0"
       id="SVGID_25_"
       d="m 291.13,555.57 c -0.28,0.26 -0.42,0.57 -0.42,0.94 0,0.37 0.14,0.68 0.42,0.94 0.28,0.26 0.62,0.39 1.03,0.39 0.39,0 0.72,-0.13 1,-0.39 0.28,-0.26 0.42,-0.57 0.42,-0.94 0,-0.37 -0.14,-0.68 -0.42,-0.94 -0.28,-0.26 -0.61,-0.39 -1,-0.39 -0.41,0 -0.75,0.13 -1.03,0.39 m 8.33,-0.07 c -0.27,0.27 -0.4,0.59 -0.4,0.96 0,0.39 0.14,0.72 0.4,0.98 0.27,0.27 0.59,0.4 0.98,0.4 0.39,0 0.72,-0.13 0.98,-0.4 0.27,-0.27 0.4,-0.59 0.4,-0.98 0,-0.37 -0.13,-0.69 -0.4,-0.96 -0.27,-0.27 -0.6,-0.4 -0.98,-0.4 -0.38,0 -0.71,0.13 -0.98,0.4 m -8.33,-2.7 c -0.28,0.28 -0.42,0.6 -0.42,0.97 0,0.39 0.14,0.72 0.42,1 0.28,0.28 0.62,0.42 1.03,0.42 0.39,0 0.72,-0.14 1,-0.42 0.28,-0.28 0.42,-0.61 0.42,-1 0,-0.37 -0.14,-0.69 -0.42,-0.97 -0.28,-0.28 -0.61,-0.42 -1,-0.42 -0.41,0 -0.75,0.14 -1.03,0.42 m 8.26,-0.07 c -0.28,0.27 -0.42,0.6 -0.42,0.98 0,0.39 0.14,0.72 0.42,0.99 0.28,0.27 0.62,0.4 1.03,0.4 0.39,0 0.72,-0.13 1,-0.4 0.28,-0.27 0.42,-0.6 0.42,-0.99 0,-0.39 -0.14,-0.72 -0.42,-0.98 -0.28,-0.27 -0.61,-0.4 -1,-0.4 -0.41,-0.01 -0.75,0.13 -1.03,0.4 M 291.13,550 c -0.28,0.28 -0.42,0.6 -0.42,0.97 0,0.39 0.14,0.72 0.42,1 0.28,0.28 0.61,0.42 1,0.42 0.37,0 0.69,-0.14 0.97,-0.42 0.28,-0.28 0.42,-0.61 0.42,-1 0,-0.37 -0.14,-0.69 -0.42,-0.97 -0.28,-0.28 -0.6,-0.42 -0.97,-0.42 -0.39,0 -0.72,0.14 -1,0.42 m 8.28,-0.06 c -0.29,0.28 -0.43,0.6 -0.43,0.97 0,0.39 0.15,0.72 0.43,1 0.29,0.28 0.63,0.42 1.04,0.42 0.39,0 0.73,-0.14 1.01,-0.42 0.29,-0.28 0.43,-0.61 0.43,-1 0,-0.37 -0.14,-0.69 -0.43,-0.97 -0.29,-0.28 -0.62,-0.42 -1.01,-0.42 -0.41,0 -0.76,0.14 -1.04,0.42 m -8.28,-2.68 c -0.28,0.27 -0.42,0.59 -0.42,0.96 0,0.37 0.14,0.69 0.42,0.96 0.28,0.27 0.61,0.4 1,0.4 0.37,0 0.69,-0.14 0.97,-0.4 0.28,-0.27 0.42,-0.59 0.42,-0.96 0,-0.37 -0.14,-0.69 -0.42,-0.96 -0.28,-0.27 -0.6,-0.4 -0.97,-0.4 -0.39,0 -0.72,0.14 -1,0.4 m 8.35,-0.05 c -0.28,0.27 -0.42,0.59 -0.42,0.96 0,0.37 0.14,0.69 0.42,0.96 0.28,0.27 0.61,0.4 1,0.4 0.39,0 0.72,-0.13 1,-0.4 0.28,-0.27 0.42,-0.59 0.42,-0.96 0,-0.37 -0.14,-0.69 -0.42,-0.96 -0.28,-0.27 -0.61,-0.4 -1,-0.4 -0.39,0 -0.73,0.13 -1,0.4 m -2.8,-2.73 c -0.28,0.26 -0.42,0.57 -0.42,0.94 0,0.39 0.14,0.71 0.42,0.97 0.28,0.26 0.61,0.39 1,0.39 0.37,0 0.69,-0.13 0.97,-0.39 0.28,-0.26 0.42,-0.58 0.42,-0.97 0,-0.37 -0.14,-0.68 -0.42,-0.94 -0.28,-0.26 -0.6,-0.39 -0.97,-0.39 -0.39,0 -0.73,0.13 -1,0.39 m -5.55,-0.03 c -0.28,0.28 -0.42,0.61 -0.42,1 0,0.39 0.14,0.72 0.42,1 0.28,0.28 0.61,0.42 1,0.42 0.37,0 0.69,-0.14 0.97,-0.42 0.28,-0.28 0.42,-0.61 0.42,-1 0,-0.39 -0.14,-0.72 -0.42,-1 -0.28,-0.28 -0.6,-0.42 -0.97,-0.42 -0.39,0 -0.72,0.14 -1,0.42 m 2.81,-0.01 c -0.27,0.27 -0.4,0.59 -0.4,0.96 0,0.39 0.13,0.72 0.4,0.98 0.27,0.27 0.59,0.4 0.96,0.4 0.37,0 0.69,-0.13 0.96,-0.4 0.27,-0.27 0.4,-0.6 0.4,-0.98 0,-0.37 -0.13,-0.69 -0.4,-0.96 -0.27,-0.27 -0.59,-0.4 -0.96,-0.4 -0.37,-0.01 -0.69,0.13 -0.96,0.4" /><path
       inkscape:connector-curvature="0"
       id="SVGID_24_"
       d="m 324.4,555.54 c -0.28,0.26 -0.42,0.57 -0.42,0.94 0,0.39 0.14,0.71 0.42,0.97 0.28,0.26 0.61,0.39 1,0.39 0.37,0 0.69,-0.13 0.97,-0.39 0.28,-0.26 0.42,-0.58 0.42,-0.97 0,-0.37 -0.14,-0.68 -0.42,-0.94 -0.28,-0.26 -0.6,-0.39 -0.97,-0.39 -0.39,0 -0.72,0.13 -1,0.39 m 2.79,0 c -0.27,0.26 -0.4,0.57 -0.4,0.94 0,0.39 0.13,0.71 0.4,0.97 0.27,0.26 0.6,0.39 0.98,0.39 0.37,0 0.69,-0.13 0.96,-0.39 0.27,-0.26 0.4,-0.58 0.4,-0.97 0,-0.37 -0.13,-0.68 -0.4,-0.94 -0.27,-0.26 -0.59,-0.39 -0.96,-0.39 -0.39,0 -0.72,0.13 -0.98,0.39 m 2.75,-0.01 c -0.28,0.27 -0.42,0.59 -0.42,0.96 0,0.37 0.14,0.69 0.42,0.96 0.28,0.27 0.61,0.4 1,0.4 0.39,0 0.72,-0.13 1,-0.4 0.28,-0.27 0.42,-0.58 0.42,-0.96 0,-0.37 -0.14,-0.69 -0.42,-0.96 -0.28,-0.27 -0.61,-0.4 -1,-0.4 -0.39,0 -0.72,0.13 -1,0.4 m -8.34,-0.03 c -0.28,0.27 -0.42,0.59 -0.42,0.96 0,0.39 0.14,0.72 0.42,0.98 0.28,0.27 0.61,0.4 1,0.4 0.37,0 0.69,-0.13 0.97,-0.4 0.28,-0.27 0.42,-0.59 0.42,-0.98 0,-0.37 -0.14,-0.69 -0.42,-0.96 -0.28,-0.27 -0.6,-0.4 -0.97,-0.4 -0.39,0 -0.72,0.13 -1,0.4 m 0,-2.79 c -0.28,0.28 -0.42,0.6 -0.42,0.97 0,0.39 0.14,0.72 0.42,1 0.28,0.28 0.62,0.42 1.03,0.42 0.39,0 0.72,-0.14 1,-0.42 0.28,-0.28 0.42,-0.61 0.42,-1 0,-0.37 -0.14,-0.69 -0.42,-0.97 -0.28,-0.28 -0.61,-0.42 -1,-0.42 -0.41,0.01 -0.75,0.15 -1.03,0.42 m 0,-2.78 c -0.28,0.27 -0.42,0.6 -0.42,0.98 0,0.39 0.14,0.72 0.42,0.99 0.28,0.27 0.62,0.4 1.03,0.4 0.39,0 0.72,-0.14 1,-0.4 0.28,-0.27 0.42,-0.6 0.42,-0.99 0,-0.39 -0.14,-0.72 -0.42,-0.98 -0.28,-0.27 -0.61,-0.4 -1,-0.4 -0.41,-0.01 -0.75,0.13 -1.03,0.4 m 0,-2.79 c -0.28,0.28 -0.42,0.6 -0.42,0.97 0,0.39 0.14,0.72 0.42,1 0.28,0.28 0.62,0.42 1.03,0.42 0.41,0 0.75,-0.14 1.03,-0.42 0.28,-0.28 0.42,-0.61 0.42,-1 0,-0.37 -0.14,-0.69 -0.42,-0.97 -0.28,-0.28 -0.62,-0.42 -1.03,-0.42 -0.41,0 -0.75,0.14 -1.03,0.42 m 0,-2.69 c -0.28,0.26 -0.42,0.57 -0.42,0.94 0,0.37 0.14,0.68 0.42,0.94 0.28,0.26 0.62,0.39 1.03,0.39 0.41,0 0.75,-0.13 1.03,-0.39 0.28,-0.26 0.42,-0.57 0.42,-0.94 0,-0.37 -0.14,-0.68 -0.42,-0.94 -0.28,-0.26 -0.62,-0.39 -1.03,-0.39 -0.41,0 -0.75,0.13 -1.03,0.39 m 0,-2.77 c -0.28,0.28 -0.42,0.6 -0.42,0.97 0,0.39 0.14,0.72 0.42,1 0.28,0.28 0.62,0.42 1.03,0.42 0.39,0 0.72,-0.14 1,-0.42 0.28,-0.28 0.42,-0.61 0.42,-1 0,-0.37 -0.14,-0.69 -0.42,-0.97 -0.28,-0.28 -0.61,-0.42 -1,-0.42 -0.41,0 -0.75,0.14 -1.03,0.42 m 0,-2.76 c -0.28,0.27 -0.42,0.59 -0.42,0.96 0,0.39 0.14,0.72 0.42,0.98 0.28,0.27 0.62,0.4 1.03,0.4 0.39,0 0.72,-0.13 1,-0.4 0.28,-0.27 0.42,-0.6 0.42,-0.98 0,-0.37 -0.14,-0.69 -0.42,-0.96 -0.28,-0.27 -0.61,-0.4 -1,-0.4 -0.41,0 -0.75,0.13 -1.03,0.4" /><path
       inkscape:connector-curvature="0"
       id="SVGID_23_"
       d="m 343.78,555.54 c -0.28,0.26 -0.42,0.57 -0.42,0.94 0,0.39 0.14,0.71 0.42,0.97 0.28,0.26 0.61,0.39 1,0.39 0.37,0 0.69,-0.13 0.97,-0.39 0.28,-0.26 0.42,-0.58 0.42,-0.97 0,-0.37 -0.14,-0.68 -0.42,-0.94 -0.28,-0.26 -0.6,-0.39 -0.97,-0.39 -0.39,0 -0.72,0.13 -1,0.39 m -5.56,-0.01 c -0.27,0.27 -0.4,0.59 -0.4,0.96 0,0.37 0.13,0.69 0.4,0.96 0.27,0.27 0.6,0.4 0.98,0.4 0.37,0 0.69,-0.13 0.96,-0.4 0.27,-0.27 0.4,-0.58 0.4,-0.96 0,-0.37 -0.14,-0.69 -0.4,-0.96 -0.27,-0.27 -0.59,-0.4 -0.96,-0.4 -0.38,0 -0.71,0.13 -0.98,0.4 m 2.76,0 c -0.28,0.27 -0.42,0.59 -0.42,0.96 0,0.37 0.14,0.69 0.42,0.96 0.28,0.27 0.61,0.4 1,0.4 0.37,0 0.69,-0.13 0.97,-0.4 0.28,-0.27 0.42,-0.58 0.42,-0.96 0,-0.37 -0.14,-0.69 -0.42,-0.96 -0.28,-0.27 -0.6,-0.4 -0.97,-0.4 -0.39,0 -0.72,0.13 -1,0.4 m -5.52,-2.76 c -0.28,0.26 -0.42,0.56 -0.42,0.92 0,0.35 0.14,0.65 0.42,0.91 0.28,0.26 0.62,0.39 1.03,0.39 0.41,0 0.75,-0.13 1.03,-0.39 0.28,-0.26 0.42,-0.56 0.42,-0.91 0,-0.35 -0.14,-0.66 -0.42,-0.92 -0.28,-0.26 -0.62,-0.39 -1.03,-0.39 -0.41,0 -0.75,0.13 -1.03,0.39 m 8.32,0.01 c -0.28,0.27 -0.42,0.6 -0.42,0.98 0,0.39 0.14,0.72 0.42,0.99 0.28,0.27 0.61,0.4 1,0.4 0.39,0 0.72,-0.14 1,-0.4 0.28,-0.27 0.42,-0.6 0.42,-0.99 0,-0.39 -0.14,-0.72 -0.42,-0.98 -0.28,-0.27 -0.61,-0.4 -1,-0.4 -0.39,0 -0.72,0.13 -1,0.4 m -5.57,-2.73 c -0.28,0.26 -0.42,0.57 -0.42,0.94 0,0.37 0.14,0.68 0.42,0.94 0.28,0.26 0.61,0.39 1,0.39 0.39,0 0.72,-0.13 1,-0.39 0.28,-0.26 0.42,-0.57 0.42,-0.94 0,-0.37 -0.14,-0.68 -0.42,-0.94 -0.28,-0.26 -0.61,-0.39 -1,-0.39 -0.39,0 -0.73,0.13 -1,0.39 m 2.81,-0.01 c -0.27,0.25 -0.4,0.55 -0.4,0.9 0,0.37 0.13,0.68 0.4,0.93 0.27,0.25 0.59,0.37 0.96,0.37 0.37,0 0.69,-0.13 0.96,-0.37 0.27,-0.25 0.4,-0.56 0.4,-0.93 0,-0.35 -0.14,-0.65 -0.4,-0.9 -0.27,-0.25 -0.59,-0.37 -0.96,-0.37 -0.37,0 -0.69,0.12 -0.96,0.37 m 2.76,-0.1 c -0.28,0.28 -0.42,0.61 -0.42,1 0,0.41 0.14,0.75 0.42,1.02 0.28,0.28 0.62,0.42 1.03,0.42 0.39,0 0.72,-0.14 1,-0.42 0.28,-0.28 0.42,-0.62 0.42,-1.02 0,-0.39 -0.14,-0.72 -0.42,-1 -0.28,-0.28 -0.61,-0.42 -1,-0.42 -0.41,0 -0.75,0.14 -1.03,0.42 m 0.07,-2.79 c -0.27,0.27 -0.4,0.6 -0.4,0.98 0,0.39 0.13,0.72 0.4,0.99 0.27,0.27 0.6,0.4 0.98,0.4 0.39,0 0.72,-0.13 0.98,-0.4 0.27,-0.27 0.4,-0.6 0.4,-0.99 0,-0.39 -0.14,-0.72 -0.4,-0.98 -0.27,-0.27 -0.59,-0.4 -0.98,-0.4 -0.39,0 -0.71,0.14 -0.98,0.4 m -5.64,-2.71 c -0.28,0.27 -0.42,0.59 -0.42,0.96 0,0.37 0.14,0.69 0.42,0.96 0.28,0.27 0.61,0.4 1,0.4 0.39,0 0.72,-0.13 1,-0.4 0.28,-0.27 0.42,-0.59 0.42,-0.96 0,-0.37 -0.14,-0.69 -0.42,-0.96 -0.28,-0.27 -0.61,-0.4 -1,-0.4 -0.39,-0.01 -0.73,0.13 -1,0.4 m 2.82,0 c -0.28,0.27 -0.42,0.59 -0.42,0.96 0,0.37 0.14,0.69 0.42,0.96 0.28,0.27 0.62,0.4 1.03,0.4 0.41,0 0.75,-0.13 1.03,-0.4 0.28,-0.27 0.42,-0.59 0.42,-0.96 0,-0.37 -0.14,-0.69 -0.42,-0.96 -0.28,-0.27 -0.62,-0.4 -1.03,-0.4 -0.41,0 -0.75,0.13 -1.03,0.4" /><path
       inkscape:connector-curvature="0"
       id="SVGID_22_"
       d="m 349.32,555.53 c -0.28,0.27 -0.42,0.59 -0.42,0.96 0,0.37 0.14,0.69 0.42,0.96 0.28,0.27 0.62,0.4 1.03,0.4 0.39,0 0.72,-0.13 1,-0.4 0.28,-0.27 0.42,-0.58 0.42,-0.96 0,-0.37 -0.14,-0.69 -0.42,-0.96 -0.28,-0.27 -0.61,-0.4 -1,-0.4 -0.41,0 -0.75,0.13 -1.03,0.4 m 2.85,-0.06 c -0.27,0.27 -0.4,0.6 -0.4,0.98 0,0.39 0.14,0.72 0.4,0.98 0.27,0.27 0.59,0.4 0.98,0.4 0.37,0 0.69,-0.13 0.96,-0.4 0.27,-0.27 0.4,-0.59 0.4,-0.98 0,-0.39 -0.13,-0.72 -0.4,-0.98 -0.27,-0.27 -0.59,-0.4 -0.96,-0.4 -0.39,0 -0.72,0.13 -0.98,0.4 m 2.75,0 c -0.28,0.27 -0.42,0.6 -0.42,0.98 0,0.39 0.14,0.72 0.42,0.98 0.28,0.27 0.61,0.4 1,0.4 0.39,0 0.72,-0.13 1,-0.4 0.28,-0.27 0.42,-0.59 0.42,-0.98 0,-0.39 -0.14,-0.72 -0.42,-0.98 -0.28,-0.27 -0.61,-0.4 -1,-0.4 -0.39,0 -0.72,0.13 -1,0.4 m -5.6,-2.73 c -0.28,0.28 -0.42,0.6 -0.42,0.97 0,0.39 0.14,0.72 0.42,1 0.28,0.28 0.62,0.42 1.03,0.42 0.39,0 0.72,-0.14 1,-0.42 0.28,-0.28 0.42,-0.61 0.42,-1 0,-0.37 -0.14,-0.69 -0.42,-0.97 -0.28,-0.28 -0.61,-0.42 -1,-0.42 -0.41,0 -0.75,0.14 -1.03,0.42 m 8.35,0 c -0.28,0.28 -0.42,0.61 -0.42,1 0,0.41 0.14,0.75 0.42,1.03 0.28,0.28 0.62,0.42 1.03,0.42 0.41,0 0.75,-0.14 1.03,-0.42 0.28,-0.28 0.42,-0.62 0.42,-1.03 0,-0.39 -0.14,-0.72 -0.42,-1 -0.28,-0.28 -0.62,-0.42 -1.03,-0.42 -0.41,0 -0.75,0.14 -1.03,0.42 m -0.07,-2.66 c -0.29,0.26 -0.43,0.56 -0.43,0.91 0,0.37 0.14,0.68 0.43,0.94 0.29,0.26 0.64,0.39 1.07,0.39 0.41,0 0.75,-0.13 1.04,-0.39 0.29,-0.26 0.43,-0.57 0.43,-0.94 0,-0.35 -0.14,-0.66 -0.43,-0.91 -0.29,-0.26 -0.63,-0.39 -1.04,-0.39 -0.43,0 -0.78,0.13 -1.07,0.39 m -8.28,-0.14 c -0.28,0.28 -0.42,0.6 -0.42,0.97 0,0.39 0.14,0.72 0.42,1 0.28,0.28 0.62,0.42 1.03,0.42 0.39,0 0.72,-0.14 1,-0.42 0.28,-0.28 0.42,-0.61 0.42,-1 0,-0.37 -0.14,-0.69 -0.42,-0.97 -0.28,-0.28 -0.61,-0.42 -1,-0.42 -0.41,0 -0.75,0.14 -1.03,0.42 m 0,-2.73 c -0.28,0.27 -0.42,0.59 -0.42,0.96 0,0.37 0.14,0.69 0.42,0.96 0.28,0.27 0.62,0.4 1.03,0.4 0.39,0 0.72,-0.13 1,-0.4 0.28,-0.27 0.42,-0.59 0.42,-0.96 0,-0.37 -0.14,-0.69 -0.42,-0.96 -0.28,-0.27 -0.61,-0.4 -1,-0.4 -0.41,0 -0.75,0.13 -1.03,0.4 m 8.27,0.01 c -0.28,0.28 -0.42,0.62 -0.42,1.03 0,0.41 0.14,0.75 0.42,1.03 0.28,0.28 0.62,0.42 1.03,0.42 0.41,0 0.75,-0.14 1.03,-0.42 0.28,-0.28 0.42,-0.62 0.42,-1.03 0,-0.41 -0.14,-0.75 -0.42,-1.03 -0.28,-0.28 -0.62,-0.42 -1.03,-0.42 -0.42,0.01 -0.76,0.15 -1.03,0.42 m -5.48,-2.78 c -0.2,0.2 -0.33,0.43 -0.38,0.69 -0.06,-0.25 -0.19,-0.47 -0.39,-0.67 -0.28,-0.27 -0.61,-0.4 -1,-0.4 -0.41,0 -0.75,0.14 -1.03,0.4 -0.28,0.27 -0.42,0.59 -0.42,0.96 0,0.39 0.14,0.72 0.42,0.99 0.28,0.27 0.62,0.4 1.03,0.4 0.39,0 0.72,-0.13 1,-0.4 0.21,-0.2 0.34,-0.44 0.39,-0.72 0.05,0.25 0.18,0.47 0.37,0.66 0.27,0.27 0.6,0.4 0.98,0.4 0.39,0 0.72,-0.13 0.98,-0.4 0.27,-0.27 0.4,-0.59 0.4,-0.96 0,-0.37 -0.13,-0.69 -0.4,-0.96 -0.27,-0.27 -0.6,-0.4 -0.98,-0.4 -0.37,0 -0.7,0.14 -0.97,0.41 m 2.77,0.01 c -0.27,0.28 -0.4,0.61 -0.4,1 0,0.39 0.14,0.72 0.4,1 0.27,0.28 0.59,0.42 0.96,0.42 0.37,0 0.69,-0.14 0.96,-0.42 0.27,-0.28 0.4,-0.61 0.4,-1 0,-0.39 -0.13,-0.72 -0.4,-1 -0.27,-0.28 -0.59,-0.42 -0.96,-0.42 -0.37,0 -0.69,0.14 -0.96,0.42 m -5.56,-2.8 c -0.28,0.28 -0.42,0.61 -0.42,1 0,0.39 0.14,0.72 0.42,1 0.28,0.28 0.62,0.42 1.03,0.42 0.39,0 0.72,-0.14 1,-0.42 0.28,-0.28 0.42,-0.61 0.42,-1 0,-0.39 -0.14,-0.72 -0.42,-1 -0.28,-0.28 -0.61,-0.42 -1,-0.42 -0.41,0 -0.75,0.14 -1.03,0.42 m 0,-2.73 c -0.28,0.27 -0.42,0.59 -0.42,0.96 0,0.37 0.14,0.69 0.42,0.96 0.28,0.27 0.62,0.4 1.03,0.4 0.39,0 0.72,-0.13 1,-0.4 0.28,-0.27 0.42,-0.59 0.42,-0.96 0,-0.37 -0.14,-0.69 -0.42,-0.96 -0.28,-0.27 -0.61,-0.4 -1,-0.4 -0.41,0 -0.75,0.13 -1.03,0.4" /><path
       inkscape:connector-curvature="0"
       id="SVGID_21_"
       d="m 365.99,555.62 c -0.28,0.26 -0.42,0.56 -0.42,0.91 0,0.35 0.14,0.66 0.42,0.91 0.28,0.26 0.61,0.39 1,0.39 0.39,0 0.72,-0.13 1,-0.39 0.28,-0.26 0.42,-0.56 0.42,-0.91 0,-0.35 -0.14,-0.66 -0.42,-0.91 -0.28,-0.26 -0.61,-0.39 -1,-0.39 -0.39,0.01 -0.73,0.14 -1,0.39 m 2.81,-0.08 c -0.27,0.26 -0.4,0.57 -0.4,0.94 0,0.39 0.13,0.71 0.4,0.97 0.27,0.26 0.6,0.39 0.98,0.39 0.39,0 0.72,-0.13 0.99,-0.39 0.27,-0.26 0.4,-0.58 0.4,-0.97 0,-0.37 -0.14,-0.68 -0.4,-0.94 -0.27,-0.26 -0.6,-0.39 -0.99,-0.39 -0.38,0 -0.71,0.13 -0.98,0.39 m -5.61,-2.74 c -0.28,0.26 -0.42,0.57 -0.42,0.94 0,0.39 0.14,0.71 0.42,0.97 0.28,0.26 0.61,0.39 1,0.39 0.39,0 0.72,-0.13 1,-0.39 0.28,-0.26 0.42,-0.58 0.42,-0.97 0,-0.37 -0.14,-0.68 -0.42,-0.94 -0.28,-0.26 -0.61,-0.39 -1,-0.39 -0.39,0 -0.73,0.13 -1,0.39 m 0,-2.76 c -0.28,0.27 -0.42,0.59 -0.42,0.96 0,0.37 0.14,0.69 0.42,0.96 0.28,0.27 0.61,0.4 1,0.4 0.37,0 0.69,-0.14 0.97,-0.4 0.28,-0.27 0.42,-0.58 0.42,-0.96 0,-0.37 -0.14,-0.69 -0.42,-0.96 -0.28,-0.27 -0.6,-0.4 -0.97,-0.4 -0.39,0 -0.73,0.13 -1,0.4 m 2.78,-0.03 c -0.27,0.27 -0.4,0.59 -0.4,0.96 0,0.39 0.13,0.72 0.4,0.98 0.27,0.27 0.6,0.4 0.98,0.4 0.37,0 0.69,-0.14 0.96,-0.4 0.27,-0.27 0.4,-0.59 0.4,-0.98 0,-0.37 -0.13,-0.69 -0.4,-0.96 -0.27,-0.27 -0.59,-0.4 -0.96,-0.4 -0.38,0 -0.71,0.13 -0.98,0.4 m 2.76,0 c -0.28,0.27 -0.42,0.59 -0.42,0.96 0,0.37 0.14,0.69 0.42,0.96 0.28,0.27 0.61,0.4 1,0.4 0.37,0 0.69,-0.13 0.97,-0.4 0.28,-0.27 0.42,-0.59 0.42,-0.96 0,-0.37 -0.14,-0.69 -0.42,-0.96 -0.28,-0.27 -0.6,-0.4 -0.97,-0.4 -0.39,0 -0.72,0.13 -1,0.4 m 2.8,0 c -0.28,0.27 -0.42,0.59 -0.42,0.96 0,0.37 0.14,0.69 0.42,0.96 0.28,0.27 0.61,0.4 1,0.4 0.39,0 0.72,-0.13 1,-0.4 0.28,-0.27 0.42,-0.59 0.42,-0.96 0,-0.37 -0.14,-0.69 -0.42,-0.96 -0.28,-0.27 -0.61,-0.4 -1,-0.4 -0.39,0 -0.72,0.13 -1,0.4 m -8.34,-2.82 c -0.28,0.28 -0.42,0.61 -0.42,1 0,0.41 0.14,0.75 0.42,1.03 0.28,0.28 0.61,0.42 1,0.42 0.37,0 0.69,-0.14 0.97,-0.42 0.28,-0.28 0.42,-0.62 0.42,-1.03 0,-0.39 -0.14,-0.72 -0.42,-1 -0.28,-0.28 -0.6,-0.42 -0.97,-0.42 -0.39,0.01 -0.73,0.15 -1,0.42 m 8.34,-0.05 c -0.28,0.28 -0.42,0.62 -0.42,1.03 0,0.41 0.14,0.75 0.42,1.03 0.28,0.28 0.61,0.42 1,0.42 0.39,0 0.72,-0.14 1,-0.42 0.28,-0.28 0.42,-0.62 0.42,-1.03 0,-0.41 -0.14,-0.75 -0.42,-1.03 -0.28,-0.28 -0.61,-0.42 -1,-0.42 -0.39,0 -0.72,0.14 -1,0.42 m -5.6,-2.65 c -0.28,0.27 -0.42,0.59 -0.42,0.96 0,0.37 0.14,0.69 0.42,0.96 0.28,0.27 0.61,0.4 1,0.4 0.39,0 0.72,-0.13 1,-0.4 0.28,-0.27 0.42,-0.59 0.42,-0.96 0,-0.37 -0.14,-0.69 -0.42,-0.96 -0.28,-0.27 -0.61,-0.4 -1,-0.4 -0.39,0 -0.72,0.13 -1,0.4 m 2.81,-0.09 c -0.27,0.28 -0.4,0.61 -0.4,1 0,0.39 0.13,0.72 0.4,1 0.27,0.28 0.6,0.42 0.99,0.42 0.37,0 0.69,-0.14 0.96,-0.42 0.27,-0.28 0.4,-0.61 0.4,-1 0,-0.39 -0.14,-0.72 -0.4,-1 -0.27,-0.28 -0.59,-0.42 -0.96,-0.42 -0.39,0 -0.72,0.14 -0.99,0.42" /><path
       inkscape:connector-curvature="0"
       id="SVGID_20_"
       d="m 377.05,555.57 c -0.28,0.26 -0.42,0.57 -0.42,0.94 0,0.37 0.14,0.68 0.42,0.94 0.28,0.26 0.61,0.39 1,0.39 0.37,0 0.69,-0.13 0.97,-0.39 0.28,-0.26 0.42,-0.57 0.42,-0.94 0,-0.37 -0.14,-0.68 -0.42,-0.94 -0.28,-0.26 -0.6,-0.39 -0.97,-0.39 -0.39,0 -0.72,0.13 -1,0.39 m 2.79,-0.04 c -0.27,0.27 -0.4,0.59 -0.4,0.96 0,0.37 0.14,0.69 0.4,0.96 0.27,0.27 0.6,0.4 0.98,0.4 0.38,0 0.72,-0.13 0.98,-0.4 0.27,-0.27 0.4,-0.58 0.4,-0.96 0,-0.37 -0.13,-0.69 -0.4,-0.96 -0.27,-0.27 -0.6,-0.4 -0.98,-0.4 -0.38,0 -0.72,0.13 -0.98,0.4 m 2.78,0 c -0.28,0.27 -0.42,0.59 -0.42,0.96 0,0.37 0.14,0.69 0.42,0.96 0.28,0.27 0.61,0.4 1,0.4 0.39,0 0.72,-0.13 1,-0.4 0.28,-0.27 0.42,-0.58 0.42,-0.96 0,-0.37 -0.14,-0.69 -0.42,-0.96 -0.28,-0.27 -0.61,-0.4 -1,-0.4 -0.39,0 -0.72,0.13 -1,0.4 m -2.77,-2.78 c -0.28,0.27 -0.42,0.6 -0.42,0.98 0,0.39 0.14,0.72 0.42,0.99 0.28,0.27 0.62,0.4 1.03,0.4 0.39,0 0.72,-0.13 1,-0.4 0.28,-0.27 0.42,-0.6 0.42,-0.99 0,-0.39 -0.14,-0.72 -0.42,-0.98 -0.28,-0.27 -0.61,-0.4 -1,-0.4 -0.41,0 -0.75,0.14 -1.03,0.4 m -0.04,-2.78 c -0.29,0.28 -0.43,0.6 -0.43,0.97 0,0.39 0.14,0.72 0.43,1 0.29,0.28 0.63,0.42 1.04,0.42 0.39,0 0.73,-0.14 1.01,-0.42 0.29,-0.28 0.43,-0.61 0.43,-1 0,-0.37 -0.14,-0.69 -0.43,-0.97 -0.29,-0.28 -0.62,-0.42 -1.01,-0.42 -0.41,0 -0.76,0.14 -1.04,0.42 m -0.02,-2.76 c -0.28,0.27 -0.42,0.59 -0.42,0.96 0,0.39 0.14,0.72 0.42,0.98 0.28,0.27 0.61,0.4 1,0.4 0.39,0 0.72,-0.13 1,-0.4 0.28,-0.27 0.42,-0.6 0.42,-0.98 0,-0.37 -0.14,-0.69 -0.42,-0.96 -0.28,-0.27 -0.61,-0.4 -1,-0.4 -0.39,0 -0.72,0.13 -1,0.4 m 0.03,-2.79 c -0.28,0.28 -0.42,0.6 -0.42,0.97 0,0.39 0.14,0.72 0.42,1 0.28,0.28 0.61,0.42 1,0.42 0.37,0 0.69,-0.14 0.97,-0.42 0.28,-0.28 0.42,-0.61 0.42,-1 0,-0.37 -0.14,-0.69 -0.42,-0.97 -0.28,-0.28 -0.6,-0.42 -0.97,-0.42 -0.39,0.01 -0.72,0.15 -1,0.42 m 0,-2.73 c -0.28,0.27 -0.42,0.59 -0.42,0.96 0,0.37 0.14,0.69 0.42,0.96 0.28,0.27 0.61,0.4 1,0.4 0.37,0 0.69,-0.13 0.97,-0.4 0.28,-0.27 0.42,-0.59 0.42,-0.96 0,-0.37 -0.14,-0.69 -0.42,-0.96 -0.28,-0.27 -0.6,-0.4 -0.97,-0.4 -0.39,0 -0.72,0.13 -1,0.4 m -2.77,-2.78 c -0.28,0.26 -0.42,0.56 -0.42,0.91 0,0.37 0.14,0.68 0.42,0.94 0.28,0.26 0.61,0.39 1,0.39 0.39,0 0.72,-0.13 1,-0.39 0.28,-0.26 0.42,-0.57 0.42,-0.94 0,-0.35 -0.14,-0.66 -0.42,-0.91 -0.28,-0.26 -0.61,-0.39 -1,-0.39 -0.39,0 -0.72,0.13 -1,0.39 m 2.83,0 c -0.28,0.26 -0.42,0.56 -0.42,0.91 0,0.37 0.14,0.68 0.42,0.94 0.28,0.26 0.61,0.39 1,0.39 0.37,0 0.69,-0.13 0.97,-0.39 0.28,-0.26 0.42,-0.57 0.42,-0.94 0,-0.35 -0.14,-0.66 -0.42,-0.91 -0.28,-0.26 -0.6,-0.39 -0.97,-0.39 -0.39,0 -0.73,0.13 -1,0.39" /></defs><sodipodi:namedview
     id="base"
     pagecolor="#ffffff"
     bordercolor="#666666"
     borderopacity="1.0"
     inkscape:pageopacity="0"
     inkscape:pageshadow="2"
     inkscape:zoom="1.3062462"
     inkscape:cx="70.048051"
     inkscape:cy="96.842388"
     inkscape:document-units="mm"
     inkscape:current-layer="layer1"
     showgrid="false"
     inkscape:window-width="1553"
     inkscape:window-height="911"
     inkscape:window-x="73"
     inkscape:window-y="112"
     inkscape:window-maximized="0"
     inkscape:showpageshadow="2"
     inkscape:pagecheckerboard="0"
     inkscape:deskcolor="#ffffff" /><metadata
     id="metadata5"><rdf:RDF><cc:Work
         rdf:about=""><dc:format>image/svg+xml</dc:format><dc:type
           rdf:resource="http://purl.org/dc/dcmitype/StillImage" /></cc:Work></rdf:RDF></metadata><g
     inkscape:label="Layer 1"
     inkscape:groupmode="layer"
     id="layer1"
     transform="translate(0,-87)"><g
       transform="matrix(0.98332597,0,0,0.98332597,-267.79031,14.586814)"
       id="layer1-0"
       inkscape:label="Layer 1"
       style="fill:#000000;fill-opacity:1"><flowRoot
         transform="matrix(0.26458333,0,0,0.26458333,0,81)"
         style="font-style:normal;font-weight:normal;font-size:40px;line-height:1.25;font-family:sans-serif;letter-spacing:0px;word-spacing:0px;fill:#000000;fill-opacity:1;stroke:none"
         id="flowRoot1148"
         xml:space="preserve"><flowRegion
           id="flowRegion1150"
           style="fill:#000000;fill-opacity:1"><rect
             y="577.09222"
             x="1027.1428"
             height="169.28572"
             width="495"
             id="rect1152"
             style="fill:#000000;fill-opacity:1" /></flowRegion><flowPara
           id="flowPara1154" /></flowRoot><g
         transform="translate(-0.52916667)"
         id="g5165"
         style="fill:#000000;fill-opacity:1"><path
           style="fill:#000000;fill-opacity:1;stroke-width:0.192222"
           d="m 282.6371,151.99569 c -5.07185,-1.1005 -8.91531,-5.50512 -9.35416,-10.71984 l -0.1165,-1.38226 0.28474,-1.57875 0.28475,-1.57875 0.67691,-1.4007 c 1.54366,-3.19428 4.66193,-5.72821 8.0067,-6.50626 l 1.05724,-0.24596 1.72998,0.0104 1.73,0.0104 1.24943,0.32699 c 0.6872,0.17976 1.85297,0.64338 2.5906,1.03007 l 1.34113,0.70316 1.35128,1.35128 1.35128,1.35128 0.70228,1.34113 c 0.38626,0.73765 0.85653,1.86016 1.04503,2.4945 l 0.34276,1.15332 0.006,1.92223 0.006,1.92219 -0.258,1.05724 c -0.14177,0.58148 -0.54544,1.66271 -0.89681,2.40276 l -0.63885,1.34556 -0.97631,1.09056 c -1.15469,1.28985 -2.41347,2.24671 -3.97431,3.02115 l -1.1357,0.56345 -1.47887,0.30546 c -1.76984,0.36559 -3.2748,0.36841 -4.92993,0.008 z m 4.94734,-2.09747 c 0.56757,-0.15116 1.51774,-0.51764 2.1115,-0.81465 l 1.07952,-0.54001 1.25669,-1.24943 1.25668,-1.24943 0.518,-0.9755 c 0.28489,-0.53652 0.65059,-1.48459 0.81265,-2.1068 l 0.29466,-1.13123 v -1.29572 c 0,-1.7348 -0.30126,-3.08126 -1.02072,-4.56213 l -0.59718,-1.22916 -1.17825,-1.19579 -1.17826,-1.19577 -1.42473,-0.69888 -1.42473,-0.69892 -1.0354,-0.19188 c -2.25855,-0.41878 -4.60286,-0.0649 -6.59153,0.99507 l -1.12714,0.60074 -1.19741,1.27428 c -1.37549,1.46377 -2.11692,2.73387 -2.53663,4.34518 l -0.29466,1.13128 v 1.19959 c 0,1.7102 0.32521,3.04215 1.11144,4.55213 l 0.68487,1.31526 1.09576,1.09576 1.09577,1.09576 1.22579,0.65416 c 1.53305,0.81811 2.74713,1.11883 4.58969,1.13681 l 1.44166,0.0146 1.03196,-0.27466 z m -4.39583,-3.28388 -0.86499,-0.26859 -0.72641,-0.60164 c -0.76519,-0.63371 -1.44812,-1.77721 -1.68601,-2.82303 l -0.14198,-0.62473 h 1.39227 1.39226 l 0.29433,0.7493 0.29433,0.74925 0.51069,0.33463 0.51072,0.33465 1.00218,0.0104 1.00217,0.0104 0.53967,-0.35669 c 0.29686,-0.19626 0.72871,-0.71113 0.95974,-1.14428 l 0.42004,-0.7876 10e-4,-1.73 0.001,-1.72999 -0.39761,-0.76887 -0.39764,-0.7689 -0.65959,-0.3477 -0.6596,-0.34769 -0.93735,0.10126 -0.93738,0.10126 -0.47228,0.30947 c -0.38901,0.25489 -1.01686,1.3138 -1.01686,1.71503 0,0.0564 0.19355,0.1023 0.43042,0.1023 h 0.43041 l -1.10321,1.10322 -1.10318,1.10318 -1.10317,-1.10318 -1.10322,-1.10322 0.38238,-2.5e-4 0.38235,-2.7e-4 0.34277,-1.16646 0.34279,-1.16646 0.86127,-0.83703 0.86125,-0.83703 0.98327,-0.32661 0.98324,-0.32656 1.3688,0.0898 1.36882,0.0898 0.97842,0.49824 0.9784,0.49823 0.63518,0.72341 c 0.34932,0.39786 0.8173,1.11706 1.03991,1.59817 l 0.40476,0.87478 v 2.01831 2.01836 l -0.51799,0.98176 -0.51798,0.98181 -0.95351,0.85729 -0.9535,0.85726 -1.00143,0.32343 -1.00141,0.32344 -0.98709,-0.0146 c -0.54289,-0.006 -1.37633,-0.13425 -1.85208,-0.28199 z"
           id="path390" /></g></g><path
       style="fill:#000000;fill-opacity:1;stroke-width:0.221393"
       d="m 10.456164,111.24596 c -0.0844,-0.0844 -0.5997603,-0.23683 -1.1452706,-0.33874 -3.93444,-0.73504 -7.53043,-4.39867 -8.63853003,-8.80101 -0.62651003,-2.48909 -0.31314003,-4.74914 1.04893003,-7.56482 0.86088,-1.77961 3.32623,-4.32885 4.90799,-5.075 1.40978,-0.66501 4.0968206,-1.34539 5.3134106,-1.34539 1.21983,0 3.90727,0.68153 5.31343,1.34748 1.4649,0.69376 4.0967,3.31293 4.87492,4.85153 0.73038,1.44398 1.43477,4.10695 1.43477,5.42411 0,1.21659 -0.68038,3.90365 -1.34539,5.31343 -1.16111,2.46143 -4.76866,5.23034 -7.69105,5.90308 -1.33107,0.30641 -3.87398,0.48455 -4.07321,0.28533 z m 4.66329,-2.45573 c 2.62334,-0.93172 5.07299,-3.32178 5.90246,-5.75886 0.32878,-0.96596 0.43787,-1.85686 0.42967,-3.50865 -0.0104,-2.04838 -0.0668,-2.3298 -0.75721,-3.76368 -0.97816,-2.03142 -2.72801,-3.78326 -4.7666,-4.77202 -1.47446,-0.71512 -1.66809,-0.75166 -3.98508,-0.75166 -2.2821403,0 -2.5258403,0.044 -3.8743806,0.69963 -1.81046,0.88019 -3.06242,1.94737 -4.03287,3.43764 -1.25112,1.92133 -1.61264,3.12545 -1.61264,5.37149 0,2.83551 0.78074,4.71709 2.79177,6.72812 1.44014,1.44014 3.19774,2.39812 5.0676706,2.76217 1.04039,0.20252 3.70535,-0.0422 4.83721,-0.44418 z m -7.9209706,-6.00231 c -1.10126,-0.56153 -1.62429,-1.39784 -1.7248,-2.75788 -0.10607,-1.43563 0.37707,-2.48617 1.48768,-3.23455 0.64693,-0.43593 0.98558,-0.5074 2.05084,-0.43286 2.0098606,0.14072 3.2496906,1.33171 1.8855906,1.81145 -0.46771,0.16452 -0.69403,0.12861 -1.0137103,-0.16077 C 9.2778434,97.4647 8.1493634,97.53134 7.7563234,98.139 c -0.73784,1.14074 -0.61089,2.70871 0.27779,3.43158 0.46863,0.38119 1.6921903,0.34778 2.0267506,-0.0553 0.31145,-0.37527 0.84065,-0.42373 1.31954,-0.12089 0.27556,0.17434 0.25924,0.27636 -0.11065,0.69136 -0.9578,1.07449 -2.7386606,1.38162 -4.0712306,0.70214 z m 6.7137706,0.0714 c -1.14029,-0.4964 -1.63758,-1.41968 -1.63665,-3.03862 8.4e-4,-1.72435 0.53148,-2.71891 1.71351,-3.2128 1.03745,-0.43348 2.76198,-0.2895 3.54629,0.29609 0.7953,0.59375 0.84776,0.90825 0.20085,1.20303 -0.44275,0.20169 -0.65154,0.18061 -1.06292,-0.10752 -1.37318,-0.96183 -2.74679,0.0603 -2.57068,1.91294 0.0551,0.58062 0.27921,1.2517 0.49886,1.4944 0.4848,0.53569 1.58232,0.57805 2.1302,0.0823 0.41566,-0.37617 1.52075,-0.27359 1.52075,0.14114 0,0.33241 -0.83674,1.09516 -1.46229,1.33299 -0.78043,0.29671 -2.06398,0.25038 -2.87783,-0.10398 z"
       id="path1167"
       inkscape:connector-curvature="0"
       sodipodi:nodetypes="sssssssssssssscsssssssssssssscsssssssscsssssssssss" /><g
       id="g1763"
       transform="matrix(0.2267093,0,0,0.2267093,-31.472356,103.70211)"><path
         d="m 179.64657,149.02151 c -19.12685,-5.3611 -32.52724,-19.15579 -37.39518,-38.49562 -2.74075,-10.888638 -1.35067,-21.030318 4.52024,-32.976984 3.80668,-7.746091 14.59335,-18.868121 21.44741,-22.11411 6.12985,-2.903046 17.84509,-5.87401 23.1626,-5.87401 5.29649,0 17.00903,2.96351 23.16251,5.860453 6.31556,2.973317 18.67187,15.32967 21.6451,21.645097 2.89707,6.153525 5.86054,17.866106 5.86054,23.162594 0,5.30343 -2.96604,17.01701 -5.86499,23.16264 -3.25257,6.89517 -14.36545,17.64226 -22.12322,21.39505 -12.52519,6.05906 -23.21413,7.37443 -34.41501,4.23489 z m 25.72911,-9.34555 c 10.86984,-4.29565 19.81364,-12.49702 24.41806,-22.39105 2.7741,-5.96093 2.99842,-7.22913 3.01791,-17.05598 0.0175,-10.120968 -0.13208,-10.931308 -3.25554,-17.371977 -4.2977,-8.860753 -11.94169,-16.504751 -20.80258,-20.802453 -6.42746,-3.117391 -7.27154,-3.276678 -17.37189,-3.276678 -10.09251,0 -10.94949,0.161293 -17.37198,3.269136 -8.63015,4.17608 -16.25,11.848631 -20.69836,20.84112 -3.13714,6.341934 -3.32934,7.301534 -3.37785,16.858284 -0.0545,10.318968 0.16914,11.237418 5.08659,21.098578 1.97243,3.95528 9.90048,12.11341 14.58546,15.00866 3.21377,1.98612 9.61783,4.60912 14.05524,5.75683 3.77372,0.97616 17.42804,-0.2402 21.71494,-1.93447 z m -20.54949,-7.7198 c -0.37577,-0.37577 -0.68262,-5.83303 -0.68262,-12.12754 V 108.3841 l -2.89528,-0.57887 -2.89533,-0.57887 V 96.923792 c 0,-6.72629 0.40236,-10.704502 1.15808,-11.460571 1.59287,-1.592959 22.14881,-1.592959 23.74168,0 0.75633,0.756331 1.15816,4.734281 1.15816,11.460571 v 10.302568 l -2.86538,0.57338 -2.86538,0.57342 -0.27115,11.85268 -0.27114,11.85264 -6.31403,0.28117 c -3.47285,0.15475 -6.62145,-0.0262 -6.99704,-0.40236 z m 2.21245,-52.476976 c -2.70466,-2.704656 -2.58931,-8.114928 0.21491,-10.078947 2.92563,-2.049242 6.15732,-1.886032 8.47121,0.427643 3.98571,3.985667 1.13738,11.581234 -4.34299,11.581234 -1.327,0 -3.28143,-0.868277 -4.34304,-1.930148 z"
         style="fill:#000000;fill-opacity:1;stroke-width:0.221393"
         id="path1192" /></g></g><style
     type="text/css"
     id="style4200">
	.st0{fill:#7F00FF;}
	.st1{fill:url(#path4517_1_);}
	.st2{fill:url(#path4541_1_);}
	.st3{fill:url(#path4567_1_);}
	.st4{fill:url(#path4589_1_);}
	.st5{fill:url(#path4611_1_);}
	.st6{fill:url(#path4633_1_);}
	.st7{fill:url(#path4655_1_);}
	.st8{fill:url(#path4677_1_);}
	.st9{fill:url(#path4699_1_);}
	.st10{fill:url(#path4721_1_);}
	.st11{fill:#FFFFFF;stroke:#231F20;stroke-miterlimit:10;}
	.st12{clip-path:url(#SVGID_1_);fill:url(#SVGID_2_);}
	.st13{clip-path:url(#SVGID_3_);fill:url(#SVGID_4_);}
	.st14{clip-path:url(#SVGID_5_);}
	.st15{clip-path:url(#SVGID_6_);fill:url(#SVGID_7_);}
	.st16{clip-path:url(#SVGID_8_);fill:url(#SVGID_9_);}
	.st17{clip-path:url(#SVGID_10_);fill:url(#SVGID_11_);}
	.st18{clip-path:url(#SVGID_12_);fill:url(#SVGID_13_);}
	.st19{clip-path:url(#SVGID_14_);fill:url(#SVGID_15_);}
	.st20{clip-path:url(#SVGID_16_);fill:url(#SVGID_17_);}
	.st21{clip-path:url(#SVGID_18_);fill:url(#SVGID_19_);}
	.st22{clip-path:url(#SVGID_39_);fill:url(#SVGID_40_);}
	.st23{clip-path:url(#SVGID_41_);fill:url(#SVGID_42_);}
	.st24{clip-path:url(#SVGID_43_);fill:url(#SVGID_44_);}
	.st25{clip-path:url(#SVGID_45_);fill:url(#SVGID_46_);}
	.st26{clip-path:url(#SVGID_47_);fill:url(#SVGID_48_);}
	.st27{clip-path:url(#SVGID_49_);fill:url(#SVGID_50_);}
	.st28{clip-path:url(#SVGID_51_);fill:url(#SVGID_52_);}
	.st29{clip-path:url(#SVGID_53_);fill:url(#SVGID_54_);}
	.st30{clip-path:url(#SVGID_55_);fill:url(#SVGID_56_);}
</style></svg>
