<?xml version="1.0" encoding="UTF-8" standalone="no"?>
<!-- Created with Inkscape (http://www.inkscape.org/) -->

<svg
   width="80mm"
   height="24mm"
   viewBox="0 0 80 24"
   version="1.1"
   id="svg8"
   inkscape:version="1.2 (dc2aeda, 2022-05-15)"
   sodipodi:docname="cc-by-sa-4.0-horizontal_black.svg"
   inkscape:export-filename="/Users/drewpotter/Desktop/Projects/dinarly-reborn/pottercorp-overlay/pottercorp_overlay.png"
   inkscape:export-xdpi="300"
   inkscape:export-ydpi="300"
   xml:space="preserve"
   xmlns:inkscape="http://www.inkscape.org/namespaces/inkscape"
   xmlns:sodipodi="http://sodipodi.sourceforge.net/DTD/sodipodi-0.dtd"
   xmlns="http://www.w3.org/2000/svg"
   xmlns:svg="http://www.w3.org/2000/svg"
   xmlns:rdf="http://www.w3.org/1999/02/22-rdf-syntax-ns#"
   xmlns:cc="http://creativecommons.org/ns#"
   xmlns:dc="http://purl.org/dc/elements/1.1/"><defs
     id="defs2"><path
       inkscape:connector-curvature="0"
       id="SVGID_38_"
       d="m 198.96,428.44 c 3.34,8.98 9.97,16.39 17.75,21.82 11.22,7.9 24.24,12.57 36.9,17.58 0.49,0.21 0.95,0.49 1.41,0.77 -0.68,-0.05 -1.35,-0.11 -2.01,-0.29 -7.27,-1.82 -14.69,-3.02 -21.94,-4.97 -7.37,-1.96 -14.7,-4.61 -20.93,-9.11 -3.57,-2.55 -6.65,-5.75 -9.14,-9.36 1.15,6.12 3.83,12.01 7.87,16.77 4.88,5.75 11.83,9.37 19,11.41 9.35,2.66 19.12,3.31 28.77,3.98 -1.8,0.7 -3.73,0.6 -5.61,0.76 -7.92,0.67 -15.94,1.54 -23.86,0.41 -5.72,-0.77 -11.33,-2.91 -15.8,-6.61 3.34,5.94 8.44,11.13 15,13.35 8.82,3.11 18.35,1.52 27.26,-0.29 1.82,-0.28 3.6,-1.11 5.47,-0.81 -7.53,2.83 -14.94,6.42 -23.03,7.33 -4.08,0.48 -8.24,0.04 -12.09,-1.38 4.55,4.72 11.33,7.38 17.88,6.49 7.74,-0.92 14.57,-4.96 21.28,-8.61 1.72,-0.86 3.32,-2.03 5.21,-2.52 -0.42,0.4 -0.84,0.79 -1.3,1.14 -5.3,3.87 -9.77,8.87 -15.62,11.99 -2.95,1.61 -6.27,2.56 -9.65,2.5 4.07,2.34 9.35,2.29 13.57,0.25 5.63,-2.66 9.68,-7.58 13.78,-12.09 2.35,-2.44 4.67,-5.28 8.09,-6.18 0.82,-0.22 -0.09,-2.59 -1.14,-4.85 -0.9,-1.93 -1.91,-3.77 -2.06,-4.14 -1.93,-4.71 -6.81,-8.24 -10.75,-11.21 -4.51,-3.39 -9.36,-6.3 -14.27,-9.07 -8.43,-4.75 -17.08,-9.14 -25.19,-14.44 -6.93,-4.54 -13.55,-9.77 -18.73,-16.3 -3.91,-4.9 -6.98,-10.52 -8.67,-16.57 -0.93,7.45 -0.07,15.18 2.55,22.25" /><path
       inkscape:connector-curvature="0"
       id="SVGID_37_"
       d="m 375.42,438.95 c -7.22,4.96 -14.69,9.8 -23.09,12.54 -5.27,1.81 -10.98,2.85 -15.52,6.29 -6.18,4.58 -9.75,11.57 -13.97,17.8 -0.98,1.28 -1.57,2.91 -2.84,3.95 -0.03,-0.05 -0.06,-0.1 -0.09,-0.14 -0.72,1.66 -1.58,3.3 -2.6,4.78 0.39,0.5 0.65,1.2 1.33,1.33 1.92,0.57 3.48,1.87 4.9,3.24 3.93,3.84 7.21,8.35 11.56,11.76 2.67,2.15 5.77,3.91 9.2,4.44 3.31,0.58 6.69,-0.28 9.73,-1.58 -2.64,0.02 -5.29,-0.36 -7.73,-1.39 -7.19,-2.94 -12.33,-9.02 -18.5,-13.5 l -0.29,-0.67 c 8.12,3.96 15.77,9.45 24.88,10.9 6.89,1.29 14.17,-1.36 19,-6.33 -3.76,1.38 -7.83,1.85 -11.81,1.42 -8.2,-0.87 -15.73,-4.48 -23.34,-7.4 1.38,-0.21 2.72,0.26 4.05,0.54 5.2,1.12 10.44,2.07 15.76,2.34 6.4,0.24 13.09,-0.88 18.47,-4.52 3.94,-2.57 6.93,-6.32 9.31,-10.33 -5.34,4.07 -11.91,6.27 -18.58,6.71 -8.89,0.64 -17.77,-0.52 -26.61,-1.25 4.39,-0.78 8.88,-0.78 13.31,-1.37 9.97,-1.13 20.33,-3.07 28.69,-8.98 7.34,-5.1 12.05,-13.39 13.72,-22.07 -3.39,4.94 -7.96,9.02 -13.19,11.94 -10.98,6.19 -23.64,8.04 -35.76,10.77 -1.69,0.34 -3.33,0.96 -5.06,1.03 0.44,-0.27 0.88,-0.54 1.35,-0.75 11.77,-4.67 23.81,-9.02 34.49,-15.94 7.98,-5.15 15.1,-12.06 19.07,-20.8 3.54,-7.75 4.68,-16.53 3.67,-24.95 -3.51,12.67 -12.93,22.79 -23.51,30.19" /><rect
       id="SVGID_36_"
       x="251.38"
       y="428.25"
       width="99.220001"
       height="98.199997" /><path
       inkscape:connector-curvature="0"
       id="SVGID_35_"
       d="m 277.31,530.61 c -0.27,0.26 -0.4,0.57 -0.4,0.94 0,0.39 0.13,0.71 0.4,0.97 0.27,0.26 0.6,0.39 0.99,0.39 0.37,0 0.69,-0.13 0.96,-0.39 0.27,-0.26 0.4,-0.58 0.4,-0.97 0,-0.37 -0.14,-0.68 -0.4,-0.94 -0.27,-0.26 -0.59,-0.39 -0.96,-0.39 -0.4,0 -0.72,0.13 -0.99,0.39 m -2.79,-0.02 c -0.28,0.27 -0.42,0.59 -0.42,0.96 0,0.37 0.14,0.69 0.42,0.96 0.28,0.27 0.61,0.4 1,0.4 0.37,0 0.69,-0.14 0.97,-0.4 0.28,-0.27 0.42,-0.58 0.42,-0.96 0,-0.37 -0.14,-0.69 -0.42,-0.96 -0.28,-0.27 -0.6,-0.4 -0.97,-0.4 -0.39,0 -0.72,0.14 -1,0.4 m 5.55,-2.74 c -0.28,0.27 -0.42,0.6 -0.42,0.98 0,0.39 0.14,0.72 0.42,0.98 0.28,0.27 0.61,0.4 1,0.4 0.37,0 0.69,-0.14 0.97,-0.4 0.28,-0.27 0.42,-0.6 0.42,-0.98 0,-0.39 -0.14,-0.72 -0.42,-0.98 -0.28,-0.27 -0.6,-0.4 -0.97,-0.4 -0.39,0 -0.72,0.13 -1,0.4 m -8.35,-0.04 c -0.28,0.28 -0.42,0.6 -0.42,0.97 0,0.39 0.14,0.72 0.42,1 0.28,0.28 0.61,0.42 1,0.42 0.37,0 0.69,-0.14 0.97,-0.42 0.28,-0.28 0.42,-0.61 0.42,-1 0,-0.37 -0.14,-0.69 -0.42,-0.97 -0.28,-0.28 -0.6,-0.42 -0.97,-0.42 -0.39,0 -0.72,0.14 -1,0.42 m 0,-2.79 c -0.28,0.27 -0.42,0.6 -0.42,0.99 0,0.39 0.14,0.72 0.42,0.98 0.28,0.27 0.61,0.4 1,0.4 0.39,0 0.72,-0.13 1,-0.4 0.28,-0.27 0.42,-0.6 0.42,-0.98 0,-0.39 -0.14,-0.72 -0.42,-0.99 -0.28,-0.27 -0.61,-0.4 -1,-0.4 -0.39,0 -0.72,0.13 -1,0.4 m 8.25,0.02 c -0.29,0.28 -0.43,0.61 -0.43,1 0,0.39 0.14,0.72 0.43,1 0.29,0.28 0.63,0.42 1.04,0.42 0.39,0 0.72,-0.14 1.01,-0.42 0.29,-0.28 0.43,-0.61 0.43,-1 0,-0.39 -0.14,-0.72 -0.43,-1 -0.29,-0.28 -0.62,-0.42 -1.01,-0.42 -0.41,0 -0.75,0.14 -1.04,0.42 m 0,-2.74 c -0.29,0.27 -0.43,0.59 -0.43,0.96 0,0.37 0.14,0.69 0.43,0.96 0.29,0.27 0.63,0.4 1.04,0.4 0.41,0 0.75,-0.13 1.04,-0.4 0.29,-0.27 0.43,-0.59 0.43,-0.96 0,-0.37 -0.14,-0.69 -0.43,-0.96 -0.29,-0.27 -0.63,-0.4 -1.04,-0.4 -0.41,0 -0.75,0.14 -1.04,0.4 m -8.25,-0.05 c -0.28,0.27 -0.42,0.6 -0.42,0.99 0,0.39 0.14,0.72 0.42,0.98 0.28,0.27 0.61,0.4 1,0.4 0.39,0 0.72,-0.13 1,-0.4 0.28,-0.27 0.42,-0.6 0.42,-0.98 0,-0.39 -0.14,-0.72 -0.42,-0.99 -0.28,-0.27 -0.61,-0.4 -1,-0.4 -0.39,0 -0.72,0.13 -1,0.4 m 8.29,-2.73 c -0.28,0.28 -0.42,0.6 -0.42,0.97 0,0.39 0.14,0.72 0.42,1 0.28,0.28 0.62,0.42 1.03,0.42 0.41,0 0.75,-0.14 1.03,-0.42 0.28,-0.28 0.42,-0.61 0.42,-1 0,-0.37 -0.14,-0.69 -0.42,-0.97 -0.28,-0.28 -0.62,-0.42 -1.03,-0.42 -0.41,0 -0.75,0.14 -1.03,0.42 m -8.29,-0.06 c -0.28,0.28 -0.42,0.6 -0.42,0.97 0,0.39 0.14,0.72 0.42,1 0.28,0.28 0.61,0.42 1,0.42 0.37,0 0.69,-0.14 0.97,-0.42 0.28,-0.28 0.42,-0.61 0.42,-1 0,-0.37 -0.14,-0.69 -0.42,-0.97 -0.28,-0.28 -0.6,-0.42 -0.97,-0.42 -0.39,0.01 -0.72,0.15 -1,0.42 m 0,-2.66 c -0.28,0.26 -0.42,0.56 -0.42,0.92 0,0.37 0.14,0.68 0.42,0.94 0.28,0.26 0.61,0.39 1,0.39 0.37,0 0.69,-0.13 0.97,-0.39 0.28,-0.26 0.42,-0.57 0.42,-0.94 0,-0.35 -0.14,-0.66 -0.42,-0.92 -0.28,-0.26 -0.6,-0.39 -0.97,-0.39 -0.39,0 -0.72,0.13 -1,0.39 m 8.29,-0.01 c -0.28,0.27 -0.42,0.59 -0.42,0.96 0,0.37 0.14,0.69 0.42,0.96 0.28,0.27 0.62,0.4 1.03,0.4 0.41,0 0.75,-0.13 1.03,-0.4 0.28,-0.27 0.42,-0.59 0.42,-0.96 0,-0.37 -0.14,-0.69 -0.42,-0.96 -0.28,-0.27 -0.62,-0.4 -1.03,-0.4 -0.41,0 -0.75,0.13 -1.03,0.4 m -5.57,-2.8 c -0.28,0.27 -0.42,0.59 -0.42,0.96 0,0.39 0.14,0.72 0.42,0.98 0.28,0.27 0.61,0.4 1,0.4 0.39,0 0.72,-0.13 1,-0.4 0.28,-0.27 0.42,-0.6 0.42,-0.98 0,-0.37 -0.14,-0.69 -0.42,-0.96 -0.28,-0.27 -0.61,-0.4 -1,-0.4 -0.39,0 -0.72,0.13 -1,0.4 m 2.83,0 c -0.28,0.27 -0.42,0.59 -0.42,0.96 0,0.39 0.14,0.72 0.42,0.98 0.28,0.27 0.61,0.4 1,0.4 0.37,0 0.69,-0.13 0.97,-0.4 0.28,-0.27 0.42,-0.6 0.42,-0.98 0,-0.37 -0.14,-0.69 -0.42,-0.96 -0.28,-0.27 -0.6,-0.4 -0.97,-0.4 -0.39,0 -0.73,0.13 -1,0.4" /><path
       inkscape:connector-curvature="0"
       id="SVGID_34_"
       d="m 285.58,536.13 c -0.28,0.26 -0.42,0.57 -0.42,0.94 0,0.37 0.14,0.68 0.42,0.94 0.28,0.26 0.61,0.39 1,0.39 0.39,0 0.72,-0.13 1,-0.39 0.28,-0.26 0.42,-0.57 0.42,-0.94 0,-0.37 -0.14,-0.68 -0.42,-0.94 -0.28,-0.26 -0.61,-0.39 -1,-0.39 -0.39,0 -0.72,0.13 -1,0.39 m 0,-2.8 c -0.28,0.28 -0.42,0.61 -0.42,1 0,0.39 0.14,0.72 0.42,1 0.28,0.28 0.61,0.42 1,0.42 0.39,0 0.72,-0.14 1,-0.42 0.28,-0.28 0.42,-0.61 0.42,-1 0,-0.39 -0.14,-0.72 -0.42,-1 -0.28,-0.28 -0.61,-0.42 -1,-0.42 -0.39,0 -0.72,0.14 -1,0.42 m 2.87,-2.74 c -0.25,0.27 -0.38,0.59 -0.38,0.96 0,0.37 0.13,0.69 0.38,0.96 0.25,0.27 0.56,0.4 0.93,0.4 0.35,0 0.65,-0.14 0.9,-0.4 0.25,-0.27 0.38,-0.58 0.38,-0.96 0,-0.37 -0.13,-0.69 -0.38,-0.96 -0.25,-0.27 -0.55,-0.4 -0.9,-0.4 -0.37,0 -0.68,0.14 -0.93,0.4 m 2.64,0 c -0.29,0.27 -0.43,0.59 -0.43,0.96 0,0.37 0.14,0.69 0.43,0.96 0.29,0.27 0.63,0.4 1.04,0.4 0.41,0 0.75,-0.14 1.04,-0.4 0.29,-0.27 0.43,-0.58 0.43,-0.96 0,-0.37 -0.15,-0.69 -0.43,-0.96 -0.29,-0.27 -0.63,-0.4 -1.04,-0.4 -0.41,0 -0.76,0.14 -1.04,0.4 m -5.51,-0.05 c -0.28,0.27 -0.42,0.6 -0.42,0.98 0,0.39 0.14,0.72 0.42,0.98 0.28,0.27 0.62,0.4 1.03,0.4 0.41,0 0.75,-0.14 1.03,-0.4 0.28,-0.27 0.42,-0.6 0.42,-0.98 0,-0.39 -0.14,-0.72 -0.42,-0.98 -0.28,-0.27 -0.62,-0.4 -1.03,-0.4 -0.41,0 -0.75,0.13 -1.03,0.4 m 0,-2.7 c -0.28,0.26 -0.42,0.57 -0.42,0.94 0,0.39 0.14,0.71 0.42,0.97 0.28,0.26 0.62,0.39 1.03,0.39 0.41,0 0.75,-0.13 1.03,-0.39 0.28,-0.26 0.42,-0.58 0.42,-0.97 0,-0.37 -0.14,-0.68 -0.42,-0.94 -0.28,-0.26 -0.62,-0.39 -1.03,-0.39 -0.41,0 -0.75,0.13 -1.03,0.39 m 8.29,-0.02 c -0.28,0.27 -0.42,0.59 -0.42,0.96 0,0.39 0.14,0.72 0.42,0.99 0.28,0.27 0.62,0.4 1.03,0.4 0.39,0 0.72,-0.13 1,-0.4 0.28,-0.27 0.42,-0.6 0.42,-0.99 0,-0.37 -0.14,-0.69 -0.42,-0.96 -0.28,-0.27 -0.61,-0.4 -1,-0.4 -0.41,0 -0.75,0.13 -1.03,0.4 m -8.29,-2.71 c -0.28,0.27 -0.42,0.59 -0.42,0.96 0,0.39 0.14,0.72 0.42,0.99 0.28,0.27 0.61,0.4 1,0.4 0.37,0 0.69,-0.14 0.97,-0.4 0.28,-0.27 0.42,-0.6 0.42,-0.99 0,-0.37 -0.14,-0.69 -0.42,-0.96 -0.28,-0.27 -0.6,-0.4 -0.97,-0.4 -0.39,-0.01 -0.72,0.13 -1,0.4 m 8.29,-0.07 c -0.28,0.28 -0.42,0.6 -0.42,0.97 0,0.39 0.14,0.72 0.42,1 0.28,0.28 0.61,0.42 1,0.42 0.39,0 0.72,-0.14 1,-0.42 0.28,-0.28 0.42,-0.61 0.42,-1 0,-0.37 -0.14,-0.69 -0.42,-0.97 -0.28,-0.28 -0.61,-0.42 -1,-0.42 -0.39,0 -0.72,0.14 -1,0.42 m -8.29,-2.75 c -0.28,0.28 -0.42,0.61 -0.42,1 0,0.39 0.14,0.72 0.42,1 0.28,0.28 0.61,0.42 1,0.42 0.37,0 0.69,-0.14 0.97,-0.42 0.28,-0.28 0.42,-0.61 0.42,-1 0,-0.39 -0.14,-0.72 -0.42,-1 -0.28,-0.28 -0.6,-0.42 -0.97,-0.42 -0.39,0.01 -0.72,0.14 -1,0.42 m 8.41,-0.11 c -0.26,0.28 -0.39,0.61 -0.39,1 0,0.41 0.13,0.75 0.39,1.03 0.26,0.28 0.58,0.42 0.97,0.42 0.37,0 0.68,-0.14 0.94,-0.42 0.26,-0.28 0.39,-0.62 0.39,-1.03 0,-0.39 -0.13,-0.72 -0.39,-1 -0.26,-0.28 -0.57,-0.42 -0.94,-0.42 -0.39,0 -0.72,0.14 -0.97,0.42 m -8.41,-2.68 c -0.28,0.27 -0.42,0.6 -0.42,0.98 0,0.39 0.14,0.72 0.42,0.99 0.28,0.27 0.62,0.4 1.03,0.4 0.39,0 0.72,-0.13 1,-0.4 0.28,-0.27 0.42,-0.6 0.42,-0.99 0,-0.39 -0.14,-0.72 -0.42,-0.98 -0.28,-0.27 -0.61,-0.4 -1,-0.4 -0.41,0 -0.75,0.14 -1.03,0.4 m 2.85,0 c -0.27,0.27 -0.4,0.59 -0.4,0.96 0,0.37 0.13,0.69 0.4,0.96 0.27,0.27 0.59,0.4 0.96,0.4 0.37,0 0.69,-0.13 0.96,-0.4 0.27,-0.27 0.4,-0.59 0.4,-0.96 0,-0.37 -0.14,-0.69 -0.4,-0.96 -0.27,-0.27 -0.59,-0.4 -0.96,-0.4 -0.38,0 -0.7,0.14 -0.96,0.4 m 2.73,0 c -0.28,0.27 -0.42,0.59 -0.42,0.96 0,0.37 0.14,0.69 0.42,0.96 0.28,0.27 0.61,0.4 1,0.4 0.39,0 0.72,-0.13 1,-0.4 0.28,-0.27 0.42,-0.59 0.42,-0.96 0,-0.37 -0.14,-0.69 -0.42,-0.96 -0.28,-0.27 -0.61,-0.4 -1,-0.4 -0.39,0 -0.72,0.14 -1,0.4" /><path
       inkscape:connector-curvature="0"
       id="SVGID_33_"
       d="m 302.25,530.69 c -0.28,0.26 -0.42,0.56 -0.42,0.91 0,0.35 0.14,0.66 0.42,0.92 0.28,0.26 0.61,0.39 1,0.39 0.39,0 0.72,-0.13 1,-0.39 0.28,-0.26 0.42,-0.56 0.42,-0.92 0,-0.35 -0.14,-0.66 -0.42,-0.91 -0.28,-0.26 -0.61,-0.39 -1,-0.39 -0.39,0 -0.73,0.13 -1,0.39 m 2.81,-0.08 c -0.27,0.26 -0.4,0.57 -0.4,0.94 0,0.39 0.14,0.71 0.4,0.97 0.27,0.26 0.6,0.39 0.99,0.39 0.39,0 0.72,-0.13 0.98,-0.39 0.27,-0.26 0.4,-0.58 0.4,-0.97 0,-0.37 -0.13,-0.68 -0.4,-0.94 -0.27,-0.26 -0.6,-0.39 -0.98,-0.39 -0.39,0 -0.72,0.13 -0.99,0.39 m -5.61,-2.75 c -0.28,0.26 -0.42,0.57 -0.42,0.94 0,0.39 0.14,0.71 0.42,0.97 0.28,0.26 0.61,0.39 1,0.39 0.39,0 0.72,-0.13 1,-0.39 0.28,-0.26 0.42,-0.58 0.42,-0.97 0,-0.37 -0.14,-0.68 -0.42,-0.94 -0.28,-0.26 -0.61,-0.39 -1,-0.39 -0.39,0.01 -0.73,0.14 -1,0.39 m 0,-2.75 c -0.28,0.27 -0.42,0.59 -0.42,0.96 0,0.37 0.14,0.69 0.42,0.96 0.28,0.27 0.61,0.4 1,0.4 0.37,0 0.69,-0.13 0.97,-0.4 0.28,-0.27 0.42,-0.59 0.42,-0.96 0,-0.37 -0.14,-0.69 -0.42,-0.96 -0.28,-0.27 -0.6,-0.4 -0.97,-0.4 -0.39,-0.01 -0.73,0.13 -1,0.4 m 2.78,-0.03 c -0.27,0.27 -0.4,0.59 -0.4,0.96 0,0.39 0.13,0.72 0.4,0.99 0.27,0.27 0.6,0.4 0.98,0.4 0.37,0 0.69,-0.13 0.96,-0.4 0.27,-0.27 0.4,-0.6 0.4,-0.99 0,-0.37 -0.13,-0.69 -0.4,-0.96 -0.27,-0.27 -0.59,-0.4 -0.96,-0.4 -0.38,0 -0.71,0.13 -0.98,0.4 m 2.76,0 c -0.28,0.27 -0.42,0.59 -0.42,0.96 0,0.37 0.14,0.69 0.42,0.96 0.28,0.27 0.61,0.4 1,0.4 0.37,0 0.69,-0.13 0.97,-0.4 0.28,-0.27 0.42,-0.59 0.42,-0.96 0,-0.37 -0.14,-0.69 -0.42,-0.96 -0.28,-0.27 -0.6,-0.4 -0.97,-0.4 -0.39,0 -0.72,0.13 -1,0.4 m 2.8,0 c -0.28,0.27 -0.42,0.59 -0.42,0.96 0,0.37 0.14,0.69 0.42,0.96 0.28,0.27 0.61,0.4 1,0.4 0.39,0 0.72,-0.13 1,-0.4 0.28,-0.27 0.42,-0.59 0.42,-0.96 0,-0.37 -0.14,-0.69 -0.42,-0.96 -0.28,-0.27 -0.61,-0.4 -1,-0.4 -0.39,0 -0.72,0.13 -1,0.4 m -8.34,-2.82 c -0.28,0.28 -0.42,0.61 -0.42,1 0,0.41 0.14,0.75 0.42,1.03 0.28,0.28 0.61,0.42 1,0.42 0.37,0 0.69,-0.14 0.97,-0.42 0.28,-0.28 0.42,-0.62 0.42,-1.03 0,-0.39 -0.14,-0.72 -0.42,-1 -0.28,-0.28 -0.6,-0.42 -0.97,-0.42 -0.39,0.01 -0.73,0.15 -1,0.42 m 8.34,-0.05 c -0.28,0.28 -0.42,0.62 -0.42,1.03 0,0.41 0.14,0.75 0.42,1.03 0.28,0.28 0.61,0.42 1,0.42 0.39,0 0.72,-0.14 1,-0.42 0.28,-0.28 0.42,-0.62 0.42,-1.03 0,-0.41 -0.14,-0.75 -0.42,-1.03 -0.28,-0.28 -0.61,-0.42 -1,-0.42 -0.39,0 -0.72,0.14 -1,0.42 m -5.6,-2.65 c -0.28,0.27 -0.42,0.59 -0.42,0.96 0,0.37 0.14,0.69 0.42,0.96 0.28,0.27 0.61,0.4 1,0.4 0.39,0 0.72,-0.13 1,-0.4 0.28,-0.27 0.42,-0.59 0.42,-0.96 0,-0.37 -0.14,-0.69 -0.42,-0.96 -0.28,-0.27 -0.61,-0.4 -1,-0.4 -0.39,0 -0.72,0.13 -1,0.4 m 2.82,-0.1 c -0.27,0.28 -0.4,0.61 -0.4,1 0,0.39 0.13,0.72 0.4,1 0.27,0.28 0.6,0.42 0.99,0.42 0.37,0 0.69,-0.14 0.96,-0.42 0.27,-0.28 0.4,-0.61 0.4,-1 0,-0.39 -0.13,-0.72 -0.4,-1 -0.27,-0.28 -0.59,-0.42 -0.96,-0.42 -0.4,0.01 -0.73,0.15 -0.99,0.42" /><path
       inkscape:connector-curvature="0"
       id="SVGID_32_"
       d="m 313.31,530.64 c -0.28,0.26 -0.42,0.57 -0.42,0.94 0,0.37 0.14,0.68 0.42,0.94 0.28,0.26 0.62,0.39 1.03,0.39 0.39,0 0.72,-0.13 1,-0.39 0.28,-0.26 0.42,-0.57 0.42,-0.94 0,-0.37 -0.14,-0.68 -0.42,-0.94 -0.28,-0.26 -0.61,-0.39 -1,-0.39 -0.41,0 -0.75,0.13 -1.03,0.39 m 8.33,-0.07 c -0.27,0.27 -0.4,0.59 -0.4,0.96 0,0.39 0.14,0.72 0.4,0.98 0.27,0.27 0.6,0.4 0.98,0.4 0.39,0 0.72,-0.14 0.98,-0.4 0.27,-0.27 0.4,-0.6 0.4,-0.98 0,-0.37 -0.13,-0.69 -0.4,-0.96 -0.27,-0.27 -0.6,-0.4 -0.98,-0.4 -0.38,0 -0.71,0.13 -0.98,0.4 m -8.33,-2.71 c -0.28,0.28 -0.42,0.6 -0.42,0.97 0,0.39 0.14,0.72 0.42,1 0.28,0.28 0.62,0.42 1.03,0.42 0.39,0 0.72,-0.14 1,-0.42 0.28,-0.28 0.42,-0.61 0.42,-1 0,-0.37 -0.14,-0.69 -0.42,-0.97 -0.28,-0.28 -0.61,-0.42 -1,-0.42 -0.41,0.01 -0.75,0.15 -1.03,0.42 m 8.26,-0.07 c -0.28,0.27 -0.42,0.6 -0.42,0.98 0,0.39 0.14,0.72 0.42,0.99 0.28,0.27 0.62,0.4 1.03,0.4 0.39,0 0.72,-0.13 1,-0.4 0.28,-0.27 0.42,-0.6 0.42,-0.99 0,-0.39 -0.14,-0.72 -0.42,-0.98 -0.28,-0.27 -0.61,-0.4 -1,-0.4 -0.41,0 -0.75,0.14 -1.03,0.4 m -8.26,-2.73 c -0.28,0.28 -0.42,0.6 -0.42,0.97 0,0.39 0.14,0.72 0.42,1 0.28,0.28 0.61,0.42 1,0.42 0.37,0 0.69,-0.14 0.97,-0.42 0.28,-0.28 0.42,-0.61 0.42,-1 0,-0.37 -0.14,-0.69 -0.42,-0.97 -0.28,-0.28 -0.6,-0.42 -0.97,-0.42 -0.39,0.01 -0.72,0.15 -1,0.42 m 8.28,-0.05 c -0.29,0.28 -0.43,0.6 -0.43,0.97 0,0.39 0.14,0.72 0.43,1 0.29,0.28 0.63,0.42 1.04,0.42 0.39,0 0.73,-0.14 1.01,-0.42 0.29,-0.28 0.43,-0.61 0.43,-1 0,-0.37 -0.14,-0.69 -0.43,-0.97 -0.29,-0.28 -0.62,-0.42 -1.01,-0.42 -0.41,0 -0.76,0.14 -1.04,0.42 m -8.28,-2.68 c -0.28,0.27 -0.42,0.59 -0.42,0.96 0,0.37 0.14,0.69 0.42,0.96 0.28,0.27 0.61,0.4 1,0.4 0.37,0 0.69,-0.14 0.97,-0.4 0.28,-0.27 0.42,-0.59 0.42,-0.96 0,-0.37 -0.14,-0.69 -0.42,-0.96 -0.28,-0.27 -0.6,-0.4 -0.97,-0.4 -0.39,0 -0.72,0.14 -1,0.4 m 8.34,-0.05 c -0.28,0.27 -0.42,0.59 -0.42,0.96 0,0.37 0.14,0.69 0.42,0.96 0.28,0.27 0.61,0.4 1,0.4 0.39,0 0.72,-0.13 1,-0.4 0.28,-0.27 0.42,-0.59 0.42,-0.96 0,-0.37 -0.14,-0.69 -0.42,-0.96 -0.28,-0.27 -0.61,-0.4 -1,-0.4 -0.38,0 -0.72,0.13 -1,0.4 m -2.8,-2.73 c -0.28,0.26 -0.42,0.57 -0.42,0.94 0,0.39 0.14,0.71 0.42,0.97 0.28,0.26 0.61,0.39 1,0.39 0.37,0 0.69,-0.13 0.97,-0.39 0.28,-0.26 0.42,-0.58 0.42,-0.97 0,-0.37 -0.14,-0.68 -0.42,-0.94 -0.28,-0.26 -0.6,-0.39 -0.97,-0.39 -0.39,0 -0.72,0.13 -1,0.39 m -5.54,-0.03 c -0.28,0.28 -0.42,0.61 -0.42,1 0,0.39 0.14,0.72 0.42,1 0.28,0.28 0.61,0.42 1,0.42 0.37,0 0.69,-0.14 0.97,-0.42 0.28,-0.28 0.42,-0.61 0.42,-1 0,-0.39 -0.14,-0.72 -0.42,-1 -0.28,-0.28 -0.6,-0.42 -0.97,-0.42 -0.39,0 -0.72,0.14 -1,0.42 m 2.81,-0.02 c -0.27,0.27 -0.4,0.59 -0.4,0.96 0,0.39 0.13,0.72 0.4,0.98 0.27,0.27 0.59,0.4 0.96,0.4 0.37,0 0.69,-0.13 0.96,-0.4 0.27,-0.27 0.4,-0.6 0.4,-0.98 0,-0.37 -0.13,-0.69 -0.4,-0.96 -0.27,-0.27 -0.59,-0.4 -0.96,-0.4 -0.37,0 -0.69,0.14 -0.96,0.4" /><path
       inkscape:connector-curvature="0"
       id="SVGID_31_"
       d="m 210.76,555.5 c -0.28,0.27 -0.42,0.59 -0.42,0.96 0,0.39 0.14,0.72 0.42,0.98 0.28,0.27 0.62,0.4 1.03,0.4 0.39,0 0.72,-0.13 1,-0.4 0.28,-0.27 0.42,-0.59 0.42,-0.98 0,-0.37 -0.14,-0.69 -0.42,-0.96 -0.28,-0.27 -0.61,-0.4 -1,-0.4 -0.42,0 -0.76,0.13 -1.03,0.4 m 0,-2.77 c -0.28,0.27 -0.42,0.6 -0.42,0.98 0,0.39 0.14,0.72 0.42,0.99 0.28,0.27 0.61,0.4 1,0.4 0.37,0 0.69,-0.13 0.97,-0.4 0.28,-0.27 0.42,-0.6 0.42,-0.99 0,-0.39 -0.14,-0.72 -0.42,-0.98 -0.28,-0.27 -0.6,-0.4 -0.97,-0.4 -0.39,-0.01 -0.73,0.13 -1,0.4 m 0,-2.72 c -0.28,0.27 -0.42,0.59 -0.42,0.96 0,0.37 0.14,0.69 0.42,0.96 0.28,0.27 0.61,0.4 1,0.4 0.37,0 0.69,-0.13 0.97,-0.4 0.28,-0.27 0.42,-0.59 0.42,-0.96 0,-0.37 -0.14,-0.69 -0.42,-0.96 -0.28,-0.27 -0.6,-0.4 -0.97,-0.4 -0.39,0 -0.73,0.13 -1,0.4 m 2.78,-2.79 c -0.27,0.26 -0.4,0.56 -0.4,0.91 0,0.37 0.13,0.69 0.4,0.94 0.27,0.26 0.6,0.39 0.98,0.39 0.39,0 0.72,-0.13 0.98,-0.39 0.27,-0.26 0.4,-0.57 0.4,-0.94 0,-0.35 -0.13,-0.65 -0.4,-0.91 -0.27,-0.26 -0.6,-0.39 -0.98,-0.39 -0.38,0.01 -0.71,0.13 -0.98,0.39 m 2.79,0 c -0.28,0.26 -0.42,0.57 -0.42,0.94 0,0.39 0.14,0.71 0.42,0.97 0.28,0.26 0.62,0.39 1.03,0.39 0.39,0 0.72,-0.13 1,-0.39 0.28,-0.26 0.42,-0.58 0.42,-0.97 0,-0.37 -0.14,-0.68 -0.42,-0.94 -0.28,-0.26 -0.61,-0.39 -1,-0.39 -0.41,0.01 -0.75,0.13 -1.03,0.39 m -5.57,-0.09 c -0.28,0.27 -0.42,0.59 -0.42,0.96 0,0.39 0.14,0.72 0.42,0.98 0.28,0.27 0.61,0.4 1,0.4 0.37,0 0.69,-0.13 0.97,-0.4 0.28,-0.27 0.42,-0.6 0.42,-0.98 0,-0.37 -0.14,-0.69 -0.42,-0.96 -0.28,-0.27 -0.6,-0.4 -0.97,-0.4 -0.39,-0.01 -0.73,0.13 -1,0.4 m 0,-2.79 c -0.28,0.28 -0.42,0.6 -0.42,0.97 0,0.39 0.14,0.72 0.42,1 0.28,0.28 0.61,0.42 1,0.42 0.37,0 0.69,-0.14 0.97,-0.42 0.28,-0.28 0.42,-0.61 0.42,-1 0,-0.37 -0.14,-0.69 -0.42,-0.97 -0.28,-0.28 -0.6,-0.42 -0.97,-0.42 -0.39,0 -0.73,0.14 -1,0.42 m 0,-2.69 c -0.28,0.26 -0.42,0.57 -0.42,0.94 0,0.37 0.14,0.68 0.42,0.94 0.28,0.26 0.61,0.39 1,0.39 0.37,0 0.69,-0.13 0.97,-0.39 0.28,-0.26 0.42,-0.57 0.42,-0.94 0,-0.37 -0.14,-0.68 -0.42,-0.94 -0.28,-0.26 -0.6,-0.39 -0.97,-0.39 -0.39,0 -0.73,0.13 -1,0.39 m 0,-2.73 c -0.28,0.27 -0.42,0.59 -0.42,0.96 0,0.37 0.14,0.69 0.42,0.96 0.28,0.27 0.61,0.4 1,0.4 0.39,0 0.72,-0.13 1,-0.4 0.28,-0.27 0.42,-0.59 0.42,-0.96 0,-0.37 -0.14,-0.69 -0.42,-0.96 -0.28,-0.27 -0.61,-0.4 -1,-0.4 -0.39,0 -0.73,0.13 -1,0.4 m 2.81,0 c -0.27,0.27 -0.4,0.59 -0.4,0.96 0,0.37 0.13,0.69 0.4,0.96 0.27,0.27 0.6,0.4 0.98,0.4 0.39,0 0.72,-0.13 0.98,-0.4 0.27,-0.27 0.4,-0.59 0.4,-0.96 0,-0.37 -0.13,-0.69 -0.4,-0.96 -0.27,-0.27 -0.6,-0.4 -0.98,-0.4 -0.38,0 -0.71,0.13 -0.98,0.4 m 2.77,0 c -0.27,0.27 -0.4,0.59 -0.4,0.96 0,0.39 0.13,0.72 0.4,0.98 0.27,0.27 0.59,0.4 0.96,0.4 0.37,0 0.69,-0.13 0.96,-0.4 0.27,-0.27 0.4,-0.6 0.4,-0.98 0,-0.37 -0.13,-0.69 -0.4,-0.96 -0.27,-0.27 -0.59,-0.4 -0.96,-0.4 -0.37,0 -0.69,0.13 -0.96,0.4 m 2.73,0 c -0.28,0.27 -0.42,0.59 -0.42,0.96 0,0.39 0.14,0.72 0.42,0.98 0.28,0.27 0.61,0.4 1,0.4 0.37,0 0.69,-0.13 0.97,-0.4 0.28,-0.27 0.42,-0.6 0.42,-0.98 0,-0.37 -0.14,-0.69 -0.42,-0.96 -0.28,-0.27 -0.6,-0.4 -0.97,-0.4 -0.39,0 -0.72,0.13 -1,0.4" /><path
       inkscape:connector-curvature="0"
       id="SVGID_30_"
       d="m 232.94,555.54 c -0.28,0.26 -0.42,0.57 -0.42,0.94 0,0.39 0.14,0.71 0.42,0.97 0.28,0.26 0.61,0.39 1,0.39 0.37,0 0.69,-0.13 0.97,-0.39 0.28,-0.26 0.42,-0.58 0.42,-0.97 0,-0.37 -0.14,-0.68 -0.42,-0.94 -0.28,-0.26 -0.6,-0.39 -0.97,-0.39 -0.39,0 -0.73,0.13 -1,0.39 m -5.56,-0.01 c -0.27,0.27 -0.4,0.59 -0.4,0.96 0,0.37 0.13,0.69 0.4,0.96 0.27,0.27 0.6,0.4 0.99,0.4 0.37,0 0.69,-0.13 0.96,-0.4 0.27,-0.27 0.4,-0.58 0.4,-0.96 0,-0.37 -0.14,-0.69 -0.4,-0.96 -0.27,-0.27 -0.59,-0.4 -0.96,-0.4 -0.4,0 -0.73,0.13 -0.99,0.4 m 2.75,0 c -0.28,0.27 -0.42,0.59 -0.42,0.96 0,0.37 0.14,0.69 0.42,0.96 0.28,0.27 0.61,0.4 1,0.4 0.37,0 0.69,-0.13 0.97,-0.4 0.28,-0.27 0.42,-0.58 0.42,-0.96 0,-0.37 -0.14,-0.69 -0.42,-0.96 -0.28,-0.27 -0.6,-0.4 -0.97,-0.4 -0.38,0 -0.72,0.13 -1,0.4 m -5.51,-2.76 c -0.28,0.26 -0.42,0.56 -0.42,0.92 0,0.35 0.14,0.65 0.42,0.91 0.28,0.26 0.62,0.39 1.02,0.39 0.41,0 0.75,-0.13 1.03,-0.39 0.28,-0.26 0.42,-0.56 0.42,-0.91 0,-0.35 -0.14,-0.66 -0.42,-0.92 -0.28,-0.26 -0.62,-0.39 -1.03,-0.39 -0.4,0 -0.74,0.13 -1.02,0.39 m 8.32,0.01 c -0.28,0.27 -0.42,0.6 -0.42,0.98 0,0.39 0.14,0.72 0.42,0.99 0.28,0.27 0.61,0.4 1,0.4 0.39,0 0.72,-0.14 1,-0.4 0.28,-0.27 0.42,-0.6 0.42,-0.99 0,-0.39 -0.14,-0.72 -0.42,-0.98 -0.28,-0.27 -0.61,-0.4 -1,-0.4 -0.39,0 -0.73,0.13 -1,0.4 m -5.58,-2.73 c -0.28,0.26 -0.42,0.57 -0.42,0.94 0,0.37 0.14,0.68 0.42,0.94 0.28,0.26 0.61,0.39 1,0.39 0.39,0 0.72,-0.13 1,-0.39 0.28,-0.26 0.42,-0.57 0.42,-0.94 0,-0.37 -0.14,-0.68 -0.42,-0.94 -0.28,-0.26 -0.61,-0.39 -1,-0.39 -0.39,0 -0.72,0.13 -1,0.39 m 2.82,-0.01 c -0.27,0.25 -0.4,0.55 -0.4,0.9 0,0.37 0.13,0.68 0.4,0.93 0.27,0.25 0.59,0.37 0.96,0.37 0.37,0 0.69,-0.13 0.96,-0.37 0.27,-0.25 0.4,-0.56 0.4,-0.93 0,-0.35 -0.14,-0.65 -0.4,-0.9 -0.27,-0.25 -0.59,-0.37 -0.96,-0.37 -0.38,-0.01 -0.69,0.12 -0.96,0.37 m 2.76,-0.1 c -0.28,0.28 -0.42,0.61 -0.42,1 0,0.41 0.14,0.75 0.42,1.02 0.28,0.28 0.62,0.42 1.03,0.42 0.39,0 0.72,-0.14 1,-0.42 0.28,-0.28 0.42,-0.62 0.42,-1.02 0,-0.39 -0.14,-0.72 -0.42,-1 -0.28,-0.28 -0.61,-0.42 -1,-0.42 -0.41,0 -0.76,0.14 -1.03,0.42 m 0.07,-2.79 c -0.27,0.27 -0.4,0.6 -0.4,0.98 0,0.39 0.13,0.72 0.4,0.99 0.27,0.27 0.6,0.4 0.98,0.4 0.39,0 0.72,-0.13 0.98,-0.4 0.27,-0.27 0.4,-0.6 0.4,-0.99 0,-0.39 -0.14,-0.72 -0.4,-0.98 -0.27,-0.27 -0.6,-0.4 -0.98,-0.4 -0.39,0 -0.72,0.14 -0.98,0.4 m -5.65,-2.71 c -0.28,0.27 -0.42,0.59 -0.42,0.96 0,0.37 0.14,0.69 0.42,0.96 0.28,0.27 0.61,0.4 1,0.4 0.39,0 0.72,-0.13 1,-0.4 0.28,-0.27 0.42,-0.59 0.42,-0.96 0,-0.37 -0.14,-0.69 -0.42,-0.96 -0.28,-0.27 -0.61,-0.4 -1,-0.4 -0.39,-0.01 -0.72,0.13 -1,0.4 m 2.83,0 c -0.28,0.27 -0.42,0.59 -0.42,0.96 0,0.37 0.14,0.69 0.42,0.96 0.28,0.27 0.62,0.4 1.03,0.4 0.41,0 0.75,-0.13 1.03,-0.4 0.28,-0.27 0.42,-0.59 0.42,-0.96 0,-0.37 -0.14,-0.69 -0.42,-0.96 -0.28,-0.27 -0.62,-0.4 -1.03,-0.4 -0.41,-0.01 -0.75,0.13 -1.03,0.4" /><path
       inkscape:connector-curvature="0"
       id="SVGID_29_"
       d="m 244.1,555.57 c -0.27,0.26 -0.4,0.57 -0.4,0.94 0,0.37 0.13,0.68 0.4,0.94 0.27,0.26 0.59,0.39 0.98,0.39 0.39,0 0.72,-0.13 0.98,-0.39 0.27,-0.26 0.4,-0.57 0.4,-0.94 0,-0.37 -0.13,-0.68 -0.4,-0.94 -0.27,-0.26 -0.6,-0.39 -0.98,-0.39 -0.39,0 -0.72,0.13 -0.98,0.39 m -5.62,-0.07 c -0.28,0.27 -0.42,0.59 -0.42,0.96 0,0.39 0.14,0.72 0.42,0.98 0.28,0.27 0.61,0.4 1,0.4 0.37,0 0.69,-0.13 0.97,-0.4 0.28,-0.27 0.42,-0.59 0.42,-0.98 0,-0.37 -0.14,-0.69 -0.42,-0.96 -0.28,-0.27 -0.6,-0.4 -0.97,-0.4 -0.39,0 -0.72,0.13 -1,0.4 m 2.8,0 c -0.28,0.27 -0.42,0.59 -0.42,0.96 0,0.39 0.14,0.72 0.42,0.98 0.28,0.27 0.61,0.4 1,0.4 0.39,0 0.72,-0.13 1,-0.4 0.28,-0.27 0.42,-0.59 0.42,-0.98 0,-0.37 -0.14,-0.69 -0.42,-0.96 -0.28,-0.27 -0.61,-0.4 -1,-0.4 -0.39,0 -0.72,0.13 -1,0.4 m 5.6,-2.76 c -0.28,0.28 -0.42,0.61 -0.42,1 0,0.41 0.14,0.75 0.42,1.03 0.28,0.28 0.61,0.42 1,0.42 0.37,0 0.69,-0.14 0.97,-0.42 0.28,-0.28 0.42,-0.62 0.42,-1.03 0,-0.39 -0.14,-0.72 -0.42,-1 -0.28,-0.28 -0.6,-0.42 -0.97,-0.42 -0.39,0 -0.72,0.14 -1,0.42 m -5.67,-2.76 c -0.27,0.27 -0.4,0.59 -0.4,0.96 0,0.39 0.13,0.72 0.4,0.98 0.27,0.27 0.6,0.4 0.98,0.4 0.37,0 0.69,-0.13 0.96,-0.4 0.27,-0.27 0.4,-0.6 0.4,-0.98 0,-0.37 -0.13,-0.69 -0.4,-0.96 -0.27,-0.27 -0.59,-0.4 -0.96,-0.4 -0.38,0 -0.71,0.13 -0.98,0.4 m 2.76,0 c -0.28,0.27 -0.42,0.59 -0.42,0.96 0,0.39 0.14,0.72 0.42,0.98 0.28,0.27 0.61,0.4 1,0.4 0.37,0 0.69,-0.13 0.97,-0.4 0.28,-0.27 0.42,-0.6 0.42,-0.98 0,-0.37 -0.14,-0.69 -0.42,-0.96 -0.28,-0.27 -0.6,-0.4 -0.97,-0.4 -0.39,0 -0.72,0.13 -1,0.4 m -5.52,-2.74 c -0.26,0.27 -0.39,0.59 -0.39,0.96 0,0.39 0.13,0.72 0.39,0.99 0.26,0.27 0.57,0.4 0.94,0.4 0.37,0 0.68,-0.14 0.94,-0.4 0.26,-0.27 0.39,-0.6 0.39,-0.99 0,-0.37 -0.13,-0.69 -0.39,-0.96 -0.26,-0.27 -0.57,-0.4 -0.94,-0.4 -0.36,0 -0.68,0.13 -0.94,0.4 m 2.58,-2.75 c -0.28,0.27 -0.42,0.6 -0.42,0.99 0,0.39 0.14,0.72 0.42,0.98 0.28,0.27 0.62,0.4 1.03,0.4 0.41,0 0.75,-0.14 1.03,-0.4 0.28,-0.27 0.42,-0.6 0.42,-0.98 0,-0.39 -0.14,-0.72 -0.42,-0.99 -0.28,-0.27 -0.62,-0.4 -1.03,-0.4 -0.41,0 -0.75,0.13 -1.03,0.4 m 5.73,0 c -0.23,0.22 -0.37,0.47 -0.42,0.76 -0.04,-0.29 -0.18,-0.54 -0.4,-0.76 -0.28,-0.27 -0.61,-0.4 -1,-0.4 -0.41,0 -0.75,0.13 -1.03,0.4 -0.28,0.27 -0.42,0.59 -0.42,0.96 0,0.37 0.14,0.69 0.42,0.96 0.28,0.27 0.62,0.4 1.03,0.4 0.39,0 0.72,-0.13 1,-0.4 0.23,-0.22 0.36,-0.47 0.4,-0.76 0.04,0.29 0.18,0.54 0.42,0.76 0.29,0.27 0.63,0.4 1.04,0.4 0.41,0 0.75,-0.13 1.04,-0.4 0.29,-0.27 0.43,-0.59 0.43,-0.96 0,-0.37 -0.14,-0.69 -0.43,-0.96 -0.29,-0.27 -0.63,-0.4 -1.04,-0.4 -0.41,0 -0.76,0.13 -1.04,0.4" /><path
       inkscape:connector-curvature="0"
       id="SVGID_28_"
       d="m 260.67,555.54 c -0.27,0.26 -0.4,0.57 -0.4,0.94 0,0.39 0.13,0.71 0.4,0.97 0.27,0.26 0.6,0.39 0.98,0.39 0.39,0 0.72,-0.13 0.99,-0.39 0.27,-0.26 0.4,-0.58 0.4,-0.97 0,-0.37 -0.14,-0.68 -0.4,-0.94 -0.27,-0.26 -0.6,-0.39 -0.99,-0.39 -0.38,0 -0.71,0.13 -0.98,0.39 m -8.33,-0.01 c -0.28,0.27 -0.42,0.59 -0.42,0.96 0,0.37 0.14,0.69 0.42,0.96 0.28,0.27 0.61,0.4 1,0.4 0.37,0 0.69,-0.13 0.97,-0.4 0.28,-0.27 0.42,-0.58 0.42,-0.96 0,-0.37 -0.14,-0.69 -0.42,-0.96 -0.28,-0.27 -0.6,-0.4 -0.97,-0.4 -0.39,0 -0.72,0.13 -1,0.4 m 0,-2.75 c -0.28,0.27 -0.42,0.59 -0.42,0.96 0,0.39 0.14,0.72 0.42,0.99 0.28,0.27 0.61,0.4 1,0.4 0.39,0 0.72,-0.13 1,-0.4 0.28,-0.27 0.42,-0.6 0.42,-0.99 0,-0.37 -0.14,-0.69 -0.42,-0.96 -0.28,-0.27 -0.61,-0.4 -1,-0.4 -0.39,0 -0.72,0.13 -1,0.4 m 8.26,-0.01 c -0.28,0.28 -0.42,0.6 -0.42,0.97 0,0.39 0.14,0.72 0.42,1 0.28,0.28 0.62,0.42 1.03,0.42 0.39,0 0.72,-0.14 1,-0.42 0.28,-0.28 0.42,-0.61 0.42,-1 0,-0.37 -0.14,-0.69 -0.42,-0.97 -0.28,-0.28 -0.61,-0.42 -1,-0.42 -0.41,0 -0.75,0.14 -1.03,0.42 m -8.26,-2.8 c -0.28,0.28 -0.42,0.61 -0.42,1 0,0.39 0.14,0.72 0.42,1 0.28,0.28 0.61,0.42 1,0.42 0.39,0 0.72,-0.14 1,-0.42 0.28,-0.28 0.42,-0.61 0.42,-1 0,-0.39 -0.14,-0.72 -0.42,-1 -0.28,-0.28 -0.61,-0.42 -1,-0.42 -0.39,0 -0.72,0.14 -1,0.42 m 0,-2.8 c -0.28,0.28 -0.42,0.6 -0.42,0.97 0,0.39 0.14,0.72 0.42,1 0.28,0.28 0.61,0.42 1,0.42 0.37,0 0.69,-0.14 0.97,-0.42 0.28,-0.28 0.42,-0.61 0.42,-1 0,-0.37 -0.14,-0.69 -0.42,-0.97 -0.28,-0.28 -0.6,-0.42 -0.97,-0.42 -0.39,0 -0.72,0.14 -1,0.42 m 8.29,0 c -0.28,0.28 -0.42,0.62 -0.42,1.03 0,0.41 0.14,0.75 0.42,1.03 0.28,0.28 0.62,0.42 1.03,0.42 -0.41,0 -0.75,0.13 -1.04,0.4 -0.29,0.27 -0.43,0.59 -0.43,0.96 0,0.37 0.14,0.69 0.43,0.96 0.29,0.27 0.63,0.4 1.04,0.4 0.39,0 0.73,-0.14 1.01,-0.4 0.28,-0.27 0.43,-0.58 0.43,-0.96 0,-0.37 -0.15,-0.69 -0.43,-0.96 -0.29,-0.27 -0.63,-0.4 -1.01,-0.4 0.41,0 0.75,-0.14 1.03,-0.42 0.28,-0.28 0.42,-0.62 0.42,-1.03 0,-0.41 -0.14,-0.75 -0.42,-1.03 -0.28,-0.28 -0.62,-0.42 -1.03,-0.42 -0.41,0 -0.75,0.14 -1.03,0.42 m -5.5,-2.76 c -0.27,0.27 -0.4,0.59 -0.4,0.98 0,0.39 0.14,0.72 0.4,0.98 0.27,0.27 0.59,0.4 0.96,0.4 0.37,0 0.69,-0.13 0.96,-0.4 0.27,-0.27 0.4,-0.6 0.4,-0.98 0,-0.39 -0.13,-0.72 -0.4,-0.98 -0.27,-0.27 -0.59,-0.4 -0.96,-0.4 -0.37,0 -0.69,0.13 -0.96,0.4 m 2.72,0 c -0.27,0.27 -0.4,0.59 -0.4,0.96 0,0.39 0.14,0.72 0.4,0.98 0.27,0.27 0.6,0.4 0.99,0.4 0.39,0 0.72,-0.13 0.98,-0.4 0.27,-0.27 0.4,-0.6 0.4,-0.98 0,-0.37 -0.13,-0.69 -0.4,-0.96 -0.27,-0.27 -0.6,-0.4 -0.98,-0.4 -0.4,0 -0.73,0.13 -0.99,0.4 m -5.51,-0.03 c -0.28,0.27 -0.42,0.6 -0.42,0.99 0,0.39 0.14,0.72 0.42,0.98 0.28,0.27 0.61,0.4 1,0.4 0.37,0 0.69,-0.13 0.97,-0.4 0.28,-0.27 0.42,-0.6 0.42,-0.98 0,-0.39 -0.14,-0.72 -0.42,-0.99 -0.28,-0.27 -0.6,-0.4 -0.97,-0.4 -0.39,0 -0.72,0.13 -1,0.4 m 0,-2.77 c -0.28,0.27 -0.42,0.6 -0.42,0.99 0,0.39 0.14,0.72 0.42,0.98 0.28,0.27 0.61,0.4 1,0.4 0.39,0 0.72,-0.13 1,-0.4 0.28,-0.27 0.42,-0.6 0.42,-0.98 0,-0.39 -0.14,-0.72 -0.42,-0.99 -0.28,-0.27 -0.61,-0.4 -1,-0.4 -0.39,0 -0.72,0.13 -1,0.4 m 0,-2.7 c -0.28,0.26 -0.42,0.57 -0.42,0.94 0,0.39 0.14,0.71 0.42,0.97 0.28,0.26 0.61,0.39 1,0.39 0.39,0 0.72,-0.13 1,-0.39 0.28,-0.26 0.42,-0.58 0.42,-0.97 0,-0.37 -0.14,-0.68 -0.42,-0.94 -0.28,-0.26 -0.61,-0.39 -1,-0.39 -0.39,0 -0.72,0.13 -1,0.39" /><path
       inkscape:connector-curvature="0"
       id="SVGID_27_"
       d="m 266.21,555.53 c -0.28,0.27 -0.42,0.59 -0.42,0.96 0,0.37 0.14,0.69 0.42,0.96 0.28,0.27 0.62,0.4 1.03,0.4 0.39,0 0.72,-0.13 1,-0.4 0.28,-0.27 0.42,-0.58 0.42,-0.96 0,-0.37 -0.14,-0.69 -0.42,-0.96 -0.28,-0.27 -0.61,-0.4 -1,-0.4 -0.41,0 -0.76,0.13 -1.03,0.4 m 2.84,0 c -0.27,0.27 -0.4,0.59 -0.4,0.96 0,0.37 0.14,0.69 0.4,0.96 0.27,0.27 0.59,0.4 0.96,0.4 0.37,0 0.69,-0.13 0.96,-0.4 0.27,-0.27 0.4,-0.58 0.4,-0.96 0,-0.37 -0.14,-0.69 -0.4,-0.96 -0.27,-0.27 -0.59,-0.4 -0.96,-0.4 -0.38,0 -0.7,0.13 -0.96,0.4 m 2.71,0 c -0.27,0.27 -0.4,0.59 -0.4,0.96 0,0.37 0.13,0.69 0.4,0.96 0.27,0.27 0.6,0.4 0.98,0.4 0.39,0 0.72,-0.13 0.98,-0.4 0.27,-0.27 0.4,-0.58 0.4,-0.96 0,-0.37 -0.14,-0.69 -0.4,-0.96 -0.27,-0.27 -0.6,-0.4 -0.98,-0.4 -0.38,0 -0.71,0.13 -0.98,0.4 m -2.82,-2.78 c -0.29,0.27 -0.43,0.59 -0.43,0.96 0,0.39 0.14,0.72 0.43,0.99 0.29,0.27 0.63,0.4 1.04,0.4 0.39,0 0.73,-0.13 1.01,-0.4 0.29,-0.27 0.43,-0.6 0.43,-0.99 0,-0.37 -0.14,-0.69 -0.43,-0.96 -0.29,-0.27 -0.62,-0.4 -1.01,-0.4 -0.41,0 -0.76,0.14 -1.04,0.4 m 0,-2.81 c -0.29,0.28 -0.43,0.61 -0.43,1 0,0.39 0.14,0.72 0.43,1 0.29,0.28 0.63,0.42 1.04,0.42 0.39,0 0.73,-0.14 1.01,-0.42 0.29,-0.28 0.43,-0.61 0.43,-1 0,-0.39 -0.14,-0.72 -0.43,-1 -0.29,-0.28 -0.62,-0.42 -1.01,-0.42 -0.41,0 -0.76,0.14 -1.04,0.42 m -0.02,-2.79 c -0.28,0.27 -0.42,0.6 -0.42,0.98 0,0.39 0.14,0.72 0.42,0.99 0.28,0.27 0.62,0.4 1.03,0.4 0.39,0 0.72,-0.13 1,-0.4 0.28,-0.27 0.42,-0.6 0.42,-0.99 0,-0.39 -0.14,-0.72 -0.42,-0.98 -0.28,-0.27 -0.61,-0.4 -1,-0.4 -0.41,0 -0.75,0.14 -1.03,0.4 m -2.71,-2.7 c -0.28,0.26 -0.42,0.56 -0.42,0.91 0,0.35 0.14,0.66 0.42,0.91 0.28,0.26 0.62,0.39 1.03,0.39 0.41,0 0.75,-0.13 1.03,-0.39 0.28,-0.26 0.42,-0.56 0.42,-0.91 0,-0.35 -0.14,-0.66 -0.42,-0.91 -0.28,-0.26 -0.62,-0.39 -1.03,-0.39 -0.41,0 -0.76,0.13 -1.03,0.39 m 2.85,0 c -0.26,0.26 -0.39,0.57 -0.39,0.94 0,0.39 0.13,0.71 0.39,0.97 0.26,0.26 0.58,0.39 0.97,0.39 0.37,0 0.68,-0.13 0.94,-0.39 0.26,-0.26 0.39,-0.58 0.39,-0.97 0,-0.37 -0.13,-0.68 -0.39,-0.94 -0.26,-0.26 -0.57,-0.39 -0.94,-0.39 -0.39,0 -0.71,0.13 -0.97,0.39 m -0.14,-5.53 c -0.28,0.27 -0.42,0.59 -0.42,0.96 0,0.37 0.14,0.69 0.42,0.96 0.28,0.27 0.62,0.4 1.03,0.4 0.41,0 0.75,-0.13 1.03,-0.4 0.28,-0.27 0.42,-0.59 0.42,-0.96 0,-0.37 -0.14,-0.69 -0.42,-0.96 -0.28,-0.27 -0.62,-0.4 -1.03,-0.4 -0.41,0 -0.75,0.13 -1.03,0.4" /><path
       inkscape:connector-curvature="0"
       id="SVGID_26_"
       d="m 282.84,555.53 c -0.28,0.27 -0.42,0.59 -0.42,0.96 0,0.37 0.14,0.69 0.42,0.96 0.28,0.27 0.61,0.4 1,0.4 0.37,0 0.69,-0.13 0.97,-0.4 0.28,-0.27 0.42,-0.58 0.42,-0.96 0,-0.37 -0.14,-0.69 -0.42,-0.96 -0.28,-0.27 -0.6,-0.4 -0.97,-0.4 -0.39,0 -0.72,0.13 -1,0.4 m -2.76,-0.06 c -0.27,0.27 -0.4,0.6 -0.4,0.98 0,0.39 0.13,0.72 0.4,0.98 0.27,0.27 0.6,0.4 0.99,0.4 0.37,0 0.69,-0.13 0.96,-0.4 0.27,-0.27 0.4,-0.59 0.4,-0.98 0,-0.39 -0.14,-0.72 -0.4,-0.98 -0.27,-0.27 -0.59,-0.4 -0.96,-0.4 -0.39,0 -0.72,0.13 -0.99,0.4 m 5.55,-2.69 c -0.27,0.27 -0.4,0.59 -0.4,0.96 0,0.39 0.13,0.72 0.4,0.99 0.27,0.27 0.6,0.4 0.98,0.4 0.39,0 0.72,-0.13 0.98,-0.4 0.27,-0.27 0.4,-0.6 0.4,-0.99 0,-0.37 -0.14,-0.69 -0.4,-0.96 -0.27,-0.27 -0.6,-0.4 -0.98,-0.4 -0.39,0 -0.72,0.13 -0.98,0.4 m -8.36,-0.05 c -0.28,0.27 -0.42,0.59 -0.42,0.96 0,0.39 0.14,0.72 0.42,0.98 0.28,0.27 0.61,0.4 1,0.4 0.39,0 0.72,-0.14 1,-0.4 0.28,-0.27 0.42,-0.59 0.42,-0.98 0,-0.37 -0.14,-0.69 -0.42,-0.96 -0.28,-0.27 -0.61,-0.4 -1,-0.4 -0.39,-0.01 -0.73,0.13 -1,0.4 m 8.29,-2.72 c -0.28,0.27 -0.42,0.6 -0.42,0.98 0,0.39 0.14,0.72 0.42,0.99 0.28,0.27 0.62,0.4 1.03,0.4 0.39,0 0.72,-0.14 1,-0.4 0.28,-0.27 0.42,-0.6 0.42,-0.99 0,-0.39 -0.14,-0.72 -0.42,-0.98 -0.28,-0.27 -0.61,-0.4 -1,-0.4 -0.41,0 -0.76,0.13 -1.03,0.4 m -8.29,-0.07 c -0.28,0.28 -0.42,0.6 -0.42,0.97 0,0.39 0.14,0.72 0.42,1 0.28,0.28 0.61,0.42 1,0.42 0.39,0 0.72,-0.14 1,-0.42 0.28,-0.28 0.42,-0.61 0.42,-1 0,-0.37 -0.14,-0.69 -0.42,-0.97 -0.28,-0.28 -0.61,-0.42 -1,-0.42 -0.39,0 -0.73,0.14 -1,0.42 m 0,-2.63 c -0.28,0.26 -0.42,0.56 -0.42,0.91 0,0.35 0.14,0.66 0.42,0.92 0.28,0.26 0.61,0.39 1,0.39 0.39,0 0.72,-0.13 1,-0.39 0.28,-0.26 0.42,-0.56 0.42,-0.92 0,-0.35 -0.14,-0.66 -0.42,-0.91 -0.28,-0.26 -0.61,-0.39 -1,-0.39 -0.39,0 -0.73,0.13 -1,0.39 m 8.29,-0.09 c -0.28,0.28 -0.42,0.6 -0.42,0.97 0,0.39 0.14,0.72 0.42,1 0.28,0.28 0.62,0.42 1.03,0.42 0.39,0 0.72,-0.14 1,-0.42 0.28,-0.28 0.42,-0.61 0.42,-1 0,-0.37 -0.14,-0.69 -0.42,-0.97 -0.28,-0.28 -0.61,-0.42 -1,-0.42 -0.41,0.01 -0.76,0.15 -1.03,0.42 m -5.55,-2.78 c -0.28,0.27 -0.42,0.59 -0.42,0.96 0,0.39 0.14,0.72 0.42,0.98 0.28,0.27 0.61,0.4 1,0.4 0.37,0 0.69,-0.13 0.97,-0.4 0.28,-0.27 0.42,-0.6 0.42,-0.98 0,-0.37 -0.14,-0.69 -0.42,-0.96 -0.28,-0.27 -0.6,-0.4 -0.97,-0.4 -0.39,-0.01 -0.72,0.13 -1,0.4 m 2.8,-0.02 c -0.28,0.26 -0.42,0.56 -0.42,0.92 0,0.37 0.14,0.68 0.42,0.94 0.28,0.26 0.61,0.39 1,0.39 0.39,0 0.72,-0.13 1,-0.39 0.28,-0.26 0.42,-0.57 0.42,-0.94 0,-0.35 -0.14,-0.66 -0.42,-0.92 -0.28,-0.26 -0.61,-0.39 -1,-0.39 -0.39,0 -0.72,0.13 -1,0.39" /><path
       inkscape:connector-curvature="0"
       id="SVGID_25_"
       d="m 291.13,555.57 c -0.28,0.26 -0.42,0.57 -0.42,0.94 0,0.37 0.14,0.68 0.42,0.94 0.28,0.26 0.62,0.39 1.03,0.39 0.39,0 0.72,-0.13 1,-0.39 0.28,-0.26 0.42,-0.57 0.42,-0.94 0,-0.37 -0.14,-0.68 -0.42,-0.94 -0.28,-0.26 -0.61,-0.39 -1,-0.39 -0.41,0 -0.75,0.13 -1.03,0.39 m 8.33,-0.07 c -0.27,0.27 -0.4,0.59 -0.4,0.96 0,0.39 0.14,0.72 0.4,0.98 0.27,0.27 0.59,0.4 0.98,0.4 0.39,0 0.72,-0.13 0.98,-0.4 0.27,-0.27 0.4,-0.59 0.4,-0.98 0,-0.37 -0.13,-0.69 -0.4,-0.96 -0.27,-0.27 -0.6,-0.4 -0.98,-0.4 -0.38,0 -0.71,0.13 -0.98,0.4 m -8.33,-2.7 c -0.28,0.28 -0.42,0.6 -0.42,0.97 0,0.39 0.14,0.72 0.42,1 0.28,0.28 0.62,0.42 1.03,0.42 0.39,0 0.72,-0.14 1,-0.42 0.28,-0.28 0.42,-0.61 0.42,-1 0,-0.37 -0.14,-0.69 -0.42,-0.97 -0.28,-0.28 -0.61,-0.42 -1,-0.42 -0.41,0 -0.75,0.14 -1.03,0.42 m 8.26,-0.07 c -0.28,0.27 -0.42,0.6 -0.42,0.98 0,0.39 0.14,0.72 0.42,0.99 0.28,0.27 0.62,0.4 1.03,0.4 0.39,0 0.72,-0.13 1,-0.4 0.28,-0.27 0.42,-0.6 0.42,-0.99 0,-0.39 -0.14,-0.72 -0.42,-0.98 -0.28,-0.27 -0.61,-0.4 -1,-0.4 -0.41,-0.01 -0.75,0.13 -1.03,0.4 M 291.13,550 c -0.28,0.28 -0.42,0.6 -0.42,0.97 0,0.39 0.14,0.72 0.42,1 0.28,0.28 0.61,0.42 1,0.42 0.37,0 0.69,-0.14 0.97,-0.42 0.28,-0.28 0.42,-0.61 0.42,-1 0,-0.37 -0.14,-0.69 -0.42,-0.97 -0.28,-0.28 -0.6,-0.42 -0.97,-0.42 -0.39,0 -0.72,0.14 -1,0.42 m 8.28,-0.06 c -0.29,0.28 -0.43,0.6 -0.43,0.97 0,0.39 0.15,0.72 0.43,1 0.29,0.28 0.63,0.42 1.04,0.42 0.39,0 0.73,-0.14 1.01,-0.42 0.29,-0.28 0.43,-0.61 0.43,-1 0,-0.37 -0.14,-0.69 -0.43,-0.97 -0.29,-0.28 -0.62,-0.42 -1.01,-0.42 -0.41,0 -0.76,0.14 -1.04,0.42 m -8.28,-2.68 c -0.28,0.27 -0.42,0.59 -0.42,0.96 0,0.37 0.14,0.69 0.42,0.96 0.28,0.27 0.61,0.4 1,0.4 0.37,0 0.69,-0.14 0.97,-0.4 0.28,-0.27 0.42,-0.59 0.42,-0.96 0,-0.37 -0.14,-0.69 -0.42,-0.96 -0.28,-0.27 -0.6,-0.4 -0.97,-0.4 -0.39,0 -0.72,0.14 -1,0.4 m 8.35,-0.05 c -0.28,0.27 -0.42,0.59 -0.42,0.96 0,0.37 0.14,0.69 0.42,0.96 0.28,0.27 0.61,0.4 1,0.4 0.39,0 0.72,-0.13 1,-0.4 0.28,-0.27 0.42,-0.59 0.42,-0.96 0,-0.37 -0.14,-0.69 -0.42,-0.96 -0.28,-0.27 -0.61,-0.4 -1,-0.4 -0.39,0 -0.73,0.13 -1,0.4 m -2.8,-2.73 c -0.28,0.26 -0.42,0.57 -0.42,0.94 0,0.39 0.14,0.71 0.42,0.97 0.28,0.26 0.61,0.39 1,0.39 0.37,0 0.69,-0.13 0.97,-0.39 0.28,-0.26 0.42,-0.58 0.42,-0.97 0,-0.37 -0.14,-0.68 -0.42,-0.94 -0.28,-0.26 -0.6,-0.39 -0.97,-0.39 -0.39,0 -0.73,0.13 -1,0.39 m -5.55,-0.03 c -0.28,0.28 -0.42,0.61 -0.42,1 0,0.39 0.14,0.72 0.42,1 0.28,0.28 0.61,0.42 1,0.42 0.37,0 0.69,-0.14 0.97,-0.42 0.28,-0.28 0.42,-0.61 0.42,-1 0,-0.39 -0.14,-0.72 -0.42,-1 -0.28,-0.28 -0.6,-0.42 -0.97,-0.42 -0.39,0 -0.72,0.14 -1,0.42 m 2.81,-0.01 c -0.27,0.27 -0.4,0.59 -0.4,0.96 0,0.39 0.13,0.72 0.4,0.98 0.27,0.27 0.59,0.4 0.96,0.4 0.37,0 0.69,-0.13 0.96,-0.4 0.27,-0.27 0.4,-0.6 0.4,-0.98 0,-0.37 -0.13,-0.69 -0.4,-0.96 -0.27,-0.27 -0.59,-0.4 -0.96,-0.4 -0.37,-0.01 -0.69,0.13 -0.96,0.4" /><path
       inkscape:connector-curvature="0"
       id="SVGID_24_"
       d="m 324.4,555.54 c -0.28,0.26 -0.42,0.57 -0.42,0.94 0,0.39 0.14,0.71 0.42,0.97 0.28,0.26 0.61,0.39 1,0.39 0.37,0 0.69,-0.13 0.97,-0.39 0.28,-0.26 0.42,-0.58 0.42,-0.97 0,-0.37 -0.14,-0.68 -0.42,-0.94 -0.28,-0.26 -0.6,-0.39 -0.97,-0.39 -0.39,0 -0.72,0.13 -1,0.39 m 2.79,0 c -0.27,0.26 -0.4,0.57 -0.4,0.94 0,0.39 0.13,0.71 0.4,0.97 0.27,0.26 0.6,0.39 0.98,0.39 0.37,0 0.69,-0.13 0.96,-0.39 0.27,-0.26 0.4,-0.58 0.4,-0.97 0,-0.37 -0.13,-0.68 -0.4,-0.94 -0.27,-0.26 -0.59,-0.39 -0.96,-0.39 -0.39,0 -0.72,0.13 -0.98,0.39 m 2.75,-0.01 c -0.28,0.27 -0.42,0.59 -0.42,0.96 0,0.37 0.14,0.69 0.42,0.96 0.28,0.27 0.61,0.4 1,0.4 0.39,0 0.72,-0.13 1,-0.4 0.28,-0.27 0.42,-0.58 0.42,-0.96 0,-0.37 -0.14,-0.69 -0.42,-0.96 -0.28,-0.27 -0.61,-0.4 -1,-0.4 -0.39,0 -0.72,0.13 -1,0.4 m -8.34,-0.03 c -0.28,0.27 -0.42,0.59 -0.42,0.96 0,0.39 0.14,0.72 0.42,0.98 0.28,0.27 0.61,0.4 1,0.4 0.37,0 0.69,-0.13 0.97,-0.4 0.28,-0.27 0.42,-0.59 0.42,-0.98 0,-0.37 -0.14,-0.69 -0.42,-0.96 -0.28,-0.27 -0.6,-0.4 -0.97,-0.4 -0.39,0 -0.72,0.13 -1,0.4 m 0,-2.79 c -0.28,0.28 -0.42,0.6 -0.42,0.97 0,0.39 0.14,0.72 0.42,1 0.28,0.28 0.62,0.42 1.03,0.42 0.39,0 0.72,-0.14 1,-0.42 0.28,-0.28 0.42,-0.61 0.42,-1 0,-0.37 -0.14,-0.69 -0.42,-0.97 -0.28,-0.28 -0.61,-0.42 -1,-0.42 -0.41,0.01 -0.75,0.15 -1.03,0.42 m 0,-2.78 c -0.28,0.27 -0.42,0.6 -0.42,0.98 0,0.39 0.14,0.72 0.42,0.99 0.28,0.27 0.62,0.4 1.03,0.4 0.39,0 0.72,-0.14 1,-0.4 0.28,-0.27 0.42,-0.6 0.42,-0.99 0,-0.39 -0.14,-0.72 -0.42,-0.98 -0.28,-0.27 -0.61,-0.4 -1,-0.4 -0.41,-0.01 -0.75,0.13 -1.03,0.4 m 0,-2.79 c -0.28,0.28 -0.42,0.6 -0.42,0.97 0,0.39 0.14,0.72 0.42,1 0.28,0.28 0.62,0.42 1.03,0.42 0.41,0 0.75,-0.14 1.03,-0.42 0.28,-0.28 0.42,-0.61 0.42,-1 0,-0.37 -0.14,-0.69 -0.42,-0.97 -0.28,-0.28 -0.62,-0.42 -1.03,-0.42 -0.41,0 -0.75,0.14 -1.03,0.42 m 0,-2.69 c -0.28,0.26 -0.42,0.57 -0.42,0.94 0,0.37 0.14,0.68 0.42,0.94 0.28,0.26 0.62,0.39 1.03,0.39 0.41,0 0.75,-0.13 1.03,-0.39 0.28,-0.26 0.42,-0.57 0.42,-0.94 0,-0.37 -0.14,-0.68 -0.42,-0.94 -0.28,-0.26 -0.62,-0.39 -1.03,-0.39 -0.41,0 -0.75,0.13 -1.03,0.39 m 0,-2.77 c -0.28,0.28 -0.42,0.6 -0.42,0.97 0,0.39 0.14,0.72 0.42,1 0.28,0.28 0.62,0.42 1.03,0.42 0.39,0 0.72,-0.14 1,-0.42 0.28,-0.28 0.42,-0.61 0.42,-1 0,-0.37 -0.14,-0.69 -0.42,-0.97 -0.28,-0.28 -0.61,-0.42 -1,-0.42 -0.41,0 -0.75,0.14 -1.03,0.42 m 0,-2.76 c -0.28,0.27 -0.42,0.59 -0.42,0.96 0,0.39 0.14,0.72 0.42,0.98 0.28,0.27 0.62,0.4 1.03,0.4 0.39,0 0.72,-0.13 1,-0.4 0.28,-0.27 0.42,-0.6 0.42,-0.98 0,-0.37 -0.14,-0.69 -0.42,-0.96 -0.28,-0.27 -0.61,-0.4 -1,-0.4 -0.41,0 -0.75,0.13 -1.03,0.4" /><path
       inkscape:connector-curvature="0"
       id="SVGID_23_"
       d="m 343.78,555.54 c -0.28,0.26 -0.42,0.57 -0.42,0.94 0,0.39 0.14,0.71 0.42,0.97 0.28,0.26 0.61,0.39 1,0.39 0.37,0 0.69,-0.13 0.97,-0.39 0.28,-0.26 0.42,-0.58 0.42,-0.97 0,-0.37 -0.14,-0.68 -0.42,-0.94 -0.28,-0.26 -0.6,-0.39 -0.97,-0.39 -0.39,0 -0.72,0.13 -1,0.39 m -5.56,-0.01 c -0.27,0.27 -0.4,0.59 -0.4,0.96 0,0.37 0.13,0.69 0.4,0.96 0.27,0.27 0.6,0.4 0.98,0.4 0.37,0 0.69,-0.13 0.96,-0.4 0.27,-0.27 0.4,-0.58 0.4,-0.96 0,-0.37 -0.14,-0.69 -0.4,-0.96 -0.27,-0.27 -0.59,-0.4 -0.96,-0.4 -0.38,0 -0.71,0.13 -0.98,0.4 m 2.76,0 c -0.28,0.27 -0.42,0.59 -0.42,0.96 0,0.37 0.14,0.69 0.42,0.96 0.28,0.27 0.61,0.4 1,0.4 0.37,0 0.69,-0.13 0.97,-0.4 0.28,-0.27 0.42,-0.58 0.42,-0.96 0,-0.37 -0.14,-0.69 -0.42,-0.96 -0.28,-0.27 -0.6,-0.4 -0.97,-0.4 -0.39,0 -0.72,0.13 -1,0.4 m -5.52,-2.76 c -0.28,0.26 -0.42,0.56 -0.42,0.92 0,0.35 0.14,0.65 0.42,0.91 0.28,0.26 0.62,0.39 1.03,0.39 0.41,0 0.75,-0.13 1.03,-0.39 0.28,-0.26 0.42,-0.56 0.42,-0.91 0,-0.35 -0.14,-0.66 -0.42,-0.92 -0.28,-0.26 -0.62,-0.39 -1.03,-0.39 -0.41,0 -0.75,0.13 -1.03,0.39 m 8.32,0.01 c -0.28,0.27 -0.42,0.6 -0.42,0.98 0,0.39 0.14,0.72 0.42,0.99 0.28,0.27 0.61,0.4 1,0.4 0.39,0 0.72,-0.14 1,-0.4 0.28,-0.27 0.42,-0.6 0.42,-0.99 0,-0.39 -0.14,-0.72 -0.42,-0.98 -0.28,-0.27 -0.61,-0.4 -1,-0.4 -0.39,0 -0.72,0.13 -1,0.4 m -5.57,-2.73 c -0.28,0.26 -0.42,0.57 -0.42,0.94 0,0.37 0.14,0.68 0.42,0.94 0.28,0.26 0.61,0.39 1,0.39 0.39,0 0.72,-0.13 1,-0.39 0.28,-0.26 0.42,-0.57 0.42,-0.94 0,-0.37 -0.14,-0.68 -0.42,-0.94 -0.28,-0.26 -0.61,-0.39 -1,-0.39 -0.39,0 -0.73,0.13 -1,0.39 m 2.81,-0.01 c -0.27,0.25 -0.4,0.55 -0.4,0.9 0,0.37 0.13,0.68 0.4,0.93 0.27,0.25 0.59,0.37 0.96,0.37 0.37,0 0.69,-0.13 0.96,-0.37 0.27,-0.25 0.4,-0.56 0.4,-0.93 0,-0.35 -0.14,-0.65 -0.4,-0.9 -0.27,-0.25 -0.59,-0.37 -0.96,-0.37 -0.37,0 -0.69,0.12 -0.96,0.37 m 2.76,-0.1 c -0.28,0.28 -0.42,0.61 -0.42,1 0,0.41 0.14,0.75 0.42,1.02 0.28,0.28 0.62,0.42 1.03,0.42 0.39,0 0.72,-0.14 1,-0.42 0.28,-0.28 0.42,-0.62 0.42,-1.02 0,-0.39 -0.14,-0.72 -0.42,-1 -0.28,-0.28 -0.61,-0.42 -1,-0.42 -0.41,0 -0.75,0.14 -1.03,0.42 m 0.07,-2.79 c -0.27,0.27 -0.4,0.6 -0.4,0.98 0,0.39 0.13,0.72 0.4,0.99 0.27,0.27 0.6,0.4 0.98,0.4 0.39,0 0.72,-0.13 0.98,-0.4 0.27,-0.27 0.4,-0.6 0.4,-0.99 0,-0.39 -0.14,-0.72 -0.4,-0.98 -0.27,-0.27 -0.59,-0.4 -0.98,-0.4 -0.39,0 -0.71,0.14 -0.98,0.4 m -5.64,-2.71 c -0.28,0.27 -0.42,0.59 -0.42,0.96 0,0.37 0.14,0.69 0.42,0.96 0.28,0.27 0.61,0.4 1,0.4 0.39,0 0.72,-0.13 1,-0.4 0.28,-0.27 0.42,-0.59 0.42,-0.96 0,-0.37 -0.14,-0.69 -0.42,-0.96 -0.28,-0.27 -0.61,-0.4 -1,-0.4 -0.39,-0.01 -0.73,0.13 -1,0.4 m 2.82,0 c -0.28,0.27 -0.42,0.59 -0.42,0.96 0,0.37 0.14,0.69 0.42,0.96 0.28,0.27 0.62,0.4 1.03,0.4 0.41,0 0.75,-0.13 1.03,-0.4 0.28,-0.27 0.42,-0.59 0.42,-0.96 0,-0.37 -0.14,-0.69 -0.42,-0.96 -0.28,-0.27 -0.62,-0.4 -1.03,-0.4 -0.41,0 -0.75,0.13 -1.03,0.4" /><path
       inkscape:connector-curvature="0"
       id="SVGID_22_"
       d="m 349.32,555.53 c -0.28,0.27 -0.42,0.59 -0.42,0.96 0,0.37 0.14,0.69 0.42,0.96 0.28,0.27 0.62,0.4 1.03,0.4 0.39,0 0.72,-0.13 1,-0.4 0.28,-0.27 0.42,-0.58 0.42,-0.96 0,-0.37 -0.14,-0.69 -0.42,-0.96 -0.28,-0.27 -0.61,-0.4 -1,-0.4 -0.41,0 -0.75,0.13 -1.03,0.4 m 2.85,-0.06 c -0.27,0.27 -0.4,0.6 -0.4,0.98 0,0.39 0.14,0.72 0.4,0.98 0.27,0.27 0.59,0.4 0.98,0.4 0.37,0 0.69,-0.13 0.96,-0.4 0.27,-0.27 0.4,-0.59 0.4,-0.98 0,-0.39 -0.13,-0.72 -0.4,-0.98 -0.27,-0.27 -0.59,-0.4 -0.96,-0.4 -0.39,0 -0.72,0.13 -0.98,0.4 m 2.75,0 c -0.28,0.27 -0.42,0.6 -0.42,0.98 0,0.39 0.14,0.72 0.42,0.98 0.28,0.27 0.61,0.4 1,0.4 0.39,0 0.72,-0.13 1,-0.4 0.28,-0.27 0.42,-0.59 0.42,-0.98 0,-0.39 -0.14,-0.72 -0.42,-0.98 -0.28,-0.27 -0.61,-0.4 -1,-0.4 -0.39,0 -0.72,0.13 -1,0.4 m -5.6,-2.73 c -0.28,0.28 -0.42,0.6 -0.42,0.97 0,0.39 0.14,0.72 0.42,1 0.28,0.28 0.62,0.42 1.03,0.42 0.39,0 0.72,-0.14 1,-0.42 0.28,-0.28 0.42,-0.61 0.42,-1 0,-0.37 -0.14,-0.69 -0.42,-0.97 -0.28,-0.28 -0.61,-0.42 -1,-0.42 -0.41,0 -0.75,0.14 -1.03,0.42 m 8.35,0 c -0.28,0.28 -0.42,0.61 -0.42,1 0,0.41 0.14,0.75 0.42,1.03 0.28,0.28 0.62,0.42 1.03,0.42 0.41,0 0.75,-0.14 1.03,-0.42 0.28,-0.28 0.42,-0.62 0.42,-1.03 0,-0.39 -0.14,-0.72 -0.42,-1 -0.28,-0.28 -0.62,-0.42 -1.03,-0.42 -0.41,0 -0.75,0.14 -1.03,0.42 m -0.07,-2.66 c -0.29,0.26 -0.43,0.56 -0.43,0.91 0,0.37 0.14,0.68 0.43,0.94 0.29,0.26 0.64,0.39 1.07,0.39 0.41,0 0.75,-0.13 1.04,-0.39 0.29,-0.26 0.43,-0.57 0.43,-0.94 0,-0.35 -0.14,-0.66 -0.43,-0.91 -0.29,-0.26 -0.63,-0.39 -1.04,-0.39 -0.43,0 -0.78,0.13 -1.07,0.39 m -8.28,-0.14 c -0.28,0.28 -0.42,0.6 -0.42,0.97 0,0.39 0.14,0.72 0.42,1 0.28,0.28 0.62,0.42 1.03,0.42 0.39,0 0.72,-0.14 1,-0.42 0.28,-0.28 0.42,-0.61 0.42,-1 0,-0.37 -0.14,-0.69 -0.42,-0.97 -0.28,-0.28 -0.61,-0.42 -1,-0.42 -0.41,0 -0.75,0.14 -1.03,0.42 m 0,-2.73 c -0.28,0.27 -0.42,0.59 -0.42,0.96 0,0.37 0.14,0.69 0.42,0.96 0.28,0.27 0.62,0.4 1.03,0.4 0.39,0 0.72,-0.13 1,-0.4 0.28,-0.27 0.42,-0.59 0.42,-0.96 0,-0.37 -0.14,-0.69 -0.42,-0.96 -0.28,-0.27 -0.61,-0.4 -1,-0.4 -0.41,0 -0.75,0.13 -1.03,0.4 m 8.27,0.01 c -0.28,0.28 -0.42,0.62 -0.42,1.03 0,0.41 0.14,0.75 0.42,1.03 0.28,0.28 0.62,0.42 1.03,0.42 0.41,0 0.75,-0.14 1.03,-0.42 0.28,-0.28 0.42,-0.62 0.42,-1.03 0,-0.41 -0.14,-0.75 -0.42,-1.03 -0.28,-0.28 -0.62,-0.42 -1.03,-0.42 -0.42,0.01 -0.76,0.15 -1.03,0.42 m -5.48,-2.78 c -0.2,0.2 -0.33,0.43 -0.38,0.69 -0.06,-0.25 -0.19,-0.47 -0.39,-0.67 -0.28,-0.27 -0.61,-0.4 -1,-0.4 -0.41,0 -0.75,0.14 -1.03,0.4 -0.28,0.27 -0.42,0.59 -0.42,0.96 0,0.39 0.14,0.72 0.42,0.99 0.28,0.27 0.62,0.4 1.03,0.4 0.39,0 0.72,-0.13 1,-0.4 0.21,-0.2 0.34,-0.44 0.39,-0.72 0.05,0.25 0.18,0.47 0.37,0.66 0.27,0.27 0.6,0.4 0.98,0.4 0.39,0 0.72,-0.13 0.98,-0.4 0.27,-0.27 0.4,-0.59 0.4,-0.96 0,-0.37 -0.13,-0.69 -0.4,-0.96 -0.27,-0.27 -0.6,-0.4 -0.98,-0.4 -0.37,0 -0.7,0.14 -0.97,0.41 m 2.77,0.01 c -0.27,0.28 -0.4,0.61 -0.4,1 0,0.39 0.14,0.72 0.4,1 0.27,0.28 0.59,0.42 0.96,0.42 0.37,0 0.69,-0.14 0.96,-0.42 0.27,-0.28 0.4,-0.61 0.4,-1 0,-0.39 -0.13,-0.72 -0.4,-1 -0.27,-0.28 -0.59,-0.42 -0.96,-0.42 -0.37,0 -0.69,0.14 -0.96,0.42 m -5.56,-2.8 c -0.28,0.28 -0.42,0.61 -0.42,1 0,0.39 0.14,0.72 0.42,1 0.28,0.28 0.62,0.42 1.03,0.42 0.39,0 0.72,-0.14 1,-0.42 0.28,-0.28 0.42,-0.61 0.42,-1 0,-0.39 -0.14,-0.72 -0.42,-1 -0.28,-0.28 -0.61,-0.42 -1,-0.42 -0.41,0 -0.75,0.14 -1.03,0.42 m 0,-2.73 c -0.28,0.27 -0.42,0.59 -0.42,0.96 0,0.37 0.14,0.69 0.42,0.96 0.28,0.27 0.62,0.4 1.03,0.4 0.39,0 0.72,-0.13 1,-0.4 0.28,-0.27 0.42,-0.59 0.42,-0.96 0,-0.37 -0.14,-0.69 -0.42,-0.96 -0.28,-0.27 -0.61,-0.4 -1,-0.4 -0.41,0 -0.75,0.13 -1.03,0.4" /><path
       inkscape:connector-curvature="0"
       id="SVGID_21_"
       d="m 365.99,555.62 c -0.28,0.26 -0.42,0.56 -0.42,0.91 0,0.35 0.14,0.66 0.42,0.91 0.28,0.26 0.61,0.39 1,0.39 0.39,0 0.72,-0.13 1,-0.39 0.28,-0.26 0.42,-0.56 0.42,-0.91 0,-0.35 -0.14,-0.66 -0.42,-0.91 -0.28,-0.26 -0.61,-0.39 -1,-0.39 -0.39,0.01 -0.73,0.14 -1,0.39 m 2.81,-0.08 c -0.27,0.26 -0.4,0.57 -0.4,0.94 0,0.39 0.13,0.71 0.4,0.97 0.27,0.26 0.6,0.39 0.98,0.39 0.39,0 0.72,-0.13 0.99,-0.39 0.27,-0.26 0.4,-0.58 0.4,-0.97 0,-0.37 -0.14,-0.68 -0.4,-0.94 -0.27,-0.26 -0.6,-0.39 -0.99,-0.39 -0.38,0 -0.71,0.13 -0.98,0.39 m -5.61,-2.74 c -0.28,0.26 -0.42,0.57 -0.42,0.94 0,0.39 0.14,0.71 0.42,0.97 0.28,0.26 0.61,0.39 1,0.39 0.39,0 0.72,-0.13 1,-0.39 0.28,-0.26 0.42,-0.58 0.42,-0.97 0,-0.37 -0.14,-0.68 -0.42,-0.94 -0.28,-0.26 -0.61,-0.39 -1,-0.39 -0.39,0 -0.73,0.13 -1,0.39 m 0,-2.76 c -0.28,0.27 -0.42,0.59 -0.42,0.96 0,0.37 0.14,0.69 0.42,0.96 0.28,0.27 0.61,0.4 1,0.4 0.37,0 0.69,-0.14 0.97,-0.4 0.28,-0.27 0.42,-0.58 0.42,-0.96 0,-0.37 -0.14,-0.69 -0.42,-0.96 -0.28,-0.27 -0.6,-0.4 -0.97,-0.4 -0.39,0 -0.73,0.13 -1,0.4 m 2.78,-0.03 c -0.27,0.27 -0.4,0.59 -0.4,0.96 0,0.39 0.13,0.72 0.4,0.98 0.27,0.27 0.6,0.4 0.98,0.4 0.37,0 0.69,-0.14 0.96,-0.4 0.27,-0.27 0.4,-0.59 0.4,-0.98 0,-0.37 -0.13,-0.69 -0.4,-0.96 -0.27,-0.27 -0.59,-0.4 -0.96,-0.4 -0.38,0 -0.71,0.13 -0.98,0.4 m 2.76,0 c -0.28,0.27 -0.42,0.59 -0.42,0.96 0,0.37 0.14,0.69 0.42,0.96 0.28,0.27 0.61,0.4 1,0.4 0.37,0 0.69,-0.13 0.97,-0.4 0.28,-0.27 0.42,-0.59 0.42,-0.96 0,-0.37 -0.14,-0.69 -0.42,-0.96 -0.28,-0.27 -0.6,-0.4 -0.97,-0.4 -0.39,0 -0.72,0.13 -1,0.4 m 2.8,0 c -0.28,0.27 -0.42,0.59 -0.42,0.96 0,0.37 0.14,0.69 0.42,0.96 0.28,0.27 0.61,0.4 1,0.4 0.39,0 0.72,-0.13 1,-0.4 0.28,-0.27 0.42,-0.59 0.42,-0.96 0,-0.37 -0.14,-0.69 -0.42,-0.96 -0.28,-0.27 -0.61,-0.4 -1,-0.4 -0.39,0 -0.72,0.13 -1,0.4 m -8.34,-2.82 c -0.28,0.28 -0.42,0.61 -0.42,1 0,0.41 0.14,0.75 0.42,1.03 0.28,0.28 0.61,0.42 1,0.42 0.37,0 0.69,-0.14 0.97,-0.42 0.28,-0.28 0.42,-0.62 0.42,-1.03 0,-0.39 -0.14,-0.72 -0.42,-1 -0.28,-0.28 -0.6,-0.42 -0.97,-0.42 -0.39,0.01 -0.73,0.15 -1,0.42 m 8.34,-0.05 c -0.28,0.28 -0.42,0.62 -0.42,1.03 0,0.41 0.14,0.75 0.42,1.03 0.28,0.28 0.61,0.42 1,0.42 0.39,0 0.72,-0.14 1,-0.42 0.28,-0.28 0.42,-0.62 0.42,-1.03 0,-0.41 -0.14,-0.75 -0.42,-1.03 -0.28,-0.28 -0.61,-0.42 -1,-0.42 -0.39,0 -0.72,0.14 -1,0.42 m -5.6,-2.65 c -0.28,0.27 -0.42,0.59 -0.42,0.96 0,0.37 0.14,0.69 0.42,0.96 0.28,0.27 0.61,0.4 1,0.4 0.39,0 0.72,-0.13 1,-0.4 0.28,-0.27 0.42,-0.59 0.42,-0.96 0,-0.37 -0.14,-0.69 -0.42,-0.96 -0.28,-0.27 -0.61,-0.4 -1,-0.4 -0.39,0 -0.72,0.13 -1,0.4 m 2.81,-0.09 c -0.27,0.28 -0.4,0.61 -0.4,1 0,0.39 0.13,0.72 0.4,1 0.27,0.28 0.6,0.42 0.99,0.42 0.37,0 0.69,-0.14 0.96,-0.42 0.27,-0.28 0.4,-0.61 0.4,-1 0,-0.39 -0.14,-0.72 -0.4,-1 -0.27,-0.28 -0.59,-0.42 -0.96,-0.42 -0.39,0 -0.72,0.14 -0.99,0.42" /><path
       inkscape:connector-curvature="0"
       id="SVGID_20_"
       d="m 377.05,555.57 c -0.28,0.26 -0.42,0.57 -0.42,0.94 0,0.37 0.14,0.68 0.42,0.94 0.28,0.26 0.61,0.39 1,0.39 0.37,0 0.69,-0.13 0.97,-0.39 0.28,-0.26 0.42,-0.57 0.42,-0.94 0,-0.37 -0.14,-0.68 -0.42,-0.94 -0.28,-0.26 -0.6,-0.39 -0.97,-0.39 -0.39,0 -0.72,0.13 -1,0.39 m 2.79,-0.04 c -0.27,0.27 -0.4,0.59 -0.4,0.96 0,0.37 0.14,0.69 0.4,0.96 0.27,0.27 0.6,0.4 0.98,0.4 0.38,0 0.72,-0.13 0.98,-0.4 0.27,-0.27 0.4,-0.58 0.4,-0.96 0,-0.37 -0.13,-0.69 -0.4,-0.96 -0.27,-0.27 -0.6,-0.4 -0.98,-0.4 -0.38,0 -0.72,0.13 -0.98,0.4 m 2.78,0 c -0.28,0.27 -0.42,0.59 -0.42,0.96 0,0.37 0.14,0.69 0.42,0.96 0.28,0.27 0.61,0.4 1,0.4 0.39,0 0.72,-0.13 1,-0.4 0.28,-0.27 0.42,-0.58 0.42,-0.96 0,-0.37 -0.14,-0.69 -0.42,-0.96 -0.28,-0.27 -0.61,-0.4 -1,-0.4 -0.39,0 -0.72,0.13 -1,0.4 m -2.77,-2.78 c -0.28,0.27 -0.42,0.6 -0.42,0.98 0,0.39 0.14,0.72 0.42,0.99 0.28,0.27 0.62,0.4 1.03,0.4 0.39,0 0.72,-0.13 1,-0.4 0.28,-0.27 0.42,-0.6 0.42,-0.99 0,-0.39 -0.14,-0.72 -0.42,-0.98 -0.28,-0.27 -0.61,-0.4 -1,-0.4 -0.41,0 -0.75,0.14 -1.03,0.4 m -0.04,-2.78 c -0.29,0.28 -0.43,0.6 -0.43,0.97 0,0.39 0.14,0.72 0.43,1 0.29,0.28 0.63,0.42 1.04,0.42 0.39,0 0.73,-0.14 1.01,-0.42 0.29,-0.28 0.43,-0.61 0.43,-1 0,-0.37 -0.14,-0.69 -0.43,-0.97 -0.29,-0.28 -0.62,-0.42 -1.01,-0.42 -0.41,0 -0.76,0.14 -1.04,0.42 m -0.02,-2.76 c -0.28,0.27 -0.42,0.59 -0.42,0.96 0,0.39 0.14,0.72 0.42,0.98 0.28,0.27 0.61,0.4 1,0.4 0.39,0 0.72,-0.13 1,-0.4 0.28,-0.27 0.42,-0.6 0.42,-0.98 0,-0.37 -0.14,-0.69 -0.42,-0.96 -0.28,-0.27 -0.61,-0.4 -1,-0.4 -0.39,0 -0.72,0.13 -1,0.4 m 0.03,-2.79 c -0.28,0.28 -0.42,0.6 -0.42,0.97 0,0.39 0.14,0.72 0.42,1 0.28,0.28 0.61,0.42 1,0.42 0.37,0 0.69,-0.14 0.97,-0.42 0.28,-0.28 0.42,-0.61 0.42,-1 0,-0.37 -0.14,-0.69 -0.42,-0.97 -0.28,-0.28 -0.6,-0.42 -0.97,-0.42 -0.39,0.01 -0.72,0.15 -1,0.42 m 0,-2.73 c -0.28,0.27 -0.42,0.59 -0.42,0.96 0,0.37 0.14,0.69 0.42,0.96 0.28,0.27 0.61,0.4 1,0.4 0.37,0 0.69,-0.13 0.97,-0.4 0.28,-0.27 0.42,-0.59 0.42,-0.96 0,-0.37 -0.14,-0.69 -0.42,-0.96 -0.28,-0.27 -0.6,-0.4 -0.97,-0.4 -0.39,0 -0.72,0.13 -1,0.4 m -2.77,-2.78 c -0.28,0.26 -0.42,0.56 -0.42,0.91 0,0.37 0.14,0.68 0.42,0.94 0.28,0.26 0.61,0.39 1,0.39 0.39,0 0.72,-0.13 1,-0.39 0.28,-0.26 0.42,-0.57 0.42,-0.94 0,-0.35 -0.14,-0.66 -0.42,-0.91 -0.28,-0.26 -0.61,-0.39 -1,-0.39 -0.39,0 -0.72,0.13 -1,0.39 m 2.83,0 c -0.28,0.26 -0.42,0.56 -0.42,0.91 0,0.37 0.14,0.68 0.42,0.94 0.28,0.26 0.61,0.39 1,0.39 0.37,0 0.69,-0.13 0.97,-0.39 0.28,-0.26 0.42,-0.57 0.42,-0.94 0,-0.35 -0.14,-0.66 -0.42,-0.91 -0.28,-0.26 -0.6,-0.39 -0.97,-0.39 -0.39,0 -0.73,0.13 -1,0.39" /></defs><sodipodi:namedview
     id="base"
     pagecolor="#ffffff"
     bordercolor="#666666"
     borderopacity="1.0"
     inkscape:pageopacity="0"
     inkscape:pageshadow="2"
     inkscape:zoom="1.98"
     inkscape:cx="177.0202"
     inkscape:cy="42.171717"
     inkscape:document-units="mm"
     inkscape:current-layer="g5165"
     showgrid="false"
     inkscape:window-width="1553"
     inkscape:window-height="911"
     inkscape:window-x="0"
     inkscape:window-y="44"
     inkscape:window-maximized="0"
     inkscape:showpageshadow="2"
     inkscape:pagecheckerboard="0"
     inkscape:deskcolor="#ffffff" /><metadata
     id="metadata5"><rdf:RDF><cc:Work
         rdf:about=""><dc:format>image/svg+xml</dc:format><dc:type
           rdf:resource="http://purl.org/dc/dcmitype/StillImage" /></cc:Work></rdf:RDF></metadata><g
     inkscape:label="Layer 1"
     inkscape:groupmode="layer"
     id="layer1"
     transform="translate(0,-87)"><g
       transform="translate(-217.18142,-41.426177)"
       id="layer1-0"
       inkscape:label="Layer 1"><flowRoot
         transform="matrix(0.26458333,0,0,0.26458333,0,81)"
         style="font-style:normal;font-weight:normal;font-size:40px;line-height:1.25;font-family:sans-serif;letter-spacing:0px;word-spacing:0px;fill:#000000;fill-opacity:1;stroke:none"
         id="flowRoot1148"
         xml:space="preserve"><flowRegion
           id="flowRegion1150"><rect
             y="577.09222"
             x="1027.1428"
             height="169.28572"
             width="495"
             id="rect1152" /></flowRegion><flowPara
           id="flowPara1154" /></flowRoot><g
         transform="translate(-0.52916667)"
         id="g5165"><g
           id="g427"
           transform="matrix(2.087883,0,0,2.087883,-496.63308,-517.86405)"
           style="fill:#000000"><path
             style="fill:#000000;fill-opacity:1;stroke-width:0.106037"
             d="m 347.19378,320.80694 c -0.0404,-0.0404 -0.28726,-0.11343 -0.54853,-0.16224 -1.88442,-0.35205 -3.60673,-2.10676 -4.13746,-4.21528 -0.30007,-1.19216 -0.14998,-2.27462 0.50239,-3.6232 0.41232,-0.85235 1.59311,-2.07332 2.3507,-2.43069 0.67522,-0.31851 1.96219,-0.64438 2.54488,-0.64438 0.58424,0 1.8714,0.32642 2.54489,0.64538 0.70162,0.33228 1.96213,1.58674 2.33486,2.32366 0.34982,0.6916 0.68719,1.96704 0.68719,2.5979 0,0.58269 -0.32587,1.86967 -0.64438,2.54489 -0.55612,1.17891 -2.28397,2.50509 -3.68366,2.8273 -0.63752,0.14676 -1.85546,0.23208 -1.95088,0.13666 z m 2.2335,-1.17618 c 1.25646,-0.44625 2.42973,-1.59098 2.82701,-2.75823 0.15747,-0.46265 0.20972,-0.88935 0.20579,-1.68048 -0.005,-0.98108 -0.032,-1.11587 -0.36267,-1.80263 -0.46849,-0.97296 -1.30659,-1.81201 -2.28298,-2.28558 -0.7062,-0.34251 -0.79894,-0.36001 -1.90867,-0.36001 -1.09304,0 -1.20976,0.0211 -1.85565,0.33509 -0.86713,0.42157 -1.46676,0.9327 -1.93156,1.64647 -0.59923,0.92023 -0.77238,1.49695 -0.77238,2.5727 0,1.35808 0.37394,2.25927 1.33713,3.22246 0.68976,0.68976 1.53157,1.14859 2.42718,1.32295 0.4983,0.097 1.77469,-0.0202 2.3168,-0.21274 z m -3.79378,-2.87483 c -0.52745,-0.26895 -0.77796,-0.6695 -0.8261,-1.3209 -0.0508,-0.6876 0.1806,-1.19076 0.71253,-1.5492 0.30985,-0.20879 0.47205,-0.24302 0.98226,-0.20732 0.96263,0.0674 1.55645,0.63783 0.90311,0.8676 -0.22401,0.0788 -0.33241,0.0616 -0.48552,-0.077 -0.29036,-0.26276 -0.83085,-0.23084 -1.0191,0.0602 -0.35339,0.54636 -0.29259,1.29735 0.13305,1.64357 0.22445,0.18257 0.81048,0.16657 0.97072,-0.0265 0.14917,-0.17974 0.40263,-0.20295 0.632,-0.0579 0.13198,0.0835 0.12416,0.13236 -0.053,0.33113 -0.45874,0.51463 -1.31169,0.66173 -1.94993,0.33629 z m 3.21559,0.0342 c -0.54615,-0.23775 -0.78433,-0.67996 -0.78388,-1.45536 4e-4,-0.82588 0.25455,-1.30223 0.82069,-1.53878 0.49689,-0.20762 1.32286,-0.13866 1.69851,0.14181 0.38091,0.28438 0.40604,0.43501 0.0962,0.5762 -0.21206,0.0966 -0.31206,0.0865 -0.50909,-0.0515 -0.65769,-0.46067 -1.31559,0.0289 -1.23124,0.91621 0.0264,0.27809 0.13373,0.59951 0.23893,0.71575 0.2322,0.25657 0.75786,0.27686 1.02027,0.0394 0.19908,-0.18017 0.72837,-0.13104 0.72837,0.0676 0,0.15921 -0.40076,0.52453 -0.70037,0.63844 -0.37379,0.14211 -0.98855,0.11992 -1.37835,-0.0498 z m 11.02195,3.86886 c -2.10148,-0.58903 -3.57379,-2.10466 -4.10863,-4.22954 -0.30113,-1.19634 -0.1484,-2.31061 0.49664,-3.6232 0.41824,-0.85107 1.60338,-2.07305 2.35644,-2.42969 0.67349,-0.31896 1.96065,-0.64538 2.54489,-0.64538 0.58193,0 1.86879,0.3256 2.54488,0.64389 0.69389,0.32668 2.05149,1.68428 2.37816,2.37816 0.3183,0.67609 0.6439,1.96296 0.6439,2.54489 0,0.58269 -0.32588,1.86967 -0.64439,2.54489 -0.35736,0.75758 -1.57834,1.93837 -2.43069,2.35069 -1.37615,0.66571 -2.55055,0.81023 -3.7812,0.46529 z m 2.82687,-1.0268 c 1.19428,-0.47197 2.17694,-1.37306 2.68283,-2.46012 0.30479,-0.65493 0.32944,-0.79427 0.33158,-1.87395 0.002,-1.112 -0.0145,-1.20103 -0.35769,-1.90867 -0.47219,-0.97354 -1.31204,-1.81339 -2.28559,-2.28558 -0.70619,-0.34251 -0.79893,-0.36001 -1.90866,-0.36001 -1.10887,0 -1.20303,0.0177 -1.90867,0.35918 -0.9482,0.45883 -1.7854,1.30182 -2.27414,2.28983 -0.34468,0.69679 -0.3658,0.80222 -0.37113,1.85223 -0.006,1.13375 0.0186,1.23466 0.55887,2.31811 0.21671,0.43457 1.08777,1.33091 1.60251,1.64901 0.3531,0.21822 1.05672,0.50641 1.54426,0.63251 0.41462,0.10725 1.91483,-0.0264 2.38583,-0.21254 z m -2.25778,-0.84818 c -0.0413,-0.0413 -0.075,-0.64088 -0.075,-1.33246 v -1.25742 l -0.31811,-0.0636 -0.31811,-0.0636 v -1.13195 c 0,-0.73902 0.0442,-1.17611 0.12724,-1.25918 0.17501,-0.17502 2.4335,-0.17502 2.60851,0 0.0831,0.0831 0.12725,0.52016 0.12725,1.25918 v 1.13195 l -0.31482,0.063 -0.31482,0.063 -0.0298,1.30226 -0.0298,1.30226 -0.69373,0.0309 c -0.38156,0.017 -0.7275,-0.003 -0.76877,-0.0442 z m 0.24308,-5.76568 c -0.29716,-0.29716 -0.28449,-0.89159 0.0236,-1.10738 0.32144,-0.22515 0.67651,-0.20722 0.93074,0.047 0.43791,0.43791 0.12496,1.27244 -0.47717,1.27244 -0.1458,0 -0.36053,-0.0954 -0.47717,-0.21207 z"
             id="path1167"
             inkscape:connector-curvature="0"
             sodipodi:nodetypes="sssssssssssssscsssssssssssssscsssssssscsssssssssssssssssssssssscssssscsssscscccsssscccccsccssssss" /><path
             style="fill:#000000;stroke-width:0.0920653"
             d="m 373.2346,320.83203 c -2.42918,-0.52709 -4.27002,-2.6367 -4.48021,-5.13431 l -0.0558,-0.66204 0.13638,-0.75615 0.13638,-0.75615 0.32421,-0.67087 c 0.73934,-1.52991 2.23285,-2.74355 3.83484,-3.1162 l 0.50637,-0.1178 0.82858,0.005 0.82859,0.005 0.59842,0.15661 c 0.32914,0.0861 0.88749,0.30815 1.24078,0.49336 l 0.64234,0.33678 0.6472,0.6472 0.6472,0.6472 0.33636,0.64234 c 0.185,0.3533 0.41024,0.89093 0.50052,1.19475 l 0.16417,0.55239 0.003,0.92066 0.003,0.92064 -0.12357,0.50637 c -0.0679,0.2785 -0.26124,0.79636 -0.42953,1.15081 l -0.30598,0.64446 -0.46761,0.52233 c -0.55304,0.61778 -1.15594,1.07607 -1.90351,1.44699 l -0.54395,0.26987 -0.70831,0.1463 c -0.84767,0.1751 -1.56848,0.17645 -2.36121,0.004 z m 2.36955,-1.00459 c 0.27184,-0.0724 0.72693,-0.24793 1.01131,-0.39018 l 0.51704,-0.25864 0.6019,-0.59842 0.60189,-0.59842 0.2481,-0.46722 c 0.13645,-0.25697 0.3116,-0.71105 0.38922,-1.00906 l 0.14113,-0.54181 v -0.62059 c 0,-0.83089 -0.14429,-1.47578 -0.48888,-2.18505 l -0.28602,-0.58871 -0.56433,-0.57273 -0.56433,-0.57272 -0.68238,-0.33473 -0.68238,-0.33475 -0.49591,-0.0919 c -1.08174,-0.20058 -2.20456,-0.0311 -3.15704,0.47659 l -0.53985,0.28773 -0.5735,0.61032 c -0.6588,0.70108 -1.01391,1.3094 -1.21493,2.08114 l -0.14113,0.54183 v 0.57455 c 0,0.81911 0.15576,1.45705 0.53233,2.18026 l 0.32802,0.62995 0.52482,0.52482 0.52482,0.52482 0.5871,0.31331 c 0.73426,0.39184 1.31575,0.53587 2.19825,0.54448 l 0.69049,0.007 0.49426,-0.13155 z m -2.1054,-1.57283 -0.41429,-0.12864 -0.34792,-0.28816 c -0.36649,-0.30352 -0.69358,-0.8512 -0.80752,-1.3521 l -0.068,-0.29922 h 0.66683 0.66683 l 0.14097,0.35888 0.14097,0.35886 0.2446,0.16027 0.24461,0.16028 0.48,0.005 0.47999,0.005 0.25848,-0.17084 c 0.14218,-0.094 0.34902,-0.3406 0.45967,-0.54806 l 0.20118,-0.37722 7e-4,-0.82859 6.9e-4,-0.82859 -0.19044,-0.36825 -0.19045,-0.36827 -0.31591,-0.16653 -0.31592,-0.16653 -0.44895,0.0485 -0.44896,0.0485 -0.2262,0.14822 c -0.18632,0.12208 -0.48703,0.62925 -0.48703,0.82142 0,0.027 0.0927,0.049 0.20615,0.049 h 0.20615 l -0.52839,0.52839 -0.52837,0.52837 -0.52837,-0.52837 -0.52839,-0.52839 0.18314,-1.2e-4 0.18313,-1.3e-4 0.16417,-0.55868 0.16418,-0.55868 0.41251,-0.4009 0.4125,-0.4009 0.47094,-0.15643 0.47093,-0.15641 0.65559,0.043 0.6556,0.043 0.46862,0.23863 0.46861,0.23863 0.30422,0.34648 c 0.16731,0.19056 0.39145,0.53502 0.49807,0.76545 l 0.19386,0.41898 v 0.96668 0.9667 l -0.24809,0.47022 -0.24809,0.47024 -0.45669,0.4106 -0.45668,0.41059 -0.47964,0.15491 -0.47963,0.15491 -0.47277,-0.007 c -0.26002,-0.003 -0.6592,-0.0643 -0.88706,-0.13506 z"
             id="path390" /></g></g></g></g><style
     type="text/css"
     id="style4200">
	.st0{fill:#7F00FF;}
	.st1{fill:url(#path4517_1_);}
	.st2{fill:url(#path4541_1_);}
	.st3{fill:url(#path4567_1_);}
	.st4{fill:url(#path4589_1_);}
	.st5{fill:url(#path4611_1_);}
	.st6{fill:url(#path4633_1_);}
	.st7{fill:url(#path4655_1_);}
	.st8{fill:url(#path4677_1_);}
	.st9{fill:url(#path4699_1_);}
	.st10{fill:url(#path4721_1_);}
	.st11{fill:#FFFFFF;stroke:#231F20;stroke-miterlimit:10;}
	.st12{clip-path:url(#SVGID_1_);fill:url(#SVGID_2_);}
	.st13{clip-path:url(#SVGID_3_);fill:url(#SVGID_4_);}
	.st14{clip-path:url(#SVGID_5_);}
	.st15{clip-path:url(#SVGID_6_);fill:url(#SVGID_7_);}
	.st16{clip-path:url(#SVGID_8_);fill:url(#SVGID_9_);}
	.st17{clip-path:url(#SVGID_10_);fill:url(#SVGID_11_);}
	.st18{clip-path:url(#SVGID_12_);fill:url(#SVGID_13_);}
	.st19{clip-path:url(#SVGID_14_);fill:url(#SVGID_15_);}
	.st20{clip-path:url(#SVGID_16_);fill:url(#SVGID_17_);}
	.st21{clip-path:url(#SVGID_18_);fill:url(#SVGID_19_);}
	.st22{clip-path:url(#SVGID_39_);fill:url(#SVGID_40_);}
	.st23{clip-path:url(#SVGID_41_);fill:url(#SVGID_42_);}
	.st24{clip-path:url(#SVGID_43_);fill:url(#SVGID_44_);}
	.st25{clip-path:url(#SVGID_45_);fill:url(#SVGID_46_);}
	.st26{clip-path:url(#SVGID_47_);fill:url(#SVGID_48_);}
	.st27{clip-path:url(#SVGID_49_);fill:url(#SVGID_50_);}
	.st28{clip-path:url(#SVGID_51_);fill:url(#SVGID_52_);}
	.st29{clip-path:url(#SVGID_53_);fill:url(#SVGID_54_);}
	.st30{clip-path:url(#SVGID_55_);fill:url(#SVGID_56_);}
</style></svg>
