<?xml version="1.0" encoding="UTF-8" standalone="no"?>
<!-- Created with Inkscape (http://www.inkscape.org/) -->

<svg
   id="svg1468"
   sodipodi:docname="quantumsand-experimental-hourglass.svg"
   viewBox="0 0 187.5 187.5"
   sodipodi:version="0.32"
   version="1.0"
   y="0"
   x="0"
   inkscape:version="1.2 (dc2aeda, 2022-05-15)"
   inkscape:export-filename="quantumsand-experimental-hourglass.png"
   inkscape:export-xdpi="96"
   inkscape:export-ydpi="96"
   xmlns:inkscape="http://www.inkscape.org/namespaces/inkscape"
   xmlns:sodipodi="http://sodipodi.sourceforge.net/DTD/sodipodi-0.dtd"
   xmlns="http://www.w3.org/2000/svg"
   xmlns:svg="http://www.w3.org/2000/svg"
   xmlns:rdf="http://www.w3.org/1999/02/22-rdf-syntax-ns#"
   xmlns:cc="http://creativecommons.org/ns#"
   xmlns:dc="http://purl.org/dc/elements/1.1/">
  <defs
     id="defs192" />
  <sodipodi:namedview
     id="base"
     bordercolor="#666666"
     inkscape:pageshadow="2"
     inkscape:window-width="1562"
     pagecolor="#ffffff"
     inkscape:zoom="1.8346667"
     borderopacity="1.0"
     inkscape:current-layer="g2694"
     inkscape:cx="23.164971"
     inkscape:cy="95.385173"
     inkscape:window-height="978"
     inkscape:pageopacity="0.0"
     inkscape:showpageshadow="2"
     inkscape:pagecheckerboard="0"
     inkscape:deskcolor="#d1d1d1"
     showgrid="false"
     inkscape:window-x="0"
     inkscape:window-y="44"
     inkscape:window-maximized="0" />
  <g
     id="layer1"
     transform="matrix(1.4287538,0,0,1.4287538,-33.961737,-37.041709)">
    <g
       id="g2694"
       transform="matrix(1.1427,0,0,1.1427,-11.172,-982.14)">
      <path
         id="rect2675"
         style="fill:#ffffff;stroke:#000000;stroke-width:2.5971;stroke-linecap:round;stroke-linejoin:round"
         d="m 75.462,891.04 25.328,0.26 c 13.15,0 12.85,-0.59 12.85,11.9 v 13.67 c -14.108,21.25 -10.59,22.55 -23.739,22.55 H 86.1 c -13.151,0 -10.604,-2.28 -23.739,-22.55 l 0.254,-14.43 c 0,-12.49 -0.304,-11.4 12.847,-11.4 z" />
      <path
         id="path2678"
         style="fill:#ffffff;stroke:#000000;stroke-width:2.5971;stroke-linecap:round;stroke-linejoin:round"
         d="m 87.741,994.31 1.072,0.04 c 13.147,0 24.827,-5.1 24.827,-17.59 V 963.09 C 98.072,939.9 103.05,940.54 89.901,940.54 H 86.1 c -13.151,0 -7.198,-1.62 -23.739,22.55 l 0.254,14.43 c 0,12.49 11.974,16.79 25.126,16.79 z" />
      <path
         id="path2680"
         style="fill:#9f00ff;fill-rule:evenodd;fill-opacity:1"
         d="m 83.053,934.64 c 0,0 -6.005,-3.76 -7.728,-6.06 -1.722,-2.29 -4.49,-8.4 -4.49,-8.4 l -1.946,-4.3 c 0,0 10.862,-0.09 12.968,1.63 2.105,1.73 5.598,1.05 6.938,0.67 1.34,-0.39 8.996,-1.73 13.585,-1.92 4.6,-0.19 4.79,0.39 4.79,0.39 0,0 -0.87,5.01 -3.36,7.31 -2.49,2.29 -6.402,9.72 -11.187,10.87 -4.785,1.15 -1.149,0.76 -1.149,0.76 0,0 -1.339,0.39 -1.722,3.26 -0.383,2.87 -0.957,6.89 -1.149,9.18 -0.191,2.3 -0.765,17.77 -0.574,19.11 0.192,1.34 7.514,4.94 9.62,6.85 2.105,1.92 11.601,7.4 9.401,9.05 -7.594,5.68 -18.447,5.13 -18.447,5.13 l -11.211,-0.99 c 0,0 -18.534,-4.78 -4.474,-10.8 4.894,-2.09 11.857,-7.33 13.58,-8.28 1.723,-0.96 1.531,-2.3 1.531,-2.3 0,0 -0.383,-22.74 -1.148,-24.85 -0.766,-2.1 -3.637,-5.74 -3.828,-6.31 z" />
      <path
         id="path2682"
         style="fill:#ffffff;stroke:#000000;stroke-width:5.875;stroke-linecap:round;stroke-linejoin:round"
         transform="matrix(0.44206,0,0,0.44206,311.47,843.14)"
         d="m -450,110.36 a 55,16 0 1 1 -110,0 55,16 0 1 1 110,0 z" />
    </g>
  </g>
  <metadata
     id="metadata189">
    <rdf:RDF>
      <cc:Work>
        <dc:format>image/svg+xml</dc:format>
        <dc:type
           rdf:resource="http://purl.org/dc/dcmitype/StillImage" />
        <cc:license
           rdf:resource="http://creativecommons.org/publicdomain/zero/1.0/" />
        <dc:publisher>
          <cc:Agent
             rdf:about="http://openclipart.org/">
            <dc:title>Openclipart</dc:title>
          </cc:Agent>
        </dc:publisher>
        <dc:title>Time icon</dc:title>
        <dc:date>2006-12-26T00:00:00</dc:date>
        <dc:description />
        <dc:source>https://openclipart.org/detail/24868/-by--24868</dc:source>
        <dc:creator>
          <cc:Agent>
            <dc:title>Anonymous</dc:title>
          </cc:Agent>
        </dc:creator>
      </cc:Work>
      <cc:License
         rdf:about="http://creativecommons.org/licenses/publicdomain/">
        <cc:permits
           rdf:resource="http://creativecommons.org/ns#Reproduction" />
        <cc:permits
           rdf:resource="http://creativecommons.org/ns#Distribution" />
        <cc:permits
           rdf:resource="http://creativecommons.org/ns#DerivativeWorks" />
      </cc:License>
    </rdf:RDF>
  </metadata>
</svg>
